<?xml version="1.0" standalone="no"?>
<!DOCTYPE svg PUBLIC "-//W3C//DTD SVG 1.1//EN" "http://www.w3.org/Graphics/SVG/1.1/DTD/svg11.dtd" >
<svg xmlns="http://www.w3.org/2000/svg" xmlns:xlink="http://www.w3.org/1999/xlink" version="1.1">
<metadata>
Created by FontForge 20170731 at Thu Jul 11 15:54:31 2013
 By Aleksey,,,
Copyright (c) 2008, Haley Fiege (haley@kingdomofawesome.com), Copyright (c) 2012, Brenda Gallo (gbrenda1987@gmail.com)Copyright (c) 2013, Pablo Impallari (www.impallari.com|impallari@gmail.com), with no Reserved Font Name.
</metadata>
<defs>
<font id="Sniglet-ExtraBold" horiz-adv-x="746" >
  <font-face 
    font-family="Sniglet"
    font-weight="800"
    font-stretch="normal"
    units-per-em="1000"
    panose-1="4 7 10 5 3 1 0 2 0 0"
    ascent="800"
    descent="-200"
    x-height="513.5"
    cap-height="705"
    bbox="-67.75 -289.455 1114 955.222"
    underline-thickness="50"
    underline-position="-150"
    unicode-range="U+0020-FB02"
  />
<missing-glyph horiz-adv-x="554" 
d="M85 597q2 40 13.5 52.5t29.5 13.5q23 13 59.5 21t73.5 12t68.5 5.5t43.5 1.5q36 0 56 -4.5t30 -27t12.5 -68.5t2.5 -130v-137.5t-1 -99t-2 -75.5t-2 -65q-2 -41 -14 -53.5t-29 -12.5q-24 -13 -60.5 -21t-73.5 -12t-68 -5.5t-43 -1.5q-36 0 -56 4.5t-30 27t-12.5 68.5
t-2.5 130v137.5t1 99t1.5 75.5t2.5 65zM374 414v56.5t0.5 46.5t1.5 44t2 49q-51 -6 -85.5 -10.5t-57 -7.5t-36.5 -4.5t-25 -2.5q2 -42 3 -77.5l2 -71t1 -73.5v-84v-56.5t-0.5 -46.5t-1.5 -44t-2 -49l85 10t56.5 7t36.5 5t25 3q-2 42 -2.5 77.5t-1.5 71t-1 73v84.5z" />
    <glyph glyph-name="f_i" unicode="fi" horiz-adv-x="960" 
d="M422 513q40 11 72 9q27 -2 50 -17.5t25 -56.5q1 -41 -18 -59t-43 -24q-28 -7 -64 -2q14 -104 6 -187q-3 -35 -12 -69t-25.5 -61t-42 -44t-62.5 -18q-65 -3 -99.5 22.5t-50 75.5t-17.5 121t0 160q-38 -11 -68 -7q-13 1 -25.5 6t-23 14t-17 23.5t-7.5 36.5q-1 30 13.5 48
t36.5 26t47 8.5t44 -3.5q-2 28 2 58q4 26 15.5 58t36.5 64q27 32 67 51q35 17 88.5 23t130.5 -14q22 -8 40 -20q15 -11 26 -28.5t8 -43.5q-1 -18 -9 -32q-7 -12 -20.5 -21.5t-38.5 -8.5q-14 0 -25 -4q-10 -3 -20 -10t-15 -21q-2 -5 -3 -13q-3 -15 -2 -40zM875 663
q2 -22 -5.5 -43t-22 -37.5t-35.5 -27t-46 -13.5q-26 -3 -48.5 3.5t-40.5 19.5t-29.5 31.5t-14.5 41.5q-2 22 5.5 42.5t22.5 37t36 27.5t46 14t47.5 -3.5t40.5 -19.5t30 -32t14 -41zM918 101q-8 -45 -31 -68.5t-47 -34.5q-29 -12 -62 -13q-43 -2 -70 11.5t-43 30.5
q-18 19 -29 45q-20 54 -23.5 111.5t1.5 105.5q5 55 18 108q12 46 35.5 69.5t46.5 34.5q27 12 57 13q46 2 74.5 -15.5t45.5 -40.5q19 -26 28 -62q7 -33 11 -77q3 -38 1.5 -92.5t-13.5 -125.5z" />
    <glyph glyph-name="f_l" unicode="fl" horiz-adv-x="965" 
d="M422 513q40 11 72 9q27 -2 50 -17.5t25 -56.5q1 -41 -18 -59t-43 -24q-28 -7 -64 -2q14 -104 6 -187q-3 -35 -12 -69t-25.5 -61t-42 -44t-62.5 -18q-65 -3 -99.5 22.5t-50 75.5t-17.5 121t0 160q-38 -11 -68 -7q-13 1 -25.5 6t-23 14t-17 23.5t-7.5 36.5q-1 30 13.5 48
t36.5 26t47 8.5t44 -3.5q-2 28 2 58q4 26 15.5 58t36.5 64q27 32 67 51q35 17 88.5 23t130.5 -14q22 -8 40 -20q15 -11 26 -28.5t8 -43.5q-1 -18 -9 -32q-7 -12 -20.5 -21.5t-38.5 -8.5q-14 0 -25 -4q-10 -3 -20 -10t-15 -21q-2 -5 -3 -13q-3 -15 -2 -40zM610 202
q-7 57 -7 119.5t3 116.5q3 62 9 122q6 55 24 99q8 18 19.5 36t27.5 32t37.5 22.5t48.5 8.5q38 -1 71 -24q13 -10 27 -25t25.5 -38t20 -54t11.5 -72q6 -80 6 -153t-2 -130q-3 -67 -9 -125q-5 -44 -23 -77q-8 -14 -19.5 -28t-28 -24.5t-38.5 -16.5t-50 -5q-26 1 -46.5 10.5
t-36.5 24.5t-27 34.5t-19 39.5q-18 47 -24 107z" />
    <glyph glyph-name=".notdef" horiz-adv-x="554" 
d="M85 597q2 40 13.5 52.5t29.5 13.5q23 13 59.5 21t73.5 12t68.5 5.5t43.5 1.5q36 0 56 -4.5t30 -27t12.5 -68.5t2.5 -130v-137.5t-1 -99t-2 -75.5t-2 -65q-2 -41 -14 -53.5t-29 -12.5q-24 -13 -60.5 -21t-73.5 -12t-68 -5.5t-43 -1.5q-36 0 -56 4.5t-30 27t-12.5 68.5
t-2.5 130v137.5t1 99t1.5 75.5t2.5 65zM374 414v56.5t0.5 46.5t1.5 44t2 49q-51 -6 -85.5 -10.5t-57 -7.5t-36.5 -4.5t-25 -2.5q2 -42 3 -77.5l2 -71t1 -73.5v-84v-56.5t-0.5 -46.5t-1.5 -44t-2 -49l85 10t56.5 7t36.5 5t25 3q-2 42 -2.5 77.5t-1.5 71t-1 73v84.5z" />
    <glyph glyph-name=".null" horiz-adv-x="0" 
 />
    <glyph glyph-name="nonmarkingreturn" horiz-adv-x="428" 
 />
    <glyph glyph-name="space" unicode=" " horiz-adv-x="428" 
 />
    <glyph glyph-name="exclam" unicode="!" horiz-adv-x="446" 
d="M62 408q-7 26 -8.5 57.5t-0.5 60.5q1 33 4 68q6 45 25 80q8 15 20.5 29.5t29.5 25.5t40 18t52 7q35 -3 67 -19q27 -14 53 -41.5t39 -78.5q11 -49 13 -92.5t-1 -77.5q-4 -40 -12 -74q-12 -35 -33 -62q-18 -23 -48.5 -42t-77.5 -19q-53 0 -85 25t-49 55q-20 35 -28 80z
M353 77q0 -23 -10 -42.5t-28 -34t-41.5 -23t-50.5 -8.5t-50.5 8.5t-41 23t-27.5 34t-10 42.5q0 22 10 42t27.5 34.5t41 23t50.5 8.5t50.5 -8.5t41.5 -23t28 -34.5t10 -42z" />
    <glyph glyph-name="quotedbl" unicode="&#x22;" horiz-adv-x="448" 
d="M201 678q1 -17 -0.5 -39t-6 -43.5t-10 -40.5t-11.5 -31q-6 -13 -16 -23q-8 -9 -20.5 -16t-29.5 -6q-18 1 -29.5 10.5t-17.5 20.5q-8 13 -11 29q-8 30 -12 61q-4 26 -3.5 56.5t8.5 57.5q7 24 19.5 36t27 16.5t29 3.5t25.5 -5q9 -4 18.5 -9.5t17.5 -14.5t14 -24t8 -39z
M404 678q1 -17 -0.5 -39t-6 -43.5t-10 -40.5t-11.5 -31q-6 -13 -16 -23q-8 -9 -20.5 -16t-29.5 -6q-18 1 -29.5 10.5t-17.5 20.5q-8 13 -11 29q-8 30 -12 61q-4 26 -3.5 56.5t8.5 57.5q7 24 19.5 36t27 16.5t29 3.5t25.5 -5q9 -4 18.5 -9.5t17.5 -14.5t14 -24t8 -39z" />
    <glyph glyph-name="numbersign" unicode="#" horiz-adv-x="759" 
d="M656 385q-11 -2 -23.5 -3.5t-32.5 -1.5l-10 -50q31 -2 48 -12.5t25.5 -23.5t10.5 -26t2 -20q0 -4 -1 -15t-7.5 -23.5t-20.5 -22.5t-39 -12l-52 -4l-17 -63q-6 -23 -18 -36t-24 -19t-22 -7.5t-13 -1.5q-7 0 -19 3t-23.5 13.5t-20 30t-8.5 53.5v11t1 12h-41.5t-40.5 1
l-15 -60q-6 -23 -17 -36t-23 -19t-23 -7.5t-16 -1.5q-1 0 -12 2t-23.5 10t-23 24t-10.5 43v24.5t1 27.5l-31 3q-27 3 -43 13t-23.5 22t-9.5 24t-2 18q0 11 4.5 24.5t18.5 25.5t39 20t67 10q3 25 9 51q-32 0 -50 10.5t-27 23.5t-11 24.5t-2 12.5q0 9 1 19.5t7.5 21t20 20
t37.5 16.5q25 7 60 10q10 42 20 67t21 38.5t23.5 18t28.5 4.5q35 0 57 -16.5t22 -54.5q0 -12 -1 -24.5t-3 -23.5q20 0 39 -0.5t39 -0.5q10 39 20 62.5t20.5 36.5t23 17t27.5 4q32 0 55.5 -16t23.5 -58q0 -12 -1.5 -27.5t-3.5 -30.5q37 -3 57 -13t29.5 -22t11.5 -25.5
t2 -23.5q0 -11 -2 -21.5t-9.5 -20t-21 -17t-35.5 -12.5zM413 343l6 32l-64 3l-6 -34z" />
    <glyph glyph-name="dollar" unicode="$" horiz-adv-x="584" 
d="M371 421q54 -13 85.5 -34t48.5 -44.5t22 -46t5 -38.5q0 -51 -19 -85t-46 -54.5t-57 -30.5t-52 -14q-4 -20 -4.5 -32.5t-0.5 -18.5q-3 -26 -12 -40.5t-20.5 -21.5t-23.5 -8t-20 -1t-18 2.5t-19.5 10.5t-16 21.5t-7.5 36.5l-2 55q-60 9 -95 26.5t-53 37.5t-23 40t-5 35
q0 31 13 50.5t33 30.5t44 14.5t46 3.5q8 0 17 -0.5t18 -1.5q-45 12 -73 32t-43.5 42.5t-20.5 45.5t-5 42q0 39 14.5 67t36.5 46.5t49 29.5t53 17l4 63q2 28 10 46t19 28t22.5 13.5t19.5 3.5q15 -1 28.5 -7t23 -22t15.5 -44.5t6 -74.5q50 -6 81.5 -18.5t49 -28.5t23.5 -34
t6 -34q0 -30 -16 -49t-39.5 -29.5t-51 -14.5t-50.5 -5v-8z" />
    <glyph glyph-name="percent" unicode="%" horiz-adv-x="743" 
d="M273 55q-15 -21 -31 -28.5t-29 -7.5q-15 0 -29 7t-23 19q-8 11 -12 28.5t4 43.5q9 30 29 74t46 94.5t55 104t56.5 101.5t51 87.5t38.5 61.5q17 26 35.5 35t34.5 9q18 0 36 -9q15 -5 24 -17q8 -11 11 -29.5t-8 -48.5q-32 -87 -80.5 -178.5t-95.5 -169.5q-55 -91 -113 -177
zM307 514q-6 -34 -22 -56t-38.5 -34.5t-49 -15t-53.5 2.5q-55 11 -85.5 50.5t-20.5 95.5q5 27 18 51t33.5 40.5t48 23t62.5 0.5q33 -6 56 -21.5t36 -36.5t16.5 -47t-1.5 -53zM666 119q-6 -34 -22 -56.5t-38.5 -34.5t-49 -15t-53.5 2q-28 5 -49.5 18.5t-36 32.5t-20 43.5
t-0.5 51.5t18 51t33.5 40.5t48 23.5t62.5 1q33 -6 56 -21.5t36 -36.5t16.5 -47t-1.5 -53z" />
    <glyph glyph-name="ampersand" unicode="&#x26;" horiz-adv-x="798" 
d="M175 467q-20 42 -27 83q-6 35 0 75.5t40 74.5q30 30 67 44.5t74.5 15t73 -13t61.5 -40.5q28 -31 39 -69q10 -32 5 -75.5t-44 -94.5q20 -20 38 -43q16 -20 34 -46.5t32 -56.5q31 29 63 44q27 13 57.5 12.5t56.5 -32.5q24 -32 17 -64.5t-26.5 -59t-40 -44t-23.5 -19.5
l12 -12t21.5 -27t21.5 -38.5t11 -44.5t-10 -47t-40 -46q-20 -15 -39 -19.5t-37 -2.5t-34 9t-30 17q-33 23 -60 61q-46 -32 -99 -48q-23 -7 -49 -11t-55.5 -2.5t-61 10.5t-64.5 27q-43 25 -72 65q-12 17 -23 38.5t-17.5 48.5t-7.5 59t7 70q6 33 22 67q14 29 39 65t68 70z
M308 258q-23 -11 -30.5 -23t-6.5 -22q1 -11 9 -23q11 -15 23.5 -15.5t22.5 5.5q11 6 23 20z" />
    <glyph glyph-name="quotesingle" unicode="'" horiz-adv-x="224" 
d="M198 678q1 -17 -0.5 -39t-6 -43.5t-10 -40.5t-11.5 -31q-6 -13 -16 -23q-8 -9 -20.5 -16t-29.5 -6q-18 1 -29.5 10.5t-17.5 20.5q-8 13 -11 29q-8 30 -12 61q-4 26 -3.5 56.5t8.5 57.5q7 24 19.5 36t27 16.5t29 3.5t25.5 -5q9 -4 18.5 -9.5t17.5 -14.5t14 -24t8 -39z" />
    <glyph glyph-name="parenleft" unicode="(" horiz-adv-x="444" 
d="M146 746q13 22 31.5 38.5t40.5 25.5t48.5 8t56.5 -14q36 -17 49.5 -41t15.5 -47q2 -27 -7 -56q-22 -62 -33 -120t-14 -111t0 -100t10 -87q16 -93 50 -171q11 -26 8 -52q-2 -22 -17.5 -45t-55.5 -39q-39 -16 -74 -7t-63.5 31t-49.5 51.5t-33 53.5q-33 68 -48.5 133.5
t-19 126.5t2.5 115.5t18 101.5q27 110 84 205z" />
    <glyph glyph-name="parenright" unicode=")" horiz-adv-x="447" 
d="M300 -3q-14 -22 -32 -38.5t-40 -25.5t-48.5 -8t-56.5 14q-37 16 -50 40.5t-15 47.5q-2 27 7 56q22 62 33 120t14 111t0 100t-10 87q-16 93 -50 171q-11 26 -8 52q2 22 17 44.5t56 39.5q39 16 74 7t63.5 -31t49.5 -51.5t33 -53.5q33 -68 48.5 -134t19 -126.5t-2.5 -115.5
t-18 -102q-27 -110 -84 -204z" />
    <glyph glyph-name="asterisk" unicode="*" horiz-adv-x="625" 
d="M244 590q-6 33 0 59q3 11 8 22t15 19.5t24 13.5t35 5q33 -2 55 -17q19 -13 29 -40t-6 -76q39 11 71 7q13 -2 26 -6.5t23.5 -14.5t16.5 -25.5t6 -38.5t-5.5 -39t-14 -26.5t-19.5 -16t-22 -8.5q-27 -6 -61 1q20 -26 28 -52q7 -22 1 -46.5t-39 -44.5q-35 -20 -60 -11.5
t-42 26.5q-19 21 -32 55q-16 -28 -38 -42q-19 -12 -45.5 -12.5t-59.5 28.5q-17 20 -22 42q-5 19 2.5 42.5t41.5 48.5q-37 14 -60 33q-10 8 -18 18.5t-11.5 23t-1.5 27t13 31.5q22 35 50 41.5t53 0.5q29 -7 59 -28z" />
    <glyph glyph-name="plus" unicode="+" horiz-adv-x="618" 
d="M576 358q1 -26 -8 -49q-8 -20 -25.5 -39t-52.5 -27l-28 -6t-28 -5q-3 -32 -6 -48q-2 -10 -3 -17q-5 -35 -24 -53t-39 -26q-24 -9 -52 -8q-21 1 -40 8q-17 6 -33.5 19t-27.5 38q-7 15 -11.5 34t-8.5 42q-14 1 -25 2t-19 3l-15 3q-35 5 -52.5 24t-25.5 39q-9 24 -8 52
q1 21 8 40q6 17 19 33.5t38 27.5q14 7 33.5 11.5t41.5 8.5q2 17 4.5 32.5t6.5 29.5q8 32 24.5 49.5t33.5 25.5q20 10 43 11q26 1 49 -8q20 -8 39 -25.5t27 -52.5l6 -28t5 -28q40 -5 68 -12q32 -8 50 -24.5t26 -33.5q10 -20 10 -43z" />
    <glyph glyph-name="comma" unicode="," horiz-adv-x="326" 
d="M272 117q2 -47 -3 -81.5t-15.5 -58.5t-24 -39.5t-28.5 -24.5q-34 -21 -80 -16q-14 2 -19 8t-7 13q-2 8 1 17q4 13 15 17q4 2 10 2q14 0 15.5 10.5t0.5 20.5q-57 4 -86.5 39.5t-29.5 86.5q0 52 32 88.5t93 36.5q60 0 92 -34.5t34 -84.5z" />
    <glyph glyph-name="hyphen" unicode="-" horiz-adv-x="526" 
d="M395 404q34 -9 53 -26t27 -34q10 -20 11 -42q2 -25 -4 -46q-5 -19 -20.5 -37t-47.5 -27q-74 -20 -138 -20t-135 11q-35 5 -54.5 22t-27.5 35q-11 21 -11 46q-2 26 7 49q8 20 26.5 39t58.5 28q51 11 97 12.5t81 -0.5q41 -3 77 -10z" />
    <glyph glyph-name="period" unicode="." horiz-adv-x="352" 
d="M301 116q0 -26 -8 -49t-24 -40t-39.5 -27t-54.5 -10q-30 0 -53.5 10t-39.5 27t-24.5 40t-8.5 49t8.5 49t24.5 40t39.5 27t53.5 10q31 0 54.5 -10t39.5 -27t24 -40t8 -49z" />
    <glyph glyph-name="slash" unicode="/" horiz-adv-x="429" 
d="M187 16q-13 -27 -29.5 -38t-30.5 -14q-18 -4 -35 1t-30 16q-11 10 -19.5 28.5t-4.5 50.5q4 36 17 89.5t31 116.5t39.5 129t42.5 126t39 109t30 77q14 33 33.5 46.5t36.5 17.5q20 4 42 -2q19 -3 31 -14q11 -10 17.5 -30.5t1.5 -56.5q-8 -52 -22 -107.5t-30.5 -111
t-34.5 -109.5t-36 -102q-42 -114 -89 -222z" />
    <glyph glyph-name="zero" unicode="0" horiz-adv-x="592" 
d="M564 310q0 -73 -20 -130t-55.5 -96t-83.5 -59.5t-104 -20.5t-104.5 20.5t-83.5 59.5t-55 96t-20 130t10 144t38.5 127t80 90.5t134.5 34.5q90 0 142.5 -34.5t79 -90.5t34 -127t7.5 -144zM308 382q-18 0 -28.5 -11t-10.5 -33q0 -17 10 -27.5t29 -10.5q21 0 28.5 11.5
t7.5 25.5q0 23 -10 34t-26 11z" />
    <glyph glyph-name="one" unicode="1" horiz-adv-x="492" 
d="M206 454q-34 -24 -67 -35q-28 -9 -57 -4.5t-46 39.5q-12 24 -14 45.5t3.5 40.5t16 35.5t23.5 30.5q30 33 77 58q51 25 92.5 28t70.5 -3q34 -7 61 -25q24 -17 41 -47t27.5 -67.5t16.5 -80t8 -84.5q5 -98 -5 -211q-3 -35 -10 -60.5t-17.5 -44.5t-23 -31.5t-25.5 -19.5
q-30 -18 -66 -18q-39 0 -63.5 18.5t-38.5 41.5q-16 26 -23 60q-12 60 -11 119.5t8 107.5q8 56 22 107z" />
    <glyph glyph-name="two" unicode="2" horiz-adv-x="582" 
d="M226 706q70 5 116 -9t73 -34q32 -23 48 -54q18 -33 24 -65.5t4 -63.5t-10.5 -60t-19.5 -54q-27 -59 -73 -112q45 -1 81 -15q15 -6 29.5 -16t25.5 -24.5t18 -34.5t6 -47q-1 -26 -13.5 -45t-33 -32t-46 -21.5t-51.5 -13.5q-62 -11 -140 -9q-80 0 -124 18.5t-66 40.5
q-26 26 -31 59q-5 42 5.5 72.5t30.5 54.5t47.5 45.5t56.5 45.5q14 12 26 26t19.5 29.5t7.5 31t-10 29.5q-13 17 -30 22.5t-32 3.5q-18 -2 -37 -9q-34 -7 -53 5.5t-29 30.5q-11 20 -16 49q-1 25 7 45.5t21.5 36t31 27.5t36.5 20q44 19 101 27z" />
    <glyph glyph-name="three" unicode="3" horiz-adv-x="618" 
d="M246 709q59 3 109 -4q43 -6 84.5 -22t60.5 -49q20 -37 17.5 -71t-13.5 -60q-13 -31 -36 -58q38 -18 61.5 -46t35.5 -55q14 -32 19 -65q7 -71 -10 -119t-42 -77q-29 -34 -68 -55q-75 -32 -143 -33t-120 11q-61 14 -112 43q-23 15 -36 30.5t-19 30.5t-6.5 29t2.5 26
q7 28 31 54q21 21 46 23.5t46 -2.5q25 -6 50 -21q23 -14 41.5 -16.5t31.5 -0.5q15 3 26 11q11 10 14.5 21t2.5 20q-1 11 -7 20q-7 11 -18 16.5t-22 7.5q-13 3 -27 2q-48 0 -71 15t-33 33q-11 21 -11 49q0 26 16 44.5t36 30t38 17t22 6.5q-40 -5 -70 -3t-51 7.5t-35 14
t-23 18.5q-20 23 -19 55q0 22 9 39.5t23.5 30t32.5 21.5t37 15q44 13 100 16z" />
    <glyph glyph-name="four" unicode="4" horiz-adv-x="649" 
d="M613 288q0 -31 -12.5 -48t-26.5 -25q-17 -10 -38 -13q7 -59 -4 -105q-5 -20 -14.5 -38.5t-25.5 -33t-39.5 -23.5t-56.5 -9q-30 0 -52 9t-37 23.5t-24 33t-13 38.5q-11 46 -5 105q-40 0 -70 3t-51 7q-25 4 -42 11q-30 8 -45.5 26t-21 42t-3 51.5t10.5 55.5q18 65 59 142
q23 40 48 68.5t50.5 47t50 29t47.5 15.5q53 11 104 -1q29 -8 50.5 -26.5t36.5 -42.5t24.5 -52.5t14.5 -56.5q12 -66 8 -145q29 -1 44 -14.5t23 -30.5q9 -19 10 -43zM250 432q-17 0 -29.5 -13t-10.5 -29q2 -21 12.5 -29t27.5 -8t28 10t11 27q0 16 -10 29t-29 13z" />
    <glyph glyph-name="five" unicode="5" horiz-adv-x="591" 
d="M159 682q32 13 70 17t70 3q38 -1 74 -7q57 -9 86 -29.5t41 -40.5q14 -24 13 -51q-1 -29 -13.5 -48.5t-32.5 -32.5t-44 -20t-46.5 -10t-40.5 -3.5t-26 -0.5q62 -5 102.5 -21t65.5 -33q29 -20 45 -45q32 -52 35.5 -100.5t-5.5 -86.5q-11 -45 -34 -84q-17 -26 -39.5 -43.5
t-48.5 -28t-53.5 -16t-54.5 -6.5q-62 -4 -131 9q-37 10 -62.5 24t-43 30t-27 32.5t-14.5 32.5q-11 37 -1 77q13 36 34 48t41 12q24 0 50 -12q33 -17 52 -17.5t29 6.5q11 8 14 24q5 19 -5 32.5t-25 22.5q-18 11 -42 17q-32 11 -57.5 24t-43 35t-26.5 54.5t-7 82.5
q2 46 17.5 75.5t34.5 46.5q22 20 49 31z" />
    <glyph glyph-name="six" unicode="6" horiz-adv-x="614" 
d="M576 234q0 -46 -11 -80.5t-28.5 -60t-40 -43t-46.5 -28.5q-55 -26 -125 -28q-46 0 -82 10.5t-64.5 27.5t-49 39t-35.5 45q-34 54 -47 122q-6 49 -2 93t15 82.5t27.5 71.5t34.5 60q42 62 99 110q42 37 78.5 44.5t65.5 2.5q33 -6 62 -27q17 -13 26.5 -27t13 -27.5
t2.5 -26.5t-5 -25q-9 -27 -32 -54q-17 -20 -28 -33t-18 -22q-8 -11 -12 -17q39 0 68.5 -9t51 -24t36 -34t23.5 -38q21 -46 23 -104zM315 274q-17 0 -29.5 -13t-10.5 -29q2 -21 12.5 -29t27.5 -8t28 10t11 27q0 16 -10 29t-29 13z" />
    <glyph glyph-name="seven" unicode="7" horiz-adv-x="600" 
d="M295 465q-71 -18 -126 -17q-24 0 -47 4.5t-41 15.5t-29.5 29.5t-12.5 47.5q-2 38 9.5 65.5t31 46.5t45 31t52.5 19q62 16 144 11q63 -3 103.5 -18.5t65.5 -33.5q28 -21 44 -47q17 -26 22.5 -61t2.5 -75.5t-13 -83t-23 -83.5q-31 -96 -81 -201q-12 -29 -26 -49.5t-30 -34
t-32 -21.5t-31 -11q-35 -8 -73 2q-38 12 -55.5 33.5t-24.5 42.5q-8 25 -5 52q4 57 25 116.5t44 108.5q27 57 61 111z" />
    <glyph glyph-name="eight" unicode="8" horiz-adv-x="625" 
d="M587 214q0 -57 -20.5 -100.5t-57 -72.5t-86.5 -44t-110 -15t-110 15t-86 44t-56.5 72.5t-20.5 100.5q0 65 23.5 113t74.5 77q-28 25 -40.5 56.5t-11.5 67.5q0 43 17 77t46.5 57.5t70 35.5t88.5 12q47 0 87 -12t69.5 -35t46 -57t16.5 -78q0 -83 -45 -125q54 -32 79.5 -81
t25.5 -108zM316 273q-17 0 -29.5 -13t-10.5 -29q2 -21 12.5 -29t27.5 -8t28 10t11 27q0 16 -10 29t-29 13zM316 537q-17 0 -29.5 -13t-10.5 -29q2 -21 12.5 -29t27.5 -8t28 10t11 27q0 16 -10 29t-29 13z" />
    <glyph glyph-name="nine" unicode="9" horiz-adv-x="609" 
d="M35 468q0 46 11.5 80.5t30.5 60t43 43t49 28.5q59 26 134 29q46 0 81.5 -10.5t63 -27.5t47.5 -39t34 -44q33 -53 43 -120q6 -49 1.5 -93.5t-16.5 -83.5t-29 -72t-35 -60q-44 -64 -103 -112q-45 -39 -82.5 -48t-65.5 -4q-33 6 -60 27q-17 13 -26 27t-12 28.5t-2 28.5t5 26
q9 29 32 56q16 19 27 32.5t18 22.5q8 11 12 17q-39 0 -68.5 9t-51 23.5t-36 33t-23.5 38.5q-21 46 -22 104zM311 472q-17 0 -29.5 -13t-10.5 -29q2 -21 12.5 -29t27.5 -8t28 10t11 27q0 16 -10 29t-29 13z" />
    <glyph glyph-name="colon" unicode=":" horiz-adv-x="339" 
d="M278 408q0 -48 -28.5 -80t-85.5 -32q-54 0 -83 32t-29 80q0 47 29 80t83 33q28 0 49.5 -9t35.5 -24.5t21.5 -36t7.5 -43.5zM278 94q0 -48 -28.5 -80t-85.5 -32q-54 0 -83 32t-29 80q0 24 7.5 44.5t22 36t35 24.5t47.5 9q56 0 85 -33.5t29 -80.5z" />
    <glyph glyph-name="semicolon" unicode=";" horiz-adv-x="337" 
d="M273 399q0 -48 -28 -79.5t-83 -31.5q-53 0 -81.5 31.5t-28.5 79.5q0 45 28.5 78t81.5 33q55 0 83 -33t28 -78zM269 97q2 -41 -2.5 -71.5t-13.5 -51.5t-20.5 -34.5t-24.5 -20.5q-30 -18 -70 -13q-13 2 -17.5 6.5t-5.5 10.5t1 15q2 6 5.5 9t7.5 5t9 2q12 0 13 9.5t0 18.5
q-50 4 -75.5 34.5t-25.5 75.5q0 46 28 77.5t82 31.5q52 0 79.5 -30.5t29.5 -73.5z" />
    <glyph glyph-name="less" unicode="&#x3c;" horiz-adv-x="474" 
d="M243 106q-1 1 -17 11.5t-39 28.5t-50 42t-50 52.5t-38 59.5t-15 64q0 31 15 62.5t38 60.5t50 54t50 43.5t39 29t17 11.5q16 12 38 15t44 -1.5t41.5 -17t32.5 -32.5q27 -43 15.5 -82t-48.5 -66q-11 -9 -24 -20q-11 -10 -25.5 -24t-30.5 -31q22 -22 41.5 -39.5t34.5 -30.5
q18 -15 32 -28q19 -18 27 -41q7 -20 3.5 -47t-30.5 -59q-13 -15 -32.5 -24t-40.5 -11t-42 3t-36 17z" />
    <glyph glyph-name="equal" unicode="=" horiz-adv-x="536" 
d="M398 550q34 -8 52.5 -21t26.5 -26q10 -15 11 -32q2 -19 -4 -36q-5 -14 -20 -28.5t-47 -21.5q-74 -16 -137.5 -16t-134.5 9q-35 5 -54 17.5t-27 26.5q-10 16 -11 36q-3 20 6 38q8 15 27 30t58 22q50 9 96 10.5t81 -0.5q41 -3 77 -8zM398 328q34 -8 52.5 -21t26.5 -26
q10 -15 11 -32q2 -19 -4 -36q-5 -14 -20 -28.5t-47 -21.5q-74 -16 -137.5 -16t-134.5 9q-35 5 -54 17.5t-27 26.5q-10 16 -11 36q-3 20 6 38q8 15 27 30t58 22q50 9 96 10.5t81 -0.5q41 -3 77 -8z" />
    <glyph glyph-name="greater" unicode="&#x3e;" horiz-adv-x="468" 
d="M224 620q1 -1 17 -11.5t39 -28.5t50 -42t50 -52.5t38 -60t15 -63.5q0 -31 -15 -62.5t-38 -60.5t-50 -54t-50 -43.5t-39 -29.5t-17 -11q-17 -12 -38.5 -15t-43.5 1.5t-41.5 17t-32.5 32.5q-27 43 -15.5 82t48.5 66q11 9 24 20q11 10 25 24l31 31q-22 21 -41.5 39t-34.5 31
q-18 15 -32 28q-19 18 -27 41q-7 20 -4 47t31 59q13 15 32.5 24t40.5 11t42 -3t36 -17z" />
    <glyph glyph-name="question" unicode="?" horiz-adv-x="646" 
d="M509 61q0 -52 -37 -80.5t-95 -28.5t-92.5 32.5t-34.5 78.5q0 54 34.5 83t92.5 29t95 -31.5t37 -82.5zM525 290q-24 -39 -57 -61q-14 -9 -31.5 -16t-38 -8t-44 5.5t-49.5 23.5q-17 10 -25.5 25.5t-11 32.5t0.5 36t9 37q13 42 41 89q-33 -31 -67 -47q-29 -14 -65.5 -15
t-72.5 29q-35 33 -48 73q-6 17 -7 38t5 45t21.5 50.5t43.5 55.5q45 38 102 56q24 7 53.5 10.5t63 -1t71 -18t78.5 -39.5q38 -24 57.5 -59t26 -74.5t2.5 -80.5t-13.5 -77.5t-22 -65.5t-22.5 -44z" />
    <glyph glyph-name="at" unicode="@" horiz-adv-x="710" 
d="M160 459q20 0 33.5 -5t21.5 -11.5t11.5 -13t4.5 -8.5q1 3 4 9.5t9.5 13.5t17 12.5t25.5 5.5q27 0 41.5 -20t21.5 -43q8 -27 10 -62q0 -54 -9.5 -82.5t-22 -40.5t-24.5 -13t-17 -1q-4 0 -11.5 1t-16 5.5t-15.5 13.5t-9 25q-4 -12 -14 -22q-8 -8 -24 -14.5t-41 -6.5h-10.5
t-10.5 1q-1 0 -15.5 2.5t-32 14t-31.5 36.5t-14 70q0 11 3 33.5t15 44.5t35.5 38.5t64.5 16.5zM448 485q-1 2 -1 5q-1 3 -1 12q0 10 2.5 21.5t9.5 22t20.5 17.5t36.5 7q24 0 38 -9t21 -21.5t9 -25.5t2 -21t14.5 -9t31.5 -5.5t31.5 -17t14.5 -42.5q0 -21 -9 -33t-22 -18.5
t-26 -8t-21 -1.5h-8q0 -6 1 -12q0 -5 0.5 -12.5t0.5 -16.5q0 -18 -2.5 -39.5t-9 -39.5t-19.5 -30.5t-34 -12.5q-23 0 -37.5 7.5t-22.5 20.5t-11 31.5t-3 39.5q0 31 3 67q-3 -1 -7 -1q-5 -1 -18 -1q-11 0 -23.5 2t-23.5 8.5t-18.5 18t-7.5 31.5t9 33t22.5 20.5t29 10
t28.5 2.5zM612 145q17 0 27 -4.5t15 -10t6 -11t1 -7.5t-1 -6.5t-4.5 -9.5t-11.5 -9.5t-22 -5.5q-23 -2 -55 -3t-70.5 -2t-81 -1.5t-85.5 -0.5q-65 0 -125 1t-105 3q-19 1 -28.5 6t-14.5 10q-5 6 -6 14q0 9 6 17q5 7 15.5 12.5t30.5 6.5q56 2 119 2.5t125 0.5
q54 0 101.5 -0.5t84.5 -0.5q42 -1 79 -1zM206 338q-8 0 -13 -5t-5 -15q0 -9 5 -13.5t13 -4.5t13 4.5t5 13.5q0 10 -5 15t-13 5z" />
    <glyph glyph-name="A" unicode="A" 
d="M622 9q-24 -8 -50 -10q-22 -2 -48.5 2t-52.5 19q-29 17 -47.5 40t-29.5 45t-15.5 40t-5.5 26q-1 -8 -5.5 -26t-15.5 -40t-29.5 -45t-47.5 -40q-26 -15 -52.5 -19t-48.5 -2q-26 2 -50 10q-20 7 -34.5 18.5t-24 26t-16 31t-9.5 32.5q-8 38 -6 81q3 71 16 130.5t32.5 109
t42.5 89t45 71.5q33 48 67.5 73t64 36.5t49 13t22.5 1.5t22.5 -1.5t49 -13t64.5 -36.5t68 -73q22 -32 44.5 -71.5t42 -89t32.5 -109t16 -130.5q3 -43 -5 -81q-3 -16 -9.5 -32.5t-16.5 -31t-24.5 -26t-34.5 -18.5zM377 369q-17 0 -29.5 -13t-10.5 -29q2 -21 12.5 -29t27.5 -8
t28 10t11 27q0 16 -10 29t-29 13z" />
    <glyph glyph-name="B" unicode="B" horiz-adv-x="668" 
d="M373 714q71 -3 114.5 -24.5t68.5 -46.5q29 -29 42 -66q15 -55 4 -92.5t-31 -61.5q-23 -28 -57 -46q46 -14 71 -39t36 -49q13 -28 15 -60q2 -41 -8 -73t-28 -55.5t-42 -40.5t-49 -28q-60 -26 -137 -32q-42 -3 -77 1t-63 12t-50 18.5t-38 22.5q-39 27 -59 63
q-30 51 -39 110t-9 110q0 52 6 94t14 71q9 34 20 61q13 34 33 58.5t43.5 42t49 27.5t49.5 16q57 13 121 7zM338 514q-17 0 -28.5 -10.5t-11.5 -27.5q0 -16 8.5 -29.5t31.5 -13.5q20 0 30 13.5t10 29.5q0 15 -10 26.5t-30 11.5zM347 274q-17 0 -29.5 -13t-10.5 -29
q2 -21 12.5 -29t27.5 -8t28 10t11 27q0 16 -10 29t-29 13z" />
    <glyph glyph-name="C" unicode="C" horiz-adv-x="695" 
d="M497 426q-31 5 -56 1q-21 -4 -39 -17t-20 -45q-1 -24 11 -42q11 -15 35 -25.5t72 -5.5q45 5 81 -4q15 -4 30.5 -11t28 -19.5t22 -31t12.5 -43.5q2 -30 -5 -58q-6 -24 -22.5 -51t-51.5 -46q-37 -20 -89 -29q-45 -8 -110 -6t-153 26q-62 20 -110 64q-21 19 -40.5 44.5
t-34.5 60t-23.5 78.5t-6.5 98q1 78 28 146q12 29 30.5 58.5t47 55.5t67 47t90.5 33q51 12 106 13q46 1 101.5 -8.5t107.5 -40.5q27 -19 43 -46q7 -12 12 -26.5t6.5 -31.5t-1.5 -37t-13 -43q-11 -23 -31 -38q-17 -13 -47.5 -21t-77.5 1z" />
    <glyph glyph-name="D" unicode="D" horiz-adv-x="684" 
d="M624 180q-12 -40 -33 -69.5t-47 -50.5t-55.5 -34t-58.5 -21q-69 -18 -147 -16q-60 -1 -99 12.5t-63 30.5q-28 19 -45 43q-15 25 -22.5 56t-10.5 62.5t-3 62v56.5q0 53 3 97.5t8 77.5q4 39 11 70q5 31 17 54t27.5 39.5t33 27.5t35.5 17q41 15 91 13q48 0 88 -6.5t72 -17
t57.5 -24.5t45.5 -28q46 -34 72 -77q25 -43 37 -99q5 -24 8.5 -53.5t2.5 -64.5t-6.5 -74.5t-18.5 -83.5zM347 384q-17 0 -28.5 -8.5t-11.5 -33.5q0 -24 11.5 -30.5t28.5 -6.5t28 10t11 27q0 16 -10 29t-29 13z" />
    <glyph glyph-name="E" unicode="E" horiz-adv-x="668" 
d="M343 711q56 -2 97.5 -8t72 -15.5t50.5 -20.5t32 -23q29 -27 28 -60q0 -30 -11 -51.5t-29 -36.5t-42 -24t-49 -14q-59 -11 -134 -7q57 -10 86 -27.5t40 -34.5q13 -20 11 -44q0 -29 -14.5 -48.5t-33.5 -31.5t-36 -17.5t-22 -6.5q46 0 81 -5t60.5 -14t42 -20.5t27.5 -23.5
q25 -28 25 -64q-2 -24 -14 -41.5t-30.5 -30.5t-42.5 -21.5t-48 -14.5q-57 -13 -130 -14q-55 -2 -97 4t-74 16t-55 23t-38 27q-36 33 -45 75q-13 66 -14.5 138.5t2.5 133.5q4 71 14 140q6 34 21.5 59.5t37 43.5t47 29.5t51.5 17.5q60 15 133 12z" />
    <glyph glyph-name="F" unicode="F" horiz-adv-x="622" 
d="M354 257q11 -55 10.5 -95t-9 -68.5t-23 -46.5t-30.5 -28q-39 -25 -95 -19q-28 0 -50 7.5t-39 20.5t-29 29.5t-21 33.5q-20 40 -28 92q-13 66 -14 134t2 123q4 64 12 125q6 36 23.5 62t41.5 44.5t52 30t57 17.5q67 15 147 11q48 -3 84.5 -10t62.5 -16.5t44 -21t29 -23.5
q26 -27 27 -61q1 -27 -8.5 -47.5t-25.5 -34.5t-37 -23.5t-43 -14.5q-52 -12 -120 -10q50 -8 75.5 -23.5t36.5 -32.5q13 -19 13 -41q0 -42 -23 -65t-50 -34q-32 -13 -72 -15z" />
    <glyph glyph-name="G" unicode="G" horiz-adv-x="754" 
d="M457 279q-23 10 -31.5 23t-10.5 24q-2 13 3 27q7 18 32.5 26.5t58.5 11.5t68.5 1t61.5 -6q17 -3 29 -8.5t20 -10.5q9 -6 15 -14q9 -12 15 -31t9.5 -41.5t5 -47t1.5 -48.5q0 -56 -6 -120q-3 -41 -19.5 -63t-35.5 -32q-22 -12 -49 -13q-22 0 -43 4.5t-38 16t-27 31
t-10 48.5q-11 -14 -31.5 -28t-49.5 -23.5t-67 -12t-85 5.5q-72 14 -127 57q-24 18 -46.5 44t-40 62.5t-28.5 83.5t-11 107q1 76 27 145q11 29 29 59.5t45 58.5t64.5 51.5t87.5 40.5q60 15 120 13q25 -1 53.5 -5.5t57 -15t56.5 -28t53 -43.5q16 -19 25 -43q8 -20 8.5 -48
t-14.5 -61q-12 -23 -35 -35q-20 -11 -53.5 -13t-86.5 18q-37 10 -65 6q-25 -4 -45 -22.5t-21 -66.5q2 -36 16 -60q6 -10 15.5 -18.5t23.5 -13t32.5 -3.5t43.5 10z" />
    <glyph glyph-name="H" unicode="H" horiz-adv-x="766" 
d="M404 489q1 64 19 114q7 21 19 42t30 37t42 26t57 10q38 -3 71 -25q28 -19 53.5 -59.5t34.5 -113.5q8 -71 9 -134t-1 -111q-3 -56 -8 -104q-6 -49 -25 -88q-8 -17 -20 -32.5t-28.5 -28t-37.5 -19.5t-48 -7q-30 0 -53 10t-40 26.5t-28.5 37t-19.5 41.5q-18 50 -22 113h-37
q-6 -64 -26 -113q-9 -21 -21.5 -41.5t-29.5 -36t-40 -25.5t-52 -10q-41 1 -74 21q-14 9 -28.5 22t-26.5 33.5t-20.5 48t-11.5 64.5q-8 87 -7.5 153.5t3.5 113.5q4 55 11 95q8 47 27 84q8 16 19.5 31t27 27t35 19t43.5 7q33 0 57 -10t42 -26t29.5 -36.5t19.5 -41.5
q18 -50 18 -114h38z" />
    <glyph glyph-name="I" unicode="I" horiz-adv-x="420" 
d="M39 203q-6 41 -7.5 89.5t-0.5 90.5q1 49 4 99q5 62 25 111q9 21 22 41t31.5 35.5t43.5 25.5t58 10q40 -3 73 -24q14 -9 28.5 -23t27 -35t22 -49t14.5 -64q8 -70 9 -132.5t-1 -110.5q-3 -55 -8 -103q-7 -49 -26 -87q-9 -16 -21 -31.5t-29 -28t-39 -19.5t-50 -7
q-31 0 -55 9.5t-42.5 24.5t-31 34t-21.5 39q-20 47 -26 105z" />
    <glyph glyph-name="J" unicode="J" horiz-adv-x="547" 
d="M175 255q-3 40 -4.5 83.5t-1.5 79.5q0 42 1 83q1 58 18 105q7 19 18.5 38t28 34t39 24.5t52.5 9.5q43 0 79 -18q15 -8 30 -21t27.5 -32.5t21.5 -47t12 -64.5q5 -69 7 -123t1 -92q-1 -45 -3 -79q-2 -35 -11 -69q-8 -29 -23.5 -62.5t-44.5 -61.5q-16 -15 -45.5 -27
t-65.5 -18t-76 -5.5t-77 9t-68 26t-49 46.5q-12 18 -13 39.5t6.5 40t22 31.5t34.5 15q35 3 52.5 12t24.5 19q8 11 7 25z" />
    <glyph glyph-name="K" unicode="K" horiz-adv-x="732" 
d="M213 713q45 1 75.5 -8t49.5 -24.5t28.5 -35t13 -38t3 -34.5t-1.5 -24q4 13 18 41.5t47 57.5q37 32 70.5 36t58.5 -4q29 -10 54 -32q23 -24 32.5 -48t8.5 -48t-9.5 -46.5t-20.5 -42.5q-29 -47 -82 -90q47 -51 75.5 -93t43.5 -76.5t18.5 -61.5t0.5 -48q-8 -48 -50 -75
q-44 -27 -82.5 -27.5t-70.5 14t-57 40t-42.5 50.5t-27.5 44t-11 23q0 -3 1 -26t-8 -51t-33.5 -54t-73.5 -35q-28 -6 -51 -2t-41 13.5t-31.5 24t-23.5 29.5q-24 36 -36 86q-11 48 -16 105q-5 49 -4 115t13 143t38.5 118t54.5 60q32 22 69 24z" />
    <glyph glyph-name="L" unicode="L" horiz-adv-x="651" 
d="M355 284q43 23 78 32t62 8t47.5 -10.5t34.5 -22.5q33 -31 47 -85q2 -9 1.5 -28t-8 -42.5t-24 -48.5t-47 -46t-77.5 -35.5t-114 -16.5q-47 -2 -84.5 6t-67 21.5t-52 31.5t-38.5 37q-38 44 -55 101q-18 51 -22 113.5t-1 117.5q3 64 13 129q11 64 37 98t53 48q31 17 67 17
q42 1 71 -16.5t47.5 -47t28 -68t12.5 -78.5q8 -94 -9 -215z" />
    <glyph glyph-name="M" unicode="M" horiz-adv-x="987" 
d="M312 716q44 0 74.5 -14.5t50.5 -37t31 -49t16.5 -50t6.5 -41t1 -21.5q1 7 4 25.5t11 42.5t21 50t33.5 47.5t49.5 35.5t69 14q49 0 85.5 -24t60.5 -53q28 -33 48 -76q27 -63 41.5 -125.5t21.5 -113.5q8 -60 9 -115q1 -42 -4.5 -74t-15.5 -55t-23.5 -38.5t-28.5 -25.5
q-34 -23 -78 -24q-39 0 -68.5 13.5t-51 36t-36 51t-23.5 58.5q-22 70 -23 159q-5 -59 -20.5 -89t-32.5 -42q-20 -15 -44 -13q-39 0 -61 22.5t-33 50.5q-13 32 -16 73q0 -61 -7.5 -107.5t-19.5 -80t-27.5 -56.5t-31.5 -38q-38 -34 -86 -38q-38 0 -65.5 9t-47.5 23.5t-33 33.5
t-21 39q-18 47 -18 106q0 81 11.5 148.5t25.5 116.5q17 57 38 103q26 60 62 89.5t68 41.5q38 14 77 12z" />
    <glyph glyph-name="N" unicode="N" horiz-adv-x="823" 
d="M55 552q10 43 34 78q20 30 56.5 55.5t95.5 28.5q51 2 88 -14t62 -42t39.5 -57.5t22.5 -61.5t10.5 -53t3.5 -32q0 50 6.5 87.5t17.5 65t25.5 45.5t29.5 29q35 26 80 26q47 1 75.5 -16.5t43.5 -39.5q18 -26 24 -58q17 -88 17 -167.5t-5 -141.5q-7 -72 -20 -136
q-7 -32 -17.5 -55.5t-23 -40t-26.5 -27t-27 -16.5q-32 -14 -66 -11q-52 -1 -90 18.5t-65 49.5t-44.5 66.5t-28 69.5t-14.5 58t-5 33q3 -61 -2.5 -106t-16.5 -77t-25.5 -53t-30.5 -33q-37 -29 -86 -26q-43 -2 -70 15.5t-42 38.5q-18 25 -26 57q-19 79 -21.5 157.5t2.5 142.5
q5 74 19 143z" />
    <glyph glyph-name="O" unicode="O" horiz-adv-x="748" 
d="M393 704q60 0 105.5 -14.5t79.5 -38.5t57 -54.5t38 -62.5q35 -75 40 -169q0 -71 -14 -124.5t-36.5 -93t-51 -66.5t-58.5 -45q-70 -41 -160 -47q-68 0 -119 14.5t-89 38t-64 54t-43 62.5q-40 74 -45 169q0 78 15.5 135t41 98.5t57.5 68t66 42.5q79 37 180 33zM378 383
q-17 0 -29.5 -13t-10.5 -29q2 -21 12.5 -29t27.5 -8t28 10t11 27q0 16 -10 29t-29 13z" />
    <glyph glyph-name="P" unicode="P" horiz-adv-x="737" 
d="M693 463q2 -55 -10 -95.5t-33 -69t-48.5 -46.5t-56.5 -28q-68 -25 -155 -19q8 -37 8 -65t-6 -49t-16 -35.5t-22 -24.5q-28 -23 -69 -28q-59 -6 -98 15t-62 49q-27 33 -42 76q-23 78 -25.5 149t4.5 126q8 63 25 119q13 39 33.5 67.5t44 49t49.5 33t51 20.5q59 18 125 14
q56 -2 98.5 -14t74 -30.5t53.5 -41.5t37 -47q33 -55 40 -125zM388 483q-17 0 -29.5 -13t-10.5 -29q2 -21 12.5 -29t27.5 -8t28 10t11 27q0 16 -10 29t-29 13z" />
    <glyph glyph-name="Q" unicode="Q" horiz-adv-x="833" 
d="M722 206q20 -15 39 -33.5t29 -41.5t7.5 -51.5t-26.5 -64.5q-28 -42 -61.5 -54.5t-64.5 -7t-56 22.5t-35 35q-26 -11 -49.5 -16.5t-40.5 -8.5q-21 -4 -38 -4q-69 0 -122 14.5t-92 38.5t-65.5 54.5t-43.5 62.5q-40 75 -46 171q0 78 16 135.5t41.5 99t58.5 68t68 42.5
q81 37 185 33q61 0 108 -15t81.5 -39t58.5 -54.5t39 -62.5q36 -75 41 -170q0 -55 -9 -90t-23 -64zM426 370q-17 0 -29.5 -13t-10.5 -29q2 -21 12.5 -29t27.5 -8t28 10t11 27q0 16 -10 29t-29 13z" />
    <glyph glyph-name="R" unicode="R" horiz-adv-x="687" 
d="M621 519q10 -54 3 -96t-18 -71q-14 -34 -34 -59q36 -31 57.5 -59.5t31.5 -53.5t10.5 -46.5t-3.5 -39.5q-11 -42 -49 -76q-37 -30 -71.5 -31t-64 15.5t-53.5 44.5t-41.5 55.5t-27.5 49t-11 24.5q5 -32 2.5 -57.5t-9 -44.5t-17 -32.5t-22.5 -22.5q-27 -22 -65 -27
q-50 -7 -83 11.5t-52 42.5q-23 28 -34 66q-26 88 -30 160.5t1 126.5q6 62 22 113q10 41 28 71t40.5 52t47.5 36t49 22q57 19 122 16q44 0 79 -8.5t62.5 -22t48 -30t34.5 -34.5q33 -41 47 -95zM350 450q-17 0 -29.5 -13t-10.5 -29q2 -21 12.5 -29t27.5 -8t28 10t11 27
q0 16 -10 29t-29 13z" />
    <glyph glyph-name="S" unicode="S" horiz-adv-x="625" 
d="M306 460q56 -8 98 -21t72.5 -30t50.5 -36t33 -38q30 -44 31 -96q0 -45 -11 -80t-29.5 -60.5t-42 -43t-47.5 -29.5q-57 -27 -130 -32q-56 -4 -99 0t-74.5 13.5t-53 22.5t-34.5 28q-33 34 -35 80q0 33 9 56t25 38.5t36.5 25t41.5 14.5q50 11 114 3q-44 10 -75.5 25.5
t-53.5 35t-35.5 40.5t-21.5 41q-18 48 -12 102q5 37 17.5 65t29.5 48t36.5 33.5t39.5 21.5q47 19 103 19q93 4 147.5 -9.5t82 -35.5t34 -48.5t4.5 -48.5q-3 -25 -15 -42.5t-30 -29.5t-40.5 -19.5t-45.5 -10.5q-54 -9 -120 -2z" />
    <glyph glyph-name="T" unicode="T" horiz-adv-x="717" 
d="M223 415q-57 -4 -102 8q-19 5 -37 14.5t-32.5 24t-23 35.5t-8.5 50q0 50 20.5 79.5t45.5 44.5q29 18 66 24q80 17 156 19.5t137 -1.5q70 -4 135 -15q46 -10 69.5 -31t34.5 -43q12 -26 12 -55q-1 -32 -9.5 -55t-22 -39.5t-30.5 -26.5t-34 -16q-40 -13 -91 -9
q13 -76 14.5 -134.5t-1.5 -99.5q-4 -48 -13 -82q-10 -48 -32.5 -71t-45.5 -34q-27 -12 -58 -12q-35 -1 -65 10q-26 10 -50 34t-35 73q-11 51 -12.5 105.5t1.5 99.5q4 53 11 103z" />
    <glyph glyph-name="U" unicode="U" horiz-adv-x="767" 
d="M215 711q36 -2 64 -19q24 -14 44.5 -45t20.5 -88q0 -43 -1 -81.5t2 -68t11.5 -47t26.5 -17.5t26.5 17.5t11.5 47t2 68t-2 81.5q-1 28 4.5 49.5t15.5 37.5t22.5 26.5t25.5 16.5q31 15 71 15q51 3 82.5 -14t49.5 -38q20 -26 30 -58q17 -76 17.5 -146.5t-6.5 -125.5
q-8 -64 -23 -121q-21 -61 -62 -109q-18 -20 -41.5 -39.5t-55 -34.5t-71 -24t-87.5 -9q-41 0 -74.5 6.5t-61.5 16.5t-50 23t-39 26q-40 31 -63 70q-19 32 -31 67.5t-19.5 72t-11 72t-3.5 68.5q-1 77 10 152q12 63 39 94.5t55 44.5q33 15 71 13z" />
    <glyph glyph-name="V" unicode="V" horiz-adv-x="806" 
d="M419 424q13 93 45 163q13 30 32 56.5t44.5 45.5t57.5 27t73 -1q39 -9 62.5 -29.5t35.5 -48.5t14.5 -61.5t-0.5 -66.5q-7 -78 -42 -172q-35 -96 -83 -171q-20 -32 -45.5 -63t-55.5 -55t-64.5 -38.5t-73.5 -14.5q-56 0 -102 21.5t-83 56.5t-65 78t-49 85.5t-35 80.5t-22 63
q-8 24 -17.5 56t-14 66t-2 68t17 63t44 50t78.5 30q37 6 67.5 -2.5t55.5 -27.5t44 -45.5t33 -55.5q33 -68 50 -158z" />
    <glyph glyph-name="W" unicode="W" horiz-adv-x="996" 
d="M686 -8q-46 0 -77.5 14.5t-52.5 36.5t-32 48.5t-16.5 50t-6.5 41t-1 21.5q-1 -7 -4.5 -25.5t-11.5 -42t-21.5 -49.5t-35 -47.5t-51.5 -35.5t-71 -14q-51 0 -88.5 23.5t-62.5 52.5q-29 33 -50 77q-28 62 -42.5 125t-21.5 114q-8 60 -9 115q-2 41 3.5 72t16 54t24.5 38.5
t29 25.5q35 24 81 27q45 0 78 -17.5t56 -46t37 -63t21.5 -68.5t10.5 -63.5t4 -47.5q1 52 17 79t35 39q22 14 50 14q22 0 38.5 -7t28.5 -17.5t20.5 -24t13.5 -27.5q11 -33 12 -75q0 61 7.5 107t20 80.5t28.5 58t33 38.5q40 36 90 41q34 0 60 -9t45 -24t32 -34t21 -40
q19 -48 21 -110q0 -82 -11 -148t-25 -114q-16 -55 -36 -99q-13 -29 -28.5 -50t-32.5 -36.5t-34.5 -26t-33.5 -16.5q-38 -15 -78 -15z" />
    <glyph glyph-name="X" unicode="X" horiz-adv-x="833" 
d="M402 539q36 80 83 128q20 20 44 35.5t51.5 19.5t58.5 -5.5t65 -39.5q27 -24 39 -50.5t12.5 -54t-8 -54.5t-21.5 -51q-31 -57 -88 -114q61 -49 94 -102q14 -23 23 -48.5t8 -53t-13.5 -56.5t-42.5 -57q-40 -38 -77.5 -45.5t-71.5 4t-63 37t-51 53t-36 52t-18 35.5
q-37 -82 -83 -130q-20 -21 -43 -36t-50 -19t-57 6.5t-63 41.5q-31 29 -44 58.5t-14 58t8.5 55t24.5 49.5q34 55 99 105q-74 49 -113 103q-17 23 -27.5 49t-9.5 54t16.5 56.5t51.5 57.5q33 26 64 34t59.5 2.5t54 -20.5t46.5 -35q50 -47 92 -123z" />
    <glyph glyph-name="Y" unicode="Y" horiz-adv-x="740" 
d="M390 547q21 76 53.5 113.5t64.5 51.5q37 17 77 12q32 -4 54.5 -14t37.5 -23.5t23.5 -29.5t13.5 -32q10 -38 2 -84q-13 -55 -43 -95.5t-61 -66.5q-36 -31 -78 -52q20 -63 18 -113t-11 -85q-11 -41 -31 -73q-23 -32 -52 -45.5t-68 -13.5q-32 0 -55.5 7t-38.5 16
q-18 10 -30 23q-16 18 -26.5 39t-16.5 44t-8 46.5t-2 44.5q0 50 11 103q-51 22 -93 55q-18 14 -35.5 31.5t-32.5 38.5t-25.5 45.5t-14.5 52.5q-5 33 -1 58.5t13 45t21.5 33.5t26.5 23q33 22 77 28q33 2 61 -5t50.5 -19.5t40 -29t30.5 -34.5q31 -41 48 -96z" />
    <glyph glyph-name="Z" unicode="Z" horiz-adv-x="727" 
d="M244 392q-58 -2 -104 13q-20 6 -38.5 16.5t-33 26.5t-23.5 39t-9 54q0 46 33 82q14 15 36 29.5t55.5 26t79.5 17.5t108 5q82 -2 136.5 -11.5t86 -28t42.5 -46t6 -63.5q-9 -40 -30 -83q-18 -38 -50.5 -84.5t-86.5 -95.5q67 7 121 -4q23 -5 45 -14t39 -25t27.5 -39
t10.5 -55q0 -64 -29 -99t-74.5 -51t-101 -18.5t-107.5 -2.5t-102 1t-92 11t-73 32.5t-46 66.5q-10 29 -8 57.5t12.5 55t27 50.5t35.5 45q44 48 107 92z" />
    <glyph glyph-name="bracketleft" unicode="[" horiz-adv-x="617" 
d="M500 22q35 -3 52.5 -14.5t25.5 -24.5q9 -15 8 -34q0 -19 -9 -37q-8 -15 -25.5 -29.5t-52.5 -21.5q-91 -17 -162 -14.5t-113 11.5q-29 6 -50.5 18.5t-37.5 29t-27.5 35.5t-18.5 38q-18 44 -21 96q-3 22 -5 59.5t-3 83.5t-1 97v101q1 117 4 250q-2 21 1 43q2 19 9 42t22 46
q3 7 12 16t21 17.5t25 16t24 10.5q32 10 74.5 16t88.5 7.5t91 -1.5t83 -11q32 -7 48.5 -19t23.5 -23q8 -13 7 -28q0 -17 -9 -31q-8 -13 -25 -25t-51 -17t-85 -8t-97 -6q2 -11 2.5 -25.5t2.5 -28.5q3 -46 4.5 -106t1.5 -124t-1.5 -128.5t-3 -119.5t-3.5 -96.5t-3 -60.5
q22 2 48 2.5t50 0t44 -1t31 -1.5z" />
    <glyph glyph-name="backslash" unicode="\" horiz-adv-x="495" 
d="M374 -33q-18 -5 -35 -1q-15 3 -31 14t-29 38q-49 108 -90 222q-18 48 -36 102t-34.5 109.5t-30 111t-21.5 107.5q-6 36 1 56.5t18 30.5q12 11 31 14q22 6 42 2q17 -4 36.5 -17.5t33.5 -46.5q12 -28 30 -77t39 -109t42.5 -126t39.5 -129t31 -117t17 -89q3 -32 -5 -50.5
t-19 -28.5q-13 -11 -30 -16z" />
    <glyph glyph-name="bracketright" unicode="]" horiz-adv-x="582" 
d="M105 720q-35 2 -52.5 14t-25.5 25q-9 15 -8 34q0 19 9 37q8 15 25.5 29.5t52.5 21.5q91 17 162 14.5t113 -11.5q28 -6 49.5 -19t38 -29.5t27.5 -35t19 -37.5q18 -44 21 -96q3 -23 5 -60.5t3 -83t1 -96.5v-101q-1 -117 -4 -250q2 -21 -1 -43q-2 -19 -9.5 -42.5
t-21.5 -45.5q-3 -7 -12 -16t-21 -17.5t-25 -16t-24 -10.5q-32 -10 -74.5 -16t-88.5 -7.5t-91.5 1.5t-82.5 11q-32 7 -48.5 19t-23.5 23q-8 13 -7 28q0 16 9 31q8 12 25 24.5t51 17.5t85 8t97 6q-2 11 -2.5 25.5t-2.5 28.5q-3 46 -4.5 106t-1.5 124t1.5 128.5t3 119.5
t3.5 96.5t3 60.5q-23 -2 -48.5 -2.5t-49.5 0t-44 1t-31 1.5z" />
    <glyph glyph-name="asciicircum" unicode="^" horiz-adv-x="635" 
d="M57 545q1 1 11.5 17t28.5 39t42 50t52.5 50t59.5 38t64 15q32 0 63 -15t60 -38t54 -50t43.5 -50t29 -39t11.5 -17q12 -17 15 -38.5t-1.5 -43.5t-17 -41.5t-32.5 -32.5q-43 -27 -82 -15.5t-66 48.5q-9 11 -20 24q-10 11 -24 25l-31 31q-22 -22 -39.5 -41.5t-30.5 -34.5
q-15 -18 -28 -32q-18 -19 -41 -27q-20 -7 -47 -4t-59 31q-15 13 -24 32.5t-11 40.5t3 42t17 36z" />
    <glyph glyph-name="underscore" unicode="_" horiz-adv-x="686" 
d="M557 148q35 -4 53.5 -16.5t26.5 -26.5q10 -17 10 -36q1 -20 -6 -38q-6 -15 -20.5 -29t-44.5 -19q-38 -6 -90 -9.5t-109.5 -4.5t-116 1t-107.5 6q-35 3 -54 16t-27 27q-10 17 -11 37q-2 22 8 40q8 16 27.5 31t59.5 21q72 10 143.5 11t128.5 -1q67 -3 129 -10z" />
    <glyph glyph-name="grave" unicode="`" horiz-adv-x="376" 
d="M182 768q16 -5 35.5 -15.5t37.5 -23t33.5 -26t23.5 -23.5q9 -12 14 -24q5 -11 6.5 -25t-6.5 -29q-8 -17 -21 -23t-26 -8q-15 -2 -31 2q-31 5 -61 14q-26 8 -53.5 19.5t-48.5 30.5q-19 16 -25 32.5t-4.5 31.5t8.5 28t15 21q7 7 16 13.5t20.5 10t27.5 2.5t39 -8z" />
    <glyph glyph-name="a" unicode="a" horiz-adv-x="704" 
d="M242 513q53 5 87 -5.5t53.5 -25.5t27.5 -29.5t9 -17.5q0 1 5.5 14.5t18.5 29.5t35 28.5t55 12.5q28 0 49 -11t37 -29t27 -41t18 -47q17 -56 19 -127q3 -57 -2 -99.5t-14.5 -73t-22.5 -51t-27 -32.5q-33 -29 -77 -27q-27 -1 -51 9q-20 8 -39 27.5t-24 57.5
q-10 -30 -36 -51q-22 -18 -62 -31t-106 -5q-54 6 -96 32q-18 11 -35.5 28t-31 42t-21.5 58t-8 76q-2 75 19 136q9 26 24 51.5t38 46.5t55 35.5t76 18.5zM375 278q-17 0 -29.5 -13t-10.5 -29q2 -21 12.5 -29t27.5 -8t28 10t11 27q0 16 -10 29t-29 13z" />
    <glyph glyph-name="b" unicode="b" horiz-adv-x="680" 
d="M212 765q32 -3 54 -16.5t36 -34t21 -45.5t9 -50q5 -60 -9 -134q46 19 94 20q20 0 43 -3t46.5 -12.5t47 -25.5t46.5 -41q21 -24 33.5 -59.5t15.5 -73.5t-2.5 -76.5t-19.5 -68.5q-17 -37 -38 -61t-40 -38q-22 -17 -44 -26q-57 -26 -116.5 -30t-113 9t-97.5 39.5t-71 61.5
q-23 29 -37 66t-22 78t-10.5 83.5t-2.5 82.5q1 93 17 194q8 48 28 85q9 16 21 30.5t28 25.5t36.5 16.5t46.5 3.5zM348 289q-17 0 -29.5 -13t-10.5 -29q2 -21 12.5 -29t27.5 -8t28 10t11 27q0 16 -10 29t-29 13z" />
    <glyph glyph-name="c" unicode="c" horiz-adv-x="570" 
d="M384 285q-20 6 -35 5q-14 -1 -24.5 -8t-10.5 -26q1 -14 9 -22q7 -7 21 -9.5t41 8.5q29 11 57 11q24 -1 51 -13t49 -47q12 -26 12 -52q0 -23 -12 -51t-50 -55q-40 -27 -90 -39q-43 -11 -103 -8.5t-133 35.5q-36 18 -64 51q-24 28 -44 74.5t-20 115.5q1 58 20 109
q8 22 21 44t32 42.5t45.5 37t61.5 27.5q49 14 100 15q43 1 93.5 -12t94.5 -53q13 -13 21 -31q7 -16 9.5 -39t-8.5 -52q-10 -22 -29 -37q-17 -13 -44.5 -21t-70.5 0z" />
    <glyph glyph-name="d" unicode="d" horiz-adv-x="748" 
d="M689 30q-26 -27 -55.5 -31.5t-55.5 1t-43 14.5l-17 9q-39 -20 -86 -31t-95.5 -13t-94.5 6t-82 27q-24 14 -45 33q-18 17 -36.5 41.5t-26.5 58.5q-8 31 -10.5 68.5t3.5 76.5t22 75.5t46 64.5q46 43 96.5 57t93.5 14q50 -1 98 -15q-11 75 -3 134q3 25 11 49.5t22.5 43.5
t37 30.5t54.5 11.5q28 0 50 -8t39 -21t29.5 -29.5t20.5 -33.5q19 -40 25 -92q6 -55 6 -114q0 -51 -6.5 -113.5t-23.5 -125.5q29 -14 43.5 -38t16.5 -51t-7 -53.5t-27 -45.5zM396 278q-17 0 -29.5 -13t-10.5 -29q2 -21 12.5 -29t27.5 -8t28 10t11 27q0 16 -10 29t-29 13z" />
    <glyph glyph-name="e" unicode="e" horiz-adv-x="585" 
d="M359 207q29 -23 61 -28.5t59.5 -9.5t47 -15t24.5 -46q1 -20 -5 -39q-6 -17 -20.5 -34.5t-45.5 -29.5q-44 -14 -95 -18q-44 -4 -100 1.5t-117 30.5q-40 18 -71 51q-13 14 -25.5 32.5t-22 42t-15 52.5t-3.5 64q3 54 21 103q8 21 20 42.5t29.5 41.5t41 37t54.5 28
q51 15 104 16q22 0 47.5 -2.5t51 -10t51.5 -21.5t50 -35q16 -16 28 -36q11 -18 19 -43.5t9 -60.5q0 -39 -17.5 -64t-46 -38t-64 -15.5t-70.5 4.5zM333 334q-17 0 -29.5 -13t-10.5 -29q2 -21 12.5 -29t27.5 -8t28 10t11 27q0 16 -10 29t-29 13z" />
    <glyph glyph-name="f" unicode="f" horiz-adv-x="571" 
d="M422 513q40 11 72 9q27 -2 50 -17.5t25 -56.5q1 -41 -18 -59t-43 -24q-28 -7 -64 -2q14 -104 6 -187q-3 -35 -12 -69t-25.5 -61t-42 -44t-62.5 -18q-65 -3 -99.5 22.5t-50 75.5t-17.5 121t0 160q-38 -11 -68 -7q-13 1 -25.5 6t-23 14t-17 23.5t-7.5 36.5q-1 30 13.5 48
t36.5 26t47 8.5t44 -3.5q-2 28 2 58q4 26 15.5 58t36.5 64q27 32 67 51q35 17 88.5 23t130.5 -14q22 -8 40 -20q15 -11 26 -28.5t8 -43.5q-1 -18 -9 -32q-7 -12 -20.5 -21.5t-38.5 -8.5q-14 0 -25 -4q-10 -3 -20 -10t-15 -21q-2 -5 -3 -13q-3 -15 -2 -40z" />
    <glyph glyph-name="g" unicode="g" horiz-adv-x="680" 
d="M213 -266q-25 9 -41.5 20t-26.5 23t-15 24.5t-6 24.5q-3 27 11 56q11 24 31 34.5t40 14.5q23 4 49 1q45 2 67.5 14t32.5 26q11 16 11 36q-50 -11 -98 -9q-42 2 -87.5 16t-81.5 52q-22 23 -36.5 55.5t-21 68t-4.5 71.5t13 67q14 38 32 64.5t35 43.5q19 20 40 34
q49 29 105 38t110 1.5t101.5 -29t80.5 -52.5q28 -27 47 -59.5t30.5 -68.5t16.5 -72.5t7 -70.5q3 -80 -12 -164q-12 -68 -37 -115.5t-57.5 -78.5t-70 -48t-74.5 -24q-88 -18 -191 6zM353 259q-17 0 -29.5 -13t-10.5 -29q2 -21 12.5 -29t27.5 -8t28 10t11 27q0 16 -10 29
t-29 13z" />
    <glyph glyph-name="h" unicode="h" horiz-adv-x="731" 
d="M699 230q2 -59 -11 -107q-6 -21 -15.5 -41.5t-25.5 -38t-37.5 -30.5t-51.5 -18l-12 -1t-30.5 1t-40 8.5t-40.5 22t-32.5 41.5t-15.5 66q-4 39 -8 70q-5 26 -11 48.5t-16 22.5q3 -37 3.5 -64t-0.5 -46q-1 -22 -2 -38q-5 -38 -23 -67q-15 -26 -44.5 -46.5t-81.5 -20.5
t-82 21.5t-46 47.5q-18 31 -24 70q-8 60 -12 133q-3 63 -1.5 147.5t13.5 185.5q4 45 22 80q7 15 18 29t27 25t37 17.5t48 6.5q46 -1 78 -21t51.5 -57t27.5 -89t5 -117q86 42 156 34q30 -3 59.5 -18t53.5 -46.5t41 -82.5t23 -128z" />
    <glyph glyph-name="i" unicode="i" horiz-adv-x="389" 
d="M304 663q2 -22 -5.5 -43t-22 -37.5t-35.5 -27t-46 -13.5q-26 -3 -48.5 3.5t-40.5 19.5t-29.5 31.5t-14.5 41.5q-2 22 5.5 42.5t22.5 37t36 27.5t46 14t47.5 -3.5t40.5 -19.5t30 -32t14 -41zM347 101q-8 -45 -31 -68.5t-47 -34.5q-29 -12 -62 -13q-43 -2 -70 11.5
t-43 30.5q-18 19 -29 45q-20 54 -23.5 111.5t1.5 105.5q5 55 18 108q12 46 35.5 69.5t46.5 34.5q27 12 57 13q46 2 74.5 -15.5t45.5 -40.5q19 -26 28 -62q7 -33 11 -77q3 -38 1.5 -92.5t-13.5 -125.5z" />
    <glyph glyph-name="j" unicode="j" horiz-adv-x="405" 
d="M328 646q-1 -23 -12.5 -43t-29.5 -34.5t-42 -22.5t-51 -7t-50 11.5t-40 26.5t-26 37t-8 45q1 23 12.5 43t30 34.5t42 22t50.5 6.5t50 -11t40 -26.5t26 -37.5t8 -44zM347 -69q-5 -28 -16 -55q-9 -24 -24.5 -51.5t-40.5 -51.5q-32 -32 -73 -45t-78 -16q-43 -4 -87 3
q-36 5 -55 19.5t-28 29.5q-11 18 -12 38q-3 29 6 47t21 27q14 11 34 15q21 3 31.5 24.5t15.5 46.5q5 29 5 66q2 22 2 50.5v69.5t1.5 99.5t5.5 142.5q2 47 24.5 71t48.5 35q30 12 68 13q57 0 89 -19t47 -42q18 -26 21 -60q8 -62 12 -135q3 -63 0 -145.5t-18 -176.5z" />
    <glyph glyph-name="k" unicode="k" horiz-adv-x="721" 
d="M361 543q38 52 73.5 70.5t66.5 18.5q22 0 39.5 -7t31.5 -15q15 -10 28 -21q19 -20 26.5 -41t7.5 -43q0 -31 -12.5 -59t-26.5 -50q-18 -26 -39 -49q28 -18 55 -45t47 -58.5t32.5 -65.5t12.5 -65q0 -27 -12 -50t-31 -39.5t-43 -25.5t-47 -9q-33 0 -60.5 16t-51 40
t-41.5 52.5t-30.5 53.5t-19.5 43t-8 21q0 -2 0.5 -8t0.5 -16q0 -23 -4.5 -58t-19.5 -68t-44.5 -56.5t-80.5 -23.5q-42 0 -70 20.5t-45 45t-24 45t-7 21.5q-14 57 -20 116t-6 115q0 54 3.5 101.5t8.5 82.5q5 41 12 76q5 21 13 45.5t23.5 45.5t41.5 35.5t67 14.5
q39 0 65.5 -15t43.5 -37.5t26 -49t13 -49.5t4.5 -38.5t0.5 -16.5z" />
    <glyph glyph-name="l" unicode="l" horiz-adv-x="394" 
d="M39 202q-7 57 -7 119.5t3 116.5q3 62 9 122q6 55 24 99q8 18 19.5 36t27.5 32t37.5 22.5t48.5 8.5q38 -1 71 -24q13 -10 27 -25t25.5 -38t20 -54t11.5 -72q6 -80 6 -153t-2 -130q-3 -67 -9 -125q-5 -44 -23 -77q-8 -14 -19.5 -28t-28 -24.5t-38.5 -16.5t-50 -5
q-26 1 -46.5 10.5t-36.5 24.5t-27 34.5t-19 39.5q-18 47 -24 107z" />
    <glyph glyph-name="m" unicode="m" horiz-adv-x="994" 
d="M813 500q37 -12 62 -35t41 -53t24.5 -64.5t11.5 -68.5q7 -80 -7 -174q-9 -34 -26 -60q-15 -23 -40 -41t-66 -18q-37 0 -62.5 14t-42.5 35.5t-27 47t-14.5 49t-5.5 41.5t-1 24q-1 -8 -3.5 -27t-9 -42.5t-18 -49.5t-29.5 -47t-44.5 -34.5t-62.5 -13.5q-37 0 -63.5 14
t-45 35.5t-30.5 47.5t-19 50t-9.5 43.5t-3.5 27.5q0 -6 -1.5 -24.5t-6 -42.5t-14 -50t-25.5 -48t-39.5 -36t-56.5 -14q-46 0 -73 19.5t-41 43.5q-17 27 -22 63q-9 93 0 171q4 33 12 67t22 63.5t35.5 52t52.5 34.5q56 21 101.5 20t81 -16t61.5 -39.5t44 -50t27.5 -48.5
t12.5 -34q3 11 12.5 33t26.5 46.5t42 48t60 38.5t79 17.5t100 -15.5z" />
    <glyph glyph-name="n" unicode="n" horiz-adv-x="716" 
d="M699 230q2 -59 -11 -107q-6 -21 -15.5 -41.5t-25.5 -38t-37.5 -30.5t-51.5 -18l-12 -1t-30.5 1t-40 8.5t-40.5 22t-32.5 41.5t-15.5 66q-4 39 -8 70q-5 26 -11 48.5t-16 22.5q3 -37 3.5 -64t-0.5 -46q-1 -22 -2 -38q-5 -37 -23 -66q-15 -25 -44.5 -46t-81.5 -22
q-25 0 -44.5 5.5t-34.5 15.5t-26.5 22.5t-19.5 25.5q-19 31 -27 70q-7 27 -11 62q-4 30 -5 72t4 96q5 42 23 76q7 14 18 28t26 25.5t34.5 19t44.5 9.5q44 3 72.5 -4t46.5 -18.5t27.5 -25t16.5 -25.5q90 49 164 46q31 -1 62 -13.5t56.5 -42t43.5 -79.5t24 -127z" />
    <glyph glyph-name="o" unicode="o" horiz-adv-x="586" 
d="M540 116q-16 -29 -37.5 -50.5t-41.5 -35.5q-23 -17 -47 -27q-20 -8 -38.5 -12.5t-32.5 -6.5q-17 -3 -30 -3q-55 0 -96.5 11t-72.5 28.5t-52.5 40.5t-34.5 47q-33 55 -36 127q0 58 12.5 100.5t33 73t47 50.5t53.5 32q64 28 146 25q48 0 85 -11t64.5 -29t46 -40.5
t30.5 -46.5q28 -55 32 -126q0 -47 -8.5 -83t-22.5 -64zM307 274q-17 0 -29.5 -13t-10.5 -29q2 -21 12.5 -29t27.5 -8t28 10t11 27q0 16 -10 29t-29 13z" />
    <glyph glyph-name="p" unicode="p" horiz-adv-x="686" 
d="M35 -76q-11 99 -6 192q2 40 8.5 82.5t18.5 84t30.5 80t45.5 69.5q35 40 88 63t111.5 29t118 -4.5t107.5 -37.5q24 -15 45 -36q18 -18 35.5 -45t27.5 -63q8 -32 8.5 -73t-7.5 -81.5t-25 -76t-43 -57.5q-24 -20 -49 -32t-49.5 -18t-47 -7t-42.5 1q-47 4 -90 24
q14 -76 7 -135q-3 -25 -11 -49t-23 -43t-38.5 -30.5t-57.5 -11.5q-27 0 -48 7.5t-37.5 19.5t-28.5 27.5t-21 32.5q-20 39 -27 88zM367 274q-17 0 -29.5 -13t-10.5 -29q2 -21 12.5 -29t27.5 -8t28 10t11 27q0 16 -10 29t-29 13z" />
    <glyph glyph-name="q" unicode="q" horiz-adv-x="727" 
d="M541 -244q-32 0 -55.5 11.5t-39 30.5t-25 43t-14.5 49q-11 59 -4 135q-43 -22 -91 -28q-20 -3 -43 -2.5t-47.5 6t-49.5 17.5t-49 32q-30 24 -48 60.5t-25.5 77t-5 81.5t13.5 76q12 38 33 65.5t41 46.5q24 22 50 38q56 29 123 37t131 -2.5t118 -38t84 -69.5
q21 -30 35.5 -68.5t23 -80t12.5 -84.5t5 -83q2 -95 -11 -195q-8 -44 -27 -78q-17 -29 -49 -53t-86 -24zM377 274q-17 0 -29.5 -13t-10.5 -29q2 -21 12.5 -29t27.5 -8t28 10t11 27q0 16 -10 29t-29 13z" />
    <glyph glyph-name="r" unicode="r" horiz-adv-x="598" 
d="M317 448q26 37 56.5 52.5t56.5 19.5q31 4 61 -2q30 -8 49 -23t29 -33t14 -36t4 -31q1 -32 -8.5 -55.5t-20.5 -37.5q-13 -18 -31 -28q-32 -19 -62.5 -18t-55.5 9q-29 10 -55 28q8 -60 5.5 -105t-12 -77.5t-24.5 -54t-32 -34.5q-40 -31 -96 -29q-43 -2 -70 13t-44 34
q-19 22 -30 50q-18 54 -23.5 112t-3.5 106q1 56 9 110q11 48 35.5 72.5t50.5 35.5q30 12 66 12q42 2 68 -12.5t40 -31.5q17 -20 24 -46z" />
    <glyph glyph-name="s" unicode="s" horiz-adv-x="561" 
d="M315 318q43 -6 76 -16t56.5 -23t39 -27.5t24.5 -28.5q22 -33 22 -73q0 -33 -9.5 -58.5t-25 -44t-35 -31.5t-39.5 -22q-48 -20 -109 -25q-56 -2 -97.5 2t-71.5 12t-50.5 19t-32.5 23q-29 28 -29 65q-1 25 6.5 44t21 33t30.5 23.5t35 15.5q42 14 97 16q-68 16 -103 41
t-50 48q-18 27 -18 57q1 32 13 56t30.5 41.5t41 29t46.5 19.5q55 18 125 18q70 -2 113.5 -11.5t67.5 -26t32 -38t7 -45.5q-1 -23 -11 -39t-25 -26.5t-34 -17t-39 -9.5q-47 -7 -105 -1z" />
    <glyph glyph-name="t" unicode="t" horiz-adv-x="673" 
d="M192 583q-7 49 4 88q5 16 14 32t25 28t39 19.5t55 7.5q31 0 54 -7.5t38.5 -20.5t25.5 -29t16 -32q13 -39 10 -88q53 3 95 -9q18 -5 35 -14.5t30.5 -24t21.5 -35.5t8 -50q0 -27 -7.5 -46.5t-20.5 -33.5t-29 -23t-32 -14q-40 -12 -89 -10q10 -94 0 -167q-4 -31 -12.5 -61
t-23.5 -53t-38 -37.5t-55 -14.5q-64 0 -96.5 27.5t-45 74.5t-10.5 108t7 129q-57 -8 -101 1q-19 4 -37 12t-32 22t-22.5 35t-8.5 51q0 42 18.5 68t46.5 41t59.5 20.5t57.5 5.5z" />
    <glyph glyph-name="u" unicode="u" horiz-adv-x="680" 
d="M205 514q29 -4 52 -19q20 -13 36.5 -39t18.5 -72q0 -17 0.5 -38t3 -39t9 -30.5t19.5 -12.5q23 0 26.5 28.5t4.5 91.5q0 49 18 76t39 39q25 14 57 16q50 2 78.5 -14.5t44.5 -37.5q18 -25 25 -57q11 -53 7.5 -101t-11.5 -86q-10 -44 -26 -83q-19 -44 -53 -78
q-15 -15 -34 -29t-44 -24.5t-55 -16.5t-67 -5q-78 2 -128.5 18.5t-80.5 35.5q-35 22 -53 50q-31 45 -41 100t-9 103q0 56 11 113q11 49 36 73t51 32q30 10 65 6z" />
    <glyph glyph-name="v" unicode="v" horiz-adv-x="635" 
d="M324 303q8 69 34 120q11 21 26.5 40.5t36.5 33t48.5 18.5t62.5 -2q31 -7 50.5 -22.5t29 -36t12 -45t-0.5 -48.5q-6 -57 -36 -125q-32 -68 -72 -121q-17 -23 -38 -44.5t-45 -38.5t-51 -27.5t-57 -10.5q-42 0 -78 15.5t-66.5 40.5t-54.5 55.5t-42.5 61.5t-31 58t-19.5 45
q-11 26 -18 63.5t-1 73.5t30 65t76 40q30 6 55 0t45.5 -19.5t36 -33t27.5 -40.5q27 -49 41 -116z" />
    <glyph glyph-name="w" unicode="w" horiz-adv-x="842" 
d="M594 -13q-60 0 -94.5 19t-52 43t-22 46.5t-4.5 29.5q-1 -8 -7.5 -31t-24.5 -47t-51 -42.5t-86 -18.5q-42 0 -72.5 18t-50.5 40q-24 26 -39 58q-25 48 -39 93.5t-22 82.5q-9 42 -12 81q-5 61 14.5 94t45.5 50q30 18 70 23q41 0 70 -12.5t49.5 -32.5t32.5 -45t19 -49
t9 -45.5t3 -34.5q1 38 15.5 58t31.5 29q20 11 45 11q40 -1 60.5 -18.5t29.5 -39.5q11 -26 11 -57q0 46 7 81t18 60.5t25.5 42t29.5 27.5q35 25 80 25q28 0 49.5 -7.5t36.5 -19t25.5 -26t16.5 -29.5q14 -36 14 -81q-2 -63 -13 -112.5t-22 -83.5q-14 -40 -30 -70
q-24 -44 -52.5 -66t-54.5 -32q-30 -11 -59 -12z" />
    <glyph glyph-name="x" unicode="x" horiz-adv-x="624" 
d="M313 429q30 45 67 70q16 10 34.5 17t39.5 6.5t44 -10t48 -31.5q26 -24 34.5 -48.5t6 -48.5t-13.5 -45.5t-23 -38t-22 -27t-12 -11.5q2 -1 14 -12t26 -28.5t26 -41t13.5 -50t-11 -56t-46.5 -58.5q-33 -28 -62.5 -36.5t-54 -4t-45 18.5t-35 30.5t-24 32t-12.5 23.5
q-27 -49 -60 -76q-14 -12 -31.5 -19.5t-37 -8t-42 8.5t-46.5 31q-27 24 -40.5 47t-17 44.5t0 40.5t11.5 36q18 39 60 72q-35 35 -52 73q-7 16 -11 34.5t-2 38t11.5 39.5t30.5 40q26 25 50 35.5t45.5 11.5t40.5 -6t34 -18q36 -26 64 -75z" />
    <glyph glyph-name="y" unicode="y" horiz-adv-x="711" 
d="M606 505q31 -14 49 -47q7 -14 12 -33.5t5 -45.5t-6.5 -59.5t-21.5 -75.5q-29 -78 -58.5 -141.5t-54.5 -108.5q-29 -53 -56 -94q-28 -49 -64 -82q-15 -14 -33.5 -25.5t-40 -17t-45 -3.5t-49.5 15q-33 16 -48 41t-18 54.5t3.5 61.5t16 60t20 50.5t16.5 34.5
q-6 6 -12.5 11.5t-11.5 10.5q-6 5 -11 10q-33 25 -59 51t-43 48q-20 26 -35 49q-23 37 -29 76q-3 16 -2 34.5t7 37.5t19.5 38.5t36.5 37.5q32 18 67 20q15 1 32 -2t35.5 -12t38 -24.5t39.5 -40.5q17 -21 31 -41.5t28 -40.5q11 20 32 55t51 64t70 42.5t89 -8.5z" />
    <glyph glyph-name="z" unicode="z" horiz-adv-x="592" 
d="M63 75q-12 46 4.5 87t42 72.5t49 50.5t26.5 21h-12t-29.5 2.5t-37.5 9.5t-36.5 21.5t-27 37t-8.5 57.5q2 36 29 64q12 12 30.5 23t46 19.5t65.5 13t88 3.5q68 -2 113.5 -12t72.5 -26.5t36.5 -40t4.5 -51.5q-6 -25 -21 -53q-13 -24 -36.5 -55.5t-63.5 -65.5q48 -1 87 -14
q16 -6 32 -15.5t28.5 -23t20 -33t7.5 -44.5q0 -51 -23 -79t-59.5 -40.5t-81 -15t-87.5 -2.5t-85.5 1.5t-78 10t-61.5 26.5t-35 51z" />
    <glyph glyph-name="braceleft" unicode="{" horiz-adv-x="568" 
d="M433 58q27 -6 37 -20t12 -29q2 -18 -5 -38q-6 -19 -23 -30.5t-35 -18.5q-21 -8 -46 -11q-41 -4 -67.5 3t-43.5 16q-19 11 -31 25q-20 26 -24 56t0 56q4 30 16 60q9 25 11 46q2 18 -5.5 33.5t-30.5 20.5q-25 2 -45 15q-17 11 -31.5 34.5t-15.5 65.5v4q1 42 15.5 65
t31.5 34q20 12 45 15q23 4 30.5 20t5.5 34q-2 21 -11 46q-12 30 -16 60q-4 26 0 56t24 56q12 15 31 26q17 9 43.5 15.5t67.5 3.5q25 -4 46 -12q18 -7 35 -18.5t23 -30.5q7 -20 5 -38q-2 -15 -12 -29t-37 -19q-19 -6 -29 -23q-8 -14 -7.5 -41t22.5 -73q15 -32 12.5 -58
t-12.5 -44.5t-23 -30.5t-19 -16q6 -4 19 -16t23 -31t12.5 -44.5t-12.5 -57.5q-22 -47 -22.5 -74t7.5 -41q10 -17 29 -22z" />
    <glyph glyph-name="bar" unicode="|" horiz-adv-x="258" 
d="M200 8q-5 -29 -18 -43.5t-27 -20.5q-17 -7 -36 -7q-21 -2 -39 5q-15 6 -27.5 20.5t-14.5 45.5q-5 91 -5.5 191t1.5 193t5.5 170t8.5 122q4 35 17 54t28 27q17 10 38 10q22 -1 40 -12q15 -9 28.5 -27.5t15.5 -53.5q8 -143 6.5 -265t-6.5 -213q-5 -106 -15 -196z" />
    <glyph glyph-name="braceright" unicode="}" horiz-adv-x="517" 
d="M123 67q19 5 29 22q8 14 7.5 41t-22.5 73q-15 32 -12.5 58t13 44.5t23.5 30.5t19 16q-6 4 -19 16t-23.5 31t-13 44.5t12.5 57.5q22 46 22.5 73.5t-7.5 41.5q-10 17 -29 22q-27 5 -37 19.5t-12 29.5q-2 18 6 38q5 19 22 30.5t35 18.5q21 8 46 12q40 3 67.5 -4t44.5 -16
q19 -11 31 -25q20 -26 23.5 -56t-0.5 -56q-4 -30 -16 -60q-10 -25 -11 -46q-2 -18 5.5 -34t30.5 -20q26 -3 46 -16q17 -11 31.5 -34t15.5 -65v-4q-1 -42 -15.5 -65t-31.5 -34q-20 -13 -46 -15q-23 -5 -30.5 -20.5t-5.5 -33.5q1 -21 11 -46q12 -30 16 -60q4 -26 0.5 -56
t-23.5 -56q-12 -15 -31 -26q-17 -9 -44.5 -16t-67.5 -3q-25 4 -46 12q-18 7 -35 18.5t-22 30.5q-8 20 -6 38q2 15 12 29t37 20z" />
    <glyph glyph-name="asciitilde" unicode="~" horiz-adv-x="496" 
d="M425 214q-15 -27 -34 -41t-39 -19t-40.5 -2t-39.5 10q-45 17 -92 56q-9 -34 -25.5 -47.5t-33.5 -16.5q-19 -4 -41 3q-13 4 -23.5 14t-16.5 23t-7.5 27t3.5 27q18 54 52 80q15 11 34.5 17.5t45 3.5t57.5 -17.5t71 -44.5l2 -4q10 29 33 45.5t54 6.5q25 -9 40 -25
q13 -14 16.5 -37.5t-16.5 -58.5z" />
    <glyph glyph-name="uni00A0" unicode="&#xa0;" horiz-adv-x="428" 
 />
    <glyph glyph-name="exclamdown" unicode="&#xa1;" horiz-adv-x="446" 
d="M387 105q6 -26 8 -58t1 -61q-1 -33 -4 -67q-6 -45 -25 -80q-8 -15 -20.5 -29.5t-29.5 -25.5t-40 -18t-52 -7q-35 2 -67 18q-27 14 -53.5 42t-38.5 79q-12 48 -13.5 92t1.5 78q4 40 12 74q12 34 33 61q18 23 48 42.5t78 19.5q52 0 84.5 -25t49.5 -55q20 -35 28 -80z
M96 436q0 22 10 42t28 34.5t41.5 23t50.5 8.5t50.5 -8.5t41 -23t27.5 -34.5t10 -42q0 -23 -10 -42.5t-27.5 -34t-41 -23t-50.5 -8.5t-50.5 8.5t-41.5 23t-28 34t-10 42.5z" />
    <glyph glyph-name="cent" unicode="&#xa2;" horiz-adv-x="555" 
d="M514 314q12 -24 12 -49q0 -22 -12 -47.5t-47 -51.5q-11 -8 -26 -15q-13 -6 -31.5 -12.5t-41.5 -11.5q-1 -12 -1 -22.5t-2 -19.5q-3 -34 -14 -51t-22 -25q-14 -9 -30 -9q-18 1 -32 11q-12 8 -22.5 25.5t-12.5 50.5l-2 43q-16 5 -33.5 11t-35.5 14q-34 17 -60 48
q-23 26 -41.5 69.5t-18.5 108.5q0 54 18 102q7 20 19.5 41t30.5 40t43 35t58 26q2 1 6 2q3 1 7 1.5t10 2.5l2 34q3 33 13.5 50.5t22.5 25.5q14 9 31 9q18 -1 32 -11q12 -8 22 -26t12 -50q0 -8 0.5 -15t0.5 -14q29 -6 57 -19t54 -37q12 -12 20 -29q6 -14 8.5 -35.5
t-7.5 -49.5q-9 -21 -27 -35q-15 -12 -41 -20t-67 0q-19 5 -33 4q-13 -1 -23 -7t-10 -24q1 -13 8 -20q6 -7 19.5 -9t39.5 8q27 11 53 10q23 -1 48.5 -12.5t45.5 -44.5z" />
    <glyph glyph-name="sterling" unicode="&#xa3;" horiz-adv-x="705" 
d="M149 265q-23 -2 -40.5 -1.5t-34.5 11.5q-20 12 -27 29t-8 34q-1 18 4 39q9 25 25.5 36t33.5 15q19 4 41 2q1 44 7 76.5t14 55.5q9 26 19 45q16 29 37.5 48t46 30.5t51 17t52.5 6.5q59 3 125 -13q48 -17 76 -49t43 -61q18 -35 15.5 -62t-12.5 -45q-11 -21 -32 -36
q-18 -12 -36.5 -15.5t-34.5 -1.5t-28 8.5t-18 15.5t-12.5 18t-14.5 16t-18 10t-24 -1t-20 -14t-8 -21q-3 -13 -1 -28q34 4 55 -1t34 -13q14 -9 22 -22q12 -19 12.5 -37.5t-4.5 -32.5q-5 -18 -16 -33q-13 -16 -31 -21t-35 -5q-20 0 -42 5q-3 -20 -2 -31t3 -17q3 -7 7 -9
q21 -10 44 -15q19 -5 42 -4.5t44 12.5q29 17 51.5 18.5t37.5 -2.5q18 -5 29 -16q31 -28 37.5 -54.5t1.5 -47.5q-5 -25 -23 -47q-18 -20 -39 -33.5t-43.5 -21t-45 -10.5t-43.5 -3q-48 0 -98 13q-21 8 -47 11q-23 2 -53.5 -1.5t-66.5 -19.5q-47 -21 -77 -10.5t-47 31.5
q-20 25 -30 62q-4 22 -1.5 39.5t9.5 31t16.5 23t20.5 15.5q26 15 60 19q-4 8 -4.5 19t-0.5 21q0 11 2 22z" />
    <glyph glyph-name="currency" unicode="&#xa4;" horiz-adv-x="586" 
d="M521 357q0 -42 -11 -79.5t-32 -67.5q23 -37 38 -65.5t15 -41.5q0 -11 -3.5 -18.5t-7.5 -12.5q-5 -5 -11 -9l-8 -4q-10 -4 -19 -4q-10 0 -21 4t-22 16q-7 7 -16 17q-8 8 -18 20t-22 27q-17 -5 -34 -8t-37 -3q-23 0 -43.5 2.5t-38.5 7.5q-17 -21 -31 -38.5t-25 -29.5
q-12 -14 -23 -25q-11 -12 -22 -16t-21 -4q-6 0 -10.5 1t-8.5 3l-8 4q-7 4 -11 9q-11 11 -11 31q0 15 18.5 49.5t47.5 79.5q-19 22 -28.5 44.5t-14.5 42.5q-5 22 -6 44q0 43 8.5 75.5t23.5 57.5q-26 38 -44 72.5t-18 57.5q0 10 3 16.5t7 10.5t11 7q4 2 9 5q5 2 11 4t14 2
q20 0 45 -25t60 -70q28 10 52.5 13t38.5 3q46 0 82 -11q37 48 63.5 74.5t47.5 26.5q8 0 13.5 -2t10.5 -4l10 -5q6 -3 10 -7t7.5 -10.5t3.5 -16.5q0 -23 -18.5 -57.5t-43.5 -72.5q14 -21 21.5 -41.5t11.5 -38t4.5 -28.5t0.5 -12zM301 431q-21 0 -38.5 -8t-30.5 -21.5
t-20.5 -30.5t-7.5 -36q0 -53 28 -75t69 -22q42 0 69 23.5t27 70.5q0 18 -6 35.5t-18 31.5t-30 23t-42 9z" />
    <glyph glyph-name="yen" unicode="&#xa5;" 
d="M715 529q-10 -56 -39 -89.5t-61 -51.5q-37 -21 -82 -29q8 -23 13 -51q23 -1 40.5 -1h31.5q15 0 28 -1q20 0 29.5 -8t14.5 -17q5 -11 5 -24q-1 -12 -5 -22q-4 -8 -12 -15t-22 -9q-20 -2 -46.5 -3t-58.5 -2l-3 -23q22 -1 40 -1h31q15 0 27 -1q20 0 29.5 -8t14.5 -17
q5 -11 5 -24q-1 -11 -5 -21q-4 -8 -12 -15.5t-22 -8.5q-23 -2 -56.5 -3.5t-75.5 -3.5q-3 -9 -6 -15.5t-5 -11.5q-3 -5 -4 -9q-17 -31 -49 -45t-71 -14q-32 0 -55.5 7t-38.5 16q-18 10 -30 23q-19 22 -29 49q-29 1 -54.5 1.5t-47.5 2.5q-19 1 -28.5 8t-14.5 15q-5 10 -6 21
q0 14 5 25q5 10 15.5 18t31.5 9q19 1 38 1.5t39 0.5q0 6 -0.5 12t-0.5 11l-79 3q-19 1 -28.5 8.5t-14.5 15.5q-5 10 -6 21q0 16 6 27q5 10 16 18t33 8q19 0 37.5 0.5t39.5 0.5q1 11 2 19t2 14q1 7 2 12q-54 10 -97 33q-18 10 -36 23t-32.5 31t-24 40.5t-11.5 51.5
q-2 32 2.5 57t14 44t22 32.5t26.5 22.5q32 21 74 28q35 1 63 -6t50.5 -19.5t39 -29t28.5 -34.5q28 -41 40 -95q21 76 55.5 114t67.5 52q39 17 81 13q29 -4 50 -13.5t35.5 -23t23.5 -29.5t14 -32q11 -38 6 -83z" />
    <glyph glyph-name="brokenbar" unicode="&#xa6;" horiz-adv-x="258" 
d="M200 431q-6 -12 -17 -20t-23 -12.5t-22.5 -6.5t-15.5 -2q-9 0 -22.5 0.5t-27 4t-23.5 11t-11 21.5q-3 29 -4.5 60t-1.5 62q0 67 4.5 107t11.5 71q5 23 29.5 34t53.5 11q15 0 29.5 -3t26.5 -9t19.5 -14.5t8.5 -19.5q3 -32 4.5 -57.5t1.5 -53.5q0 -48 -3 -82t-7 -56.5
t-7 -33.5t-4 -12zM200 -18q-6 -12 -17 -20t-23 -12.5t-22.5 -6.5t-15.5 -2q-9 0 -22.5 0.5t-27 4t-23.5 11t-11 21.5q-3 29 -4.5 56t-1.5 58q0 67 4.5 106t11.5 70q5 23 29.5 34t53.5 11q15 0 29.5 -3t26.5 -9t19.5 -14.5t8.5 -19.5q6 -63 6 -119q0 -48 -3 -79.5t-7 -50
t-7 -27t-4 -9.5z" />
    <glyph glyph-name="section" unicode="&#xa7;" horiz-adv-x="561" 
d="M299 390q-17 0 -28.5 -12t-11.5 -27q0 -23 11.5 -31.5t28.5 -8.5t28 10t11 27q0 16 -10 29t-29 13zM332 515q66 -14 106.5 -34.5t62.5 -42t29 -41t7 -30.5q0 -26 -7.5 -48t-20 -39t-28.5 -30.5t-33 -23.5q25 -13 38.5 -28t20.5 -29.5t8.5 -25t1.5 -14.5q0 -36 -16 -61.5
t-41 -42t-54.5 -26t-56.5 -14t-47 -5.5t-26 -1q-64 0 -105.5 8t-65.5 22t-33 34t-9 43q0 31 16 49.5t40.5 28.5t53 13.5t54.5 3.5q14 0 24 -1t14 -1v4q-27 4 -62.5 12t-67.5 23t-54.5 37.5t-22.5 57.5q0 52 22 90t68 69q-24 12 -37.5 27t-20.5 28.5t-8.5 24.5t-1.5 15
q0 37 16 62.5t41 42.5t54.5 26.5t56 14t47 5.5t26.5 1q64 0 105.5 -8t65.5 -22.5t33 -34t9 -42.5q0 -31 -16 -49.5t-40.5 -29t-53.5 -14t-54 -3.5q-17 0 -26.5 1.5t-11.5 1.5v-4z" />
    <glyph glyph-name="dieresis" unicode="&#xa8;" horiz-adv-x="425" 
d="M195 823q0 -32 -19.5 -55t-57.5 -23t-57.5 23t-19.5 55t19.5 54.5t57.5 22.5t57.5 -22.5t19.5 -54.5zM378 823q0 -32 -19.5 -55t-57.5 -23t-57.5 23t-19.5 55t19.5 54.5t57.5 22.5t57.5 -22.5t19.5 -54.5z" />
    <glyph glyph-name="copyright" unicode="&#xa9;" horiz-adv-x="687" 
d="M328 37q-58 0 -108 20.5t-87.5 59.5t-59 96.5t-21.5 131.5q0 69 19 126.5t55.5 99t91.5 64.5t127 23q65 0 118.5 -21.5t91.5 -61t59 -96t21 -126.5q0 -65 -18.5 -122.5t-56.5 -100.5t-96 -68t-136 -25zM331 104q60 0 103.5 20t72.5 54t43 79t14 95q0 58 -17.5 102
t-47.5 73.5t-70 44.5t-85 15q-51 0 -91 -16.5t-68 -48t-43 -76t-15 -100.5t16 -101t44 -76.5t65 -48t79 -16.5zM352 515q19 0 37.5 -4t33 -11t23.5 -15.5t9 -18.5q0 -14 -6 -22.5t-21 -8.5q-14 0 -32 7t-53 7q-44 0 -65 -25t-21 -70q0 -51 24 -78.5t69 -27.5q21 0 36 4.5
t25.5 10.5t18 10.5t14.5 4.5q10 0 16.5 -7t6.5 -22q0 -14 -11 -25.5t-28 -20t-37.5 -13t-38.5 -4.5q-78 0 -120.5 42t-42.5 120q0 34 10 64.5t30.5 53t51 36t71.5 13.5z" />
    <glyph glyph-name="ordfeminine" unicode="&#xaa;" horiz-adv-x="491" 
d="M188 746q26 0 42.5 -6.5t26.5 -15t14.5 -16t5.5 -10.5q0 2 3.5 10t11.5 17t21 16.5t33 7.5q16 0 29 -6.5t22.5 -17.5t16 -25t10.5 -28q10 -33 12 -76q0 -63 -10.5 -97t-24.5 -50.5t-28.5 -19.5t-22.5 -3q-4 0 -14 1t-21 6t-20.5 17t-12.5 33q-6 -16 -18 -28
q-11 -11 -29.5 -19t-50.5 -8q-6 0 -12 0.5t-13 1.5q-2 0 -20 3t-39 18t-38.5 45.5t-17.5 85.5q0 14 3.5 41.5t18 54.5t43.5 47.5t79 20.5zM228 630q-18 0 -30 -13.5t-12 -28.5q0 -24 12.5 -33.5t29.5 -9.5t29 11t12 31q0 14 -10 28.5t-31 14.5z" />
    <glyph glyph-name="guillemotleft" unicode="&#xab;" horiz-adv-x="868" 
d="M243 11q-1 1 -17 11.5t-39 28.5t-50 42t-50 52.5t-38 59.5t-15 64q0 31 15 62.5t38 60.5t50 54t50 43.5t39 29t17 11.5q16 12 38 15t44 -1.5t41.5 -17t32.5 -32.5q27 -43 15.5 -82t-48.5 -66q-11 -9 -24 -20q-11 -10 -25.5 -24t-30.5 -31q22 -22 41.5 -39.5t34.5 -30.5
q18 -15 32 -28q19 -18 27 -41q7 -20 3.5 -47t-30.5 -59q-13 -15 -32.5 -24t-40.5 -11t-42 3t-36 17zM661 11q-1 1 -17 11.5t-39 28.5t-50 42t-50 52.5t-38 59.5t-15 64q0 31 15 62.5t38 60.5t50 54t50 43.5t39 29t17 11.5q16 12 38 15t44 -1.5t41.5 -17t32.5 -32.5
q27 -43 15.5 -82t-48.5 -66q-11 -9 -24 -20q-11 -10 -25.5 -24t-30.5 -31q22 -22 41.5 -39.5t34.5 -30.5q18 -15 32 -28q19 -18 27 -41q7 -20 3.5 -47t-30.5 -59q-13 -15 -32.5 -24t-40.5 -11t-42 3t-36 17z" />
    <glyph glyph-name="logicalnot" unicode="&#xac;" horiz-adv-x="686" 
d="M545 448q38 -8 59.5 -29t31.5 -48t12 -56.5t2 -53.5q0 -26 -2.5 -51t-6.5 -52q-5 -33 -31 -54.5t-61 -21.5q-16 0 -33 6.5t-31.5 26.5t-23.5 57.5t-9 99.5q-29 -2 -60.5 -3t-63.5 -1q-49 0 -91 2t-84 6q-17 1 -33 7t-29.5 16.5t-21.5 25.5t-8 36q0 7 2.5 19.5t12 26
t28.5 25t52 16.5q48 7 90 9.5t87 2.5q90 0 142.5 -4t69.5 -8z" />
    <glyph glyph-name="uni00AD" unicode="&#xad;" horiz-adv-x="526" 
d="M395 404q34 -9 53 -26t27 -34q10 -20 11 -42q2 -25 -4 -46q-5 -19 -20.5 -37t-47.5 -27q-74 -20 -138 -20t-135 11q-35 5 -54.5 22t-27.5 35q-11 21 -11 46q-2 26 7 49q8 20 26.5 39t58.5 28q51 11 97 12.5t81 -0.5q41 -3 77 -10z" />
    <glyph glyph-name="registered" unicode="&#xae;" horiz-adv-x="687" 
d="M328 248q-48 0 -89.5 17t-72 50t-48.5 81t-18 109q0 58 15.5 106.5t46.5 83t77 53.5t106 19q55 0 99.5 -18t76 -51t49 -80t17.5 -105q0 -55 -15.5 -103t-47.5 -84t-81 -57t-115 -21zM331 303q50 0 87 17t61.5 45.5t36.5 66.5t12 80q0 50 -14.5 87t-39.5 61.5t-58.5 36.5
t-71.5 12q-85 0 -133.5 -53t-48.5 -150q0 -48 13.5 -86t36.5 -64t53.5 -39.5t65.5 -13.5zM326 470h-40v-83q0 -11 -8.5 -14.5t-15.5 -3.5q-6 0 -10.5 2t-6.5 9.5t-3 22t-1 40.5v136q0 39 18.5 60.5t68.5 21.5q24 0 44 -4.5t35 -15t23.5 -27.5t8.5 -42q0 -83 -65 -93l65 -79
q9 -9 9 -17q0 -7 -10.5 -10.5t-20.5 -3.5q-6 0 -11 2.5t-12 11.5zM399 564q0 23 -18 37t-62 14q-19 0 -25.5 -12.5t-6.5 -57.5v-33q2 -1 6.5 -1h8.5h10q37 0 62 9t25 44z" />
    <glyph glyph-name="macron" unicode="&#xaf;" horiz-adv-x="526" 
d="M277 774q98 0 144 -16.5t46 -56.5q0 -39 -46 -57.5t-134 -18.5q-108 0 -164 18t-56 56t54 56.5t156 18.5z" />
    <glyph glyph-name="degree" unicode="&#xb0;" horiz-adv-x="390" 
d="M350 570q0 -31 -11 -58t-31 -47.5t-47 -32t-60 -11.5t-60.5 11.5t-47.5 32t-31 47.5t-11 58t11 58t31 47t47.5 32t60.5 12t60 -12t47 -32t31 -47t11 -58zM201 654q-21 0 -37 -8t-26.5 -20.5t-16 -28t-5.5 -30.5q0 -32 21 -54t64 -22q42 0 62 22t20 54q0 40 -23 63.5
t-59 23.5z" />
    <glyph glyph-name="plusminus" unicode="&#xb1;" horiz-adv-x="618" 
d="M550 471q0 -9 -2.5 -23t-14.5 -28.5t-37.5 -27.5t-71.5 -20q-3 -24 -10 -45.5t-20 -38.5t-33.5 -27t-50.5 -10q-8 0 -23 3t-32 14t-32.5 33.5t-23.5 61.5q-26 2 -49.5 7.5t-41 16.5t-28 29t-10.5 45q0 5 3 16.5t15.5 24.5t37.5 25.5t68 20.5q6 41 20 65.5t30 37t30.5 16
t21.5 3.5q9 0 25.5 -2.5t34 -14t33 -35t23.5 -64.5q51 -6 79 -18t41 -25t15.5 -24.5t2.5 -15.5zM445 196q16 -4 32.5 -11t29.5 -17.5t21.5 -25.5t8.5 -35q0 -7 -2.5 -17.5t-10 -21t-22 -19.5t-38.5 -15q-41 -9 -76.5 -13t-71.5 -4q-30 0 -61 1.5t-64 6.5q-17 2 -34 8.5
t-30.5 17.5t-21.5 26.5t-8 35.5q0 6 3.5 17t13.5 23.5t28.5 23.5t47.5 17q35 7 68.5 9t62.5 2q27 0 49.5 -1.5t39.5 -3.5q19 -2 35 -4z" />
    <glyph glyph-name="twosuperior" unicode="&#xb2;" horiz-adv-x="379" 
d="M158 775q25 0 49 -5.5t42.5 -17.5t30 -32t11.5 -50q0 -25 -8 -46.5t-18 -38.5q-11 -19 -26 -36q1 0 14 -1t27.5 -7t26.5 -19.5t12 -38.5q0 -22 -14.5 -34.5t-35 -19t-42.5 -8.5t-36 -2q-16 0 -37.5 2.5t-41 10t-33 21.5t-13.5 38q0 25 15 43t33.5 33.5t33.5 30t15 33.5
q0 15 -7.5 21.5t-15.5 6.5q-13 0 -23.5 -3t-17.5 -3q-14 0 -21.5 7t-11.5 15q-4 10 -6 22q0 25 15 40.5t33 23.5t33.5 11t16.5 3z" />
    <glyph glyph-name="threesuperior" unicode="&#xb3;" horiz-adv-x="399" 
d="M68 711q0 20 12 32.5t29.5 19.5t37.5 9.5t37 2.5q16 0 37 -2t39.5 -9.5t31.5 -22t13 -38.5q0 -13 -3.5 -23.5t-8 -18.5t-8.5 -13t-5 -6q27 -13 43 -40t16 -61q0 -30 -11 -53t-30.5 -38.5t-45.5 -24t-55 -8.5q-15 0 -38.5 3.5t-45 12.5t-37.5 23t-16 35q0 18 6 28t14 15
t16 6.5t12 1.5q9 0 17.5 -3.5t16.5 -7.5t16.5 -7.5t18.5 -3.5q11 0 17 3t8.5 7t3 8t0.5 6q0 9 -4.5 14.5t-10 8t-11.5 3t-9 0.5q-21 0 -33 5.5t-18 13t-7.5 15.5t-1.5 12q0 14 8 23.5t18 15.5t19 9t12 3l-1 3q-6 -2 -13.5 -3t-12.5 -1q-26 0 -40.5 5.5t-21.5 13t-9 15
t-2 11.5z" />
    <glyph glyph-name="acute" unicode="&#xb4;" horiz-adv-x="342" 
d="M49 667q8 10 23.5 23.5t33.5 26t37.5 23t35.5 15.5q22 7 38.5 8t28 -2.5t20 -10t16.5 -13.5q8 -8 15 -21t8.5 -28t-4.5 -31.5t-25 -32.5q-21 -19 -49 -30.5t-54 -19.5q-30 -9 -60 -14q-16 -4 -31 -2q-13 2 -26 8t-21 23q-8 15 -7 29t6 25q5 12 15 24z" />
    <glyph glyph-name="mu" unicode="&#xb5;" horiz-adv-x="833" 
d="M95 361q5 37 22 66q14 25 42 45.5t77 20.5q25 0 43.5 -6.5t31 -17t19.5 -23.5t11 -27q9 -33 4 -73q0 -31 -0.5 -58t3 -46.5t12.5 -31t27 -11.5q19 0 26 23t9 52q2 33 -3 75q-5 59 11 88t37 42q25 14 57 14q25 -4 44 -15.5t32.5 -28t22 -36t13.5 -38.5q11 -46 10 -102
q-2 -63 -14.5 -108t-32 -75.5t-44.5 -49t-50 -28.5q-60 -23 -135 -10q0 -46 -6 -86.5t-22 -70.5t-45 -47.5t-75 -17.5q-41 0 -65 23t-37 51q-15 33 -21 74q-11 94 -13 173t0 137q3 68 9 123z" />
    <glyph glyph-name="paragraph" unicode="&#xb6;" horiz-adv-x="702" 
d="M411 681q69 -3 107 -16.5t56 -27.5q21 -18 25 -38q4 -27 -6.5 -45.5t-24.5 -29.5q-17 -13 -40 -21q12 -175 12 -311q0 -58 -3 -114t-9.5 -99.5t-18 -70t-29.5 -26.5t-30.5 26.5t-21 70t-13.5 99.5t-7 114q-5 136 0 311h-24q4 -175 -2 -311q-3 -58 -8 -114t-13 -99.5
t-20 -70t-29 -26.5q-18 0 -30.5 18.5t-21 48.5t-13 68.5t-6.5 79.5q-5 94 0 215q-36 0 -63 7t-47.5 18.5t-34 26.5t-22.5 31q-21 37 -24 84q0 45 15.5 77.5t41 55t57.5 36.5t66 22q79 18 181 11z" />
    <glyph glyph-name="periodcentered" unicode="&#xb7;" horiz-adv-x="352" 
d="M301 249q0 -26 -8 -49t-24 -40t-39.5 -27t-54.5 -10q-30 0 -53.5 10t-39.5 27t-24.5 40t-8.5 49t8.5 49t24.5 40t39.5 27t53.5 10q31 0 54.5 -10t39.5 -27t24 -40t8 -49z" />
    <glyph glyph-name="cedilla" unicode="&#xb8;" horiz-adv-x="259" 
d="M119 23v-64q24 0 45.5 -7t38 -19.5t26.5 -31t10 -42.5q0 -26 -10.5 -45.5t-28 -32.5t-39.5 -19.5t-44 -6.5q-9 0 -18 0.5t-18 0.5q-19 0 -32 13t-13 32q0 23 14 29.5t31 6.5q5 0 11.5 -0.5t13.5 -0.5q15 0 27.5 4.5t12.5 21.5q0 16 -14 22q-15 5 -38 5t-31.5 2t-15.5 6
q-18 9 -18 31v102z" />
    <glyph glyph-name="onesuperior" unicode="&#xb9;" horiz-adv-x="340" 
d="M152 656q-8 -7 -17 -11q-8 -4 -17 -7t-18 -3q-15 0 -27.5 13t-12.5 36q0 20 11.5 37t29 29t38.5 18.5t40 6.5q35 0 55.5 -17t30.5 -43.5t12.5 -60t2.5 -66.5q0 -59 -8.5 -91t-20 -47t-24 -18t-20.5 -3q-22 0 -35.5 11t-21 28.5t-10.5 38t-3 39.5q0 22 2 42t5 35
q4 18 8 33z" />
    <glyph glyph-name="ordmasculine" unicode="&#xba;" horiz-adv-x="418" 
d="M355 509q-10 -18 -22.5 -31t-24.5 -21q-14 -10 -29 -16q-12 -5 -23 -7t-19 -4q-10 -2 -18 -2q-33 0 -58 6.5t-43.5 17t-31 24.5t-20.5 28q-19 33 -22 76q0 59 20.5 93t48 51t55 21t41.5 4q41 0 69.5 -11t46.5 -27.5t28 -35.5t14.5 -36t5.5 -29t1 -13q0 -28 -5.5 -49.5
t-13.5 -38.5zM214 630q-19 0 -31 -12.5t-12 -28.5q0 -25 13 -33.5t30 -8.5t29.5 10t12.5 30q0 16 -11 29.5t-31 13.5z" />
    <glyph glyph-name="guillemotright" unicode="&#xbb;" horiz-adv-x="868" 
d="M625 11q-15 -12 -36 -17t-42 -3t-40.5 11t-32.5 24q-28 32 -31 59t4 47q8 23 27 41q14 13 32 28q15 13 34.5 30.5t41.5 39.5l-31 31t-25 24q-13 11 -24 20q-37 27 -48.5 66t15.5 82q13 20 32.5 32.5t41.5 17t43.5 1.5t38.5 -15q1 0 17 -11t39 -29.5t50 -43.5t50 -54
t38 -60.5t15 -62.5q0 -32 -15 -63.5t-38 -60t-50 -52.5t-50 -42t-39 -28.5t-17 -11.5zM207 11q-15 -12 -36 -17t-42 -3t-40.5 11t-32.5 24q-28 32 -31 59t4 47q8 23 27 41q14 13 32 28q15 13 34.5 30.5t41.5 39.5l-31 31t-25 24q-13 11 -24 20q-37 27 -48.5 66t15.5 82
q13 20 32.5 32.5t41.5 17t43.5 1.5t38.5 -15q1 0 17 -11t39 -29.5t50 -43.5t50 -54t38 -60.5t15 -62.5q0 -32 -15 -63.5t-38 -60t-50 -52.5t-50 -42t-39 -28.5t-17 -11.5z" />
    <glyph glyph-name="onequarter" unicode="&#xbc;" horiz-adv-x="876" 
d="M396 16q-13 -27 -29.5 -38t-30.5 -14q-18 -4 -35 1t-30 16q-11 10 -19.5 28.5t-4.5 50.5q4 36 17 89.5t31 116.5t39.5 129t42.5 126t39 109t30 77q14 33 33.5 46.5t36.5 17.5q20 4 42 -2q19 -3 31 -14q11 -10 17.5 -30.5t1.5 -56.5q-8 -52 -22 -107.5t-30.5 -111
t-34.5 -109.5t-36 -102q-42 -114 -89 -222zM152 656q-8 -7 -17 -11q-8 -4 -17 -7t-18 -3q-15 0 -27.5 13t-12.5 36q0 20 11.5 37t29 29t38.5 18.5t40 6.5q35 0 55.5 -17t30.5 -43.5t12.5 -60t2.5 -66.5q0 -59 -8.5 -91t-20 -47t-24 -18t-20.5 -3q-22 0 -35.5 11t-21 28.5
t-10.5 38t-3 39.5q0 22 2 42t5 35q4 18 8 33zM865 148q0 -16 -6 -24t-14 -13q-9 -5 -19 -6q0 -2 1 -6q0 -3 0.5 -6.5t0.5 -8.5q0 -12 -2.5 -26.5t-10 -27t-21.5 -21.5t-38 -9q-22 0 -35 9t-20 22t-9 28t-2 26v14q0 3 1 6q-38 0 -61 5q-12 2 -21 5q-20 5 -27.5 19t-7.5 32
q0 17 5 36.5t12 35.5q8 18 18 36q15 26 31.5 42.5t33 25.5t31.5 12t27 3q32 0 51 -16.5t28.5 -39.5t12.5 -48t3 -43q0 -5 -0.5 -8t-0.5 -5v-5q14 -1 22 -7.5t12 -14.5q4 -10 5 -22zM683 231q-11 0 -18.5 -8t-7.5 -18q0 -15 7.5 -20.5t18.5 -5.5t18.5 6.5t7.5 18.5
q0 10 -6.5 18.5t-19.5 8.5z" />
    <glyph glyph-name="onehalf" unicode="&#xbd;" horiz-adv-x="876" 
d="M356 16q-13 -27 -29.5 -38t-30.5 -14q-18 -4 -35 1t-30 16q-11 10 -19.5 28.5t-4.5 50.5q4 36 17 89.5t31 116.5t39.5 129t42.5 126t39 109t30 77q14 33 33.5 46.5t36.5 17.5q20 4 42 -2q19 -3 31 -14q11 -10 17.5 -30.5t1.5 -56.5q-8 -52 -22 -107.5t-30.5 -111
t-34.5 -109.5t-36 -102q-42 -114 -89 -222zM152 656q-8 -7 -17 -11q-8 -4 -17 -7t-18 -3q-15 0 -27.5 13t-12.5 36q0 20 11.5 37t29 29t38.5 18.5t40 6.5q35 0 55.5 -17t30.5 -43.5t12.5 -60t2.5 -66.5q0 -59 -8.5 -91t-20 -47t-24 -18t-20.5 -3q-22 0 -35.5 11t-21 28.5
t-10.5 38t-3 39.5q0 22 2 42t5 35q4 18 8 33zM678 363q25 0 49 -5.5t42.5 -17.5t30 -32t11.5 -50q0 -25 -8 -46.5t-18 -38.5q-11 -19 -26 -36q1 0 14 -1t27.5 -7t26.5 -19.5t12 -38.5q0 -22 -14.5 -34.5t-35 -19t-42.5 -8.5t-36 -2q-16 0 -37.5 2.5t-41 10t-33 21.5
t-13.5 38q0 25 15 43t33.5 33.5t33.5 30t15 33.5q0 15 -7.5 21.5t-15.5 6.5q-13 0 -23.5 -3t-17.5 -3q-14 0 -21.5 7t-11.5 15q-4 10 -6 22q0 25 15 40.5t33 23.5t33.5 11t16.5 3z" />
    <glyph glyph-name="threequarters" unicode="&#xbe;" horiz-adv-x="876" 
d="M427 16q-13 -27 -29.5 -38t-30.5 -14q-18 -4 -35 1t-30 16q-11 10 -19.5 28.5t-4.5 50.5q4 36 17 89.5t31 116.5t39.5 129t42.5 126t39 109t30 77q14 33 33.5 46.5t36.5 17.5q20 4 42 -2q19 -3 31 -14q11 -10 17.5 -30.5t1.5 -56.5q-8 -52 -22 -107.5t-30.5 -111
t-34.5 -109.5t-36 -102q-42 -114 -89 -222zM865 154q0 -16 -6 -24t-14 -13q-9 -5 -19 -6q0 -2 1 -6q0 -3 0.5 -6.5t0.5 -8.5q0 -12 -2.5 -26.5t-10 -27t-21.5 -21.5t-38 -9q-22 0 -35 9t-20 22t-9 28t-2 26v14q0 3 1 6q-38 0 -61 5q-12 2 -21 5q-20 5 -27.5 19t-7.5 32
q0 17 5 36.5t12 35.5q8 18 18 36q15 26 31.5 42.5t33 25.5t31.5 12t27 3q32 0 51 -16.5t28.5 -39.5t12.5 -48t3 -43q0 -5 -0.5 -8t-0.5 -5v-5q14 -1 22 -7.5t12 -14.5q4 -10 5 -22zM683 237q-11 0 -18.5 -8t-7.5 -18q0 -15 7.5 -20.5t18.5 -5.5t18.5 6.5t7.5 18.5
q0 10 -6.5 18.5t-19.5 8.5zM68 711q0 20 12 32.5t29.5 19.5t37.5 9.5t37 2.5q16 0 37 -2t39.5 -9.5t31.5 -22t13 -38.5q0 -13 -3.5 -23.5t-8 -18.5t-8.5 -13t-5 -6q27 -13 43 -40t16 -61q0 -30 -11 -53t-30.5 -38.5t-45.5 -24t-55 -8.5q-15 0 -38.5 3.5t-45 12.5t-37.5 23
t-16 35q0 18 6 28t14 15t16 6.5t12 1.5q9 0 17.5 -3.5t16.5 -7.5t16.5 -7.5t18.5 -3.5q11 0 17 3t8.5 7t3 8t0.5 6q0 9 -4.5 14.5t-10 8t-11.5 3t-9 0.5q-21 0 -33 5.5t-18 13t-7.5 15.5t-1.5 12q0 14 8 23.5t18 15.5t19 9t12 3l-1 3q-6 -2 -13.5 -3t-12.5 -1
q-26 0 -40.5 5.5t-21.5 13t-9 15t-2 11.5z" />
    <glyph glyph-name="questiondown" unicode="&#xbf;" horiz-adv-x="646" 
d="M138 442q0 52 37 80.5t95 28.5t92.5 -32.5t34.5 -78.5q0 -54 -34.5 -83t-92.5 -29t-95 31.5t-37 82.5zM122 213q24 39 57 61q14 9 31 16t37.5 7.5t44 -6t50.5 -22.5q17 -11 25.5 -26t10.5 -32.5t-0.5 -36t-8.5 -36.5q-13 -42 -41 -89q32 30 66 46q15 7 31.5 11.5t34.5 4
t36.5 -7t36.5 -21.5q35 -33 48 -73q6 -17 7 -38t-5 -45t-21.5 -50.5t-43.5 -55.5q-45 -40 -102 -57q-24 -8 -53.5 -11t-63 1.5t-71 18.5t-78.5 40q-38 24 -57.5 59t-26 74.5t-2.5 80.5t13.5 77.5t22 65t22.5 44.5z" />
    <glyph glyph-name="Agrave" unicode="&#xc0;" 
d="M622 9q-24 -8 -50 -10q-22 -2 -48.5 2t-52.5 19q-29 17 -47.5 40t-29.5 45t-15.5 40t-5.5 26q-1 -8 -5.5 -26t-15.5 -40t-29.5 -45t-47.5 -40q-26 -15 -52.5 -19t-48.5 -2q-26 2 -50 10q-20 7 -34.5 18.5t-24 26t-16 31t-9.5 32.5q-8 38 -6 81q3 71 16 130.5t32.5 109
t42.5 89t45 71.5q33 48 67.5 73t64 36.5t49 13t22.5 1.5t22.5 -1.5t49 -13t64.5 -36.5t68 -73q22 -32 44.5 -71.5t42 -89t32.5 -109t16 -130.5q3 -43 -5 -81q-3 -16 -9.5 -32.5t-16.5 -31t-24.5 -26t-34.5 -18.5zM356 945q16 -5 35.5 -15.5t37.5 -23t33.5 -26t23.5 -23.5
q9 -12 14 -24q5 -11 6.5 -25t-6.5 -29q-8 -17 -21 -23t-26 -8q-15 -2 -31 2q-31 5 -61 14q-26 8 -53.5 19.5t-48.5 30.5q-19 16 -25 32.5t-4.5 31.5t8.5 28t15 21q7 7 16 13.5t20.5 10t27.5 2.5t39 -8zM377 369q-17 0 -29.5 -13t-10.5 -29q2 -21 12.5 -29t27.5 -8t28 10
t11 27q0 16 -10 29t-29 13z" />
    <glyph glyph-name="Aacute" unicode="&#xc1;" 
d="M622 9q-24 -8 -50 -10q-22 -2 -48.5 2t-52.5 19q-29 17 -47.5 40t-29.5 45t-15.5 40t-5.5 26q-1 -8 -5.5 -26t-15.5 -40t-29.5 -45t-47.5 -40q-26 -15 -52.5 -19t-48.5 -2q-26 2 -50 10q-20 7 -34.5 18.5t-24 26t-16 31t-9.5 32.5q-8 38 -6 81q3 71 16 130.5t32.5 109
t42.5 89t45 71.5q33 48 67.5 73t64 36.5t49 13t22.5 1.5t22.5 -1.5t49 -13t64.5 -36.5t68 -73q22 -32 44.5 -71.5t42 -89t32.5 -109t16 -130.5q3 -43 -5 -81q-3 -16 -9.5 -32.5t-16.5 -31t-24.5 -26t-34.5 -18.5zM242 852q8 10 23.5 23.5t33.5 26t37.5 23t35.5 15.5
q22 7 38.5 8t28 -2.5t20 -10t16.5 -13.5q8 -8 15 -21t8.5 -28t-4.5 -31.5t-25 -32.5q-21 -19 -49 -30.5t-54 -19.5q-30 -9 -60 -14q-16 -4 -31 -2q-13 2 -26 8t-21 23q-8 15 -7 29t6 25q5 12 15 24zM377 369q-17 0 -29.5 -13t-10.5 -29q2 -21 12.5 -29t27.5 -8t28 10t11 27
q0 16 -10 29t-29 13z" />
    <glyph glyph-name="Acircumflex" unicode="&#xc2;" 
d="M622 9q-24 -8 -50 -10q-22 -2 -48.5 2t-52.5 19q-29 17 -47.5 40t-29.5 45t-15.5 40t-5.5 26q-1 -8 -5.5 -26t-15.5 -40t-29.5 -45t-47.5 -40q-26 -15 -52.5 -19t-48.5 -2q-26 2 -50 10q-20 7 -34.5 18.5t-24 26t-16 31t-9.5 32.5q-8 38 -6 81q3 71 16 130.5t32.5 109
t42.5 89t45 71.5q33 48 67.5 73t64 36.5t49 13t22.5 1.5t22.5 -1.5t49 -13t64.5 -36.5t68 -73q22 -32 44.5 -71.5t42 -89t32.5 -109t16 -130.5q3 -43 -5 -81q-3 -16 -9.5 -32.5t-16.5 -31t-24.5 -26t-34.5 -18.5zM222 842q1 1 14 16t34 32t48 31.5t56 14.5q28 0 54 -14.5
t47 -32.5t33.5 -33.5t13.5 -16.5q14 -19 10 -42t-24 -37t-43 -10t-37 24q-2 1 -16.5 18t-37.5 30q-14 -9 -26 -18t-20 -17q-10 -9 -17 -16q-11 -12 -23 -18q-11 -5 -25.5 -5t-31.5 14q-19 15 -21.5 38.5t12.5 41.5zM377 369q-17 0 -29.5 -13t-10.5 -29q2 -21 12.5 -29
t27.5 -8t28 10t11 27q0 16 -10 29t-29 13z" />
    <glyph glyph-name="Atilde" unicode="&#xc3;" 
d="M622 9q-24 -8 -50 -10q-22 -2 -48.5 2t-52.5 19q-29 17 -47.5 40t-29.5 45t-15.5 40t-5.5 26q-1 -8 -5.5 -26t-15.5 -40t-29.5 -45t-47.5 -40q-26 -15 -52.5 -19t-48.5 -2q-26 2 -50 10q-20 7 -34.5 18.5t-24 26t-16 31t-9.5 32.5q-8 38 -6 81q3 71 16 130.5t32.5 109
t42.5 89t45 71.5q33 48 67.5 73t64 36.5t49 13t22.5 1.5t22.5 -1.5t49 -13t64.5 -36.5t68 -73q22 -32 44.5 -71.5t42 -89t32.5 -109t16 -130.5q3 -43 -5 -81q-3 -16 -9.5 -32.5t-16.5 -31t-24.5 -26t-34.5 -18.5zM551 815q-15 -27 -34 -41t-39 -19t-40.5 -2t-39.5 10
q-45 17 -92 56q-9 -34 -25.5 -47.5t-33.5 -16.5q-19 -4 -41 3q-13 4 -23.5 14t-16.5 23t-7.5 27t3.5 27q18 54 52 80q15 11 34.5 17.5t45 3.5t57.5 -17.5t71 -44.5l2 -4q10 29 33 45.5t54 6.5q25 -9 40 -25q13 -14 16.5 -37.5t-16.5 -58.5zM377 369q-17 0 -29.5 -13
t-10.5 -29q2 -21 12.5 -29t27.5 -8t28 10t11 27q0 16 -10 29t-29 13z" />
    <glyph glyph-name="Adieresis" unicode="&#xc4;" 
d="M622 9q-24 -8 -50 -10q-22 -2 -48.5 2t-52.5 19q-29 17 -47.5 40t-29.5 45t-15.5 40t-5.5 26q-1 -8 -5.5 -26t-15.5 -40t-29.5 -45t-47.5 -40q-26 -15 -52.5 -19t-48.5 -2q-26 2 -50 10q-20 7 -34.5 18.5t-24 26t-16 31t-9.5 32.5q-8 38 -6 81q3 71 16 130.5t32.5 109
t42.5 89t45 71.5q33 48 67.5 73t64 36.5t49 13t22.5 1.5t22.5 -1.5t49 -13t64.5 -36.5t68 -73q22 -32 44.5 -71.5t42 -89t32.5 -109t16 -130.5q3 -43 -5 -81q-3 -16 -9.5 -32.5t-16.5 -31t-24.5 -26t-34.5 -18.5zM543 843q0 -32 -19.5 -55t-57.5 -23t-57.5 23t-19.5 55
t19.5 54.5t57.5 22.5t57.5 -22.5t19.5 -54.5zM360 843q0 -32 -19.5 -55t-57.5 -23t-57.5 23t-19.5 55t19.5 54.5t57.5 22.5t57.5 -22.5t19.5 -54.5zM377 369q-17 0 -29.5 -13t-10.5 -29q2 -21 12.5 -29t27.5 -8t28 10t11 27q0 16 -10 29t-29 13z" />
    <glyph glyph-name="Aring" unicode="&#xc5;" 
d="M493 801q0 -29 -13.5 -53t-36.5 -40q29 -11 64.5 -36.5t69.5 -73.5q22 -32 44.5 -71.5t42 -89t32.5 -109t16 -130.5q3 -43 -5 -81q-3 -16 -9.5 -32.5t-16.5 -31t-24.5 -26t-34.5 -18.5q-24 -8 -50 -10q-22 -2 -48.5 2t-52.5 19q-29 17 -47.5 40t-29.5 45t-15.5 40
t-5.5 26q-1 -8 -5.5 -26t-15.5 -40t-29.5 -45t-47.5 -40q-26 -15 -52.5 -19t-48.5 -2q-26 2 -50 10q-20 7 -34.5 18.5t-24 26t-16 31t-9.5 32.5q-8 38 -6 81q3 71 16 130.5t32.5 109t42.5 89t45 71.5q32 47 66.5 72t63.5 37q-24 15 -38 40t-14 54q0 24 9.5 44.5t26.5 36.5
t39 25t48 9q25 0 47.5 -9t39 -25t26 -36.5t9.5 -44.5zM370 855q-28 0 -41 -15t-13 -38q0 -22 13 -36.5t42 -14.5t40.5 14t11.5 36q0 26 -14 40t-39 14zM377 369q-17 0 -29.5 -13t-10.5 -29q2 -21 12.5 -29t27.5 -8t28 10t11 27q0 16 -10 29t-29 13z" />
    <glyph glyph-name="AE" unicode="&#xc6;" horiz-adv-x="1139" 
d="M1011 366q0 -31 -13.5 -50t-32.5 -30t-39 -15t-32 -5q42 0 74 -5t55 -14t39 -21t26 -24q24 -29 26 -67q-1 -24 -12 -42.5t-28 -32.5t-38.5 -23.5t-43.5 -15.5q-52 -15 -118 -18q-75 -6 -128 1.5t-91 21.5q-17 -17 -42 -26q-24 -8 -50 -10q-22 -2 -48.5 2t-52.5 19
q-29 17 -47.5 40t-29.5 45t-15.5 40t-5.5 26q-1 -8 -5.5 -26t-15.5 -40t-29.5 -45t-47.5 -40q-26 -15 -52.5 -19t-48.5 -2q-26 2 -50 10q-20 7 -34.5 18.5t-24 26t-16 31t-9.5 32.5q-8 38 -6 81q3 71 16 130.5t32.5 109t42.5 89t45 71.5q33 48 67.5 73t64 36.5t49 13
t22.5 1.5t21 -1.5t45.5 -11t60.5 -31.5t65 -64q12 25 32 43t44 31t51 21.5t53 13.5q62 11 131 10q48 1 84 -3.5t62 -13t43.5 -19t28.5 -21.5q26 -26 27 -61q0 -30 -9.5 -52t-26 -38t-38 -26t-43.5 -16q-53 -14 -120 -12q56 -5 83.5 -20.5t39.5 -32.5q13 -20 13 -43zM367 354
q-17 0 -29.5 -13t-10.5 -29q2 -21 12.5 -29t27.5 -8t28 10t11 27q0 16 -10 29t-29 13z" />
    <glyph glyph-name="Ccedilla" unicode="&#xc7;" horiz-adv-x="695" 
d="M497 426q-31 5 -56 1q-21 -4 -39 -17t-20 -45q-1 -24 11 -42q11 -15 35 -25.5t72 -5.5q45 5 81 -4q15 -4 30.5 -11t28 -19.5t22 -31t12.5 -43.5q2 -30 -5 -58q-6 -24 -22.5 -51t-51.5 -46q-17 -10 -42 -17q-21 -7 -51.5 -12t-69.5 -6v-34q24 0 45.5 -7t38 -19.5t26.5 -31
t10 -42.5q0 -26 -10.5 -45.5t-28 -32.5t-39.5 -19.5t-44 -6.5q-9 0 -18 0.5t-18 0.5q-19 0 -32 13t-13 32q0 23 14 29.5t31 6.5q5 0 11.5 -0.5t13.5 -0.5q15 0 27.5 4.5t12.5 21.5q0 16 -14 22q-15 5 -38 5t-31.5 2t-15.5 6q-18 9 -18 31v71q-23 2 -47.5 7t-51.5 13
q-62 20 -110 64q-21 19 -40.5 44.5t-34.5 60t-23.5 78.5t-6.5 98q1 78 28 146q12 29 30.5 58.5t47 55.5t67 47t90.5 33q51 12 106 13q46 1 101.5 -8.5t107.5 -40.5q27 -19 43 -46q7 -12 12 -26.5t6.5 -31.5t-1.5 -37t-13 -43q-11 -23 -31 -38q-17 -13 -47.5 -21t-77.5 1z
" />
    <glyph glyph-name="Egrave" unicode="&#xc8;" horiz-adv-x="668" 
d="M343 711q56 -2 97.5 -8t72 -15.5t50.5 -20.5t32 -23q29 -27 28 -60q0 -30 -11 -51.5t-29 -36.5t-42 -24t-49 -14q-59 -11 -134 -7q57 -10 86 -27.5t40 -34.5q13 -20 11 -44q0 -29 -14.5 -48.5t-33.5 -31.5t-36 -17.5t-22 -6.5q46 0 81 -5t60.5 -14t42 -20.5t27.5 -23.5
q25 -28 25 -64q-2 -24 -14 -41.5t-30.5 -30.5t-42.5 -21.5t-48 -14.5q-57 -13 -130 -14q-55 -2 -97 4t-74 16t-55 23t-38 27q-36 33 -45 75q-13 66 -14.5 138.5t2.5 133.5q4 71 14 140q6 34 21.5 59.5t37 43.5t47 29.5t51.5 17.5q60 15 133 12zM302 947q16 -5 35.5 -15.5
t37.5 -23t33.5 -26t23.5 -23.5q9 -12 14 -24q5 -11 6.5 -25t-6.5 -29q-8 -17 -21 -23t-26 -8q-15 -2 -31 2q-31 5 -61 14q-26 8 -53.5 19.5t-48.5 30.5q-19 16 -25 32.5t-4.5 31.5t8.5 28t15 21q7 7 16 13.5t20.5 10t27.5 2.5t39 -8z" />
    <glyph glyph-name="Eacute" unicode="&#xc9;" horiz-adv-x="668" 
d="M343 711q56 -2 97.5 -8t72 -15.5t50.5 -20.5t32 -23q29 -27 28 -60q0 -30 -11 -51.5t-29 -36.5t-42 -24t-49 -14q-59 -11 -134 -7q57 -10 86 -27.5t40 -34.5q13 -20 11 -44q0 -29 -14.5 -48.5t-33.5 -31.5t-36 -17.5t-22 -6.5q46 0 81 -5t60.5 -14t42 -20.5t27.5 -23.5
q25 -28 25 -64q-2 -24 -14 -41.5t-30.5 -30.5t-42.5 -21.5t-48 -14.5q-57 -13 -130 -14q-55 -2 -97 4t-74 16t-55 23t-38 27q-36 33 -45 75q-13 66 -14.5 138.5t2.5 133.5q4 71 14 140q6 34 21.5 59.5t37 43.5t47 29.5t51.5 17.5q60 15 133 12zM232 852q8 10 23.5 23.5
t33.5 26t37.5 23t35.5 15.5q22 7 38.5 8t28 -2.5t20 -10t16.5 -13.5q8 -8 15 -21t8.5 -28t-4.5 -31.5t-25 -32.5q-21 -19 -49 -30.5t-54 -19.5q-30 -9 -60 -14q-16 -4 -31 -2q-13 2 -26 8t-21 23q-8 15 -7 29t6 25q5 12 15 24z" />
    <glyph glyph-name="Ecircumflex" unicode="&#xca;" horiz-adv-x="668" 
d="M343 711q56 -2 97.5 -8t72 -15.5t50.5 -20.5t32 -23q29 -27 28 -60q0 -30 -11 -51.5t-29 -36.5t-42 -24t-49 -14q-59 -11 -134 -7q57 -10 86 -27.5t40 -34.5q13 -20 11 -44q0 -29 -14.5 -48.5t-33.5 -31.5t-36 -17.5t-22 -6.5q46 0 81 -5t60.5 -14t42 -20.5t27.5 -23.5
q25 -28 25 -64q-2 -24 -14 -41.5t-30.5 -30.5t-42.5 -21.5t-48 -14.5q-57 -13 -130 -14q-55 -2 -97 4t-74 16t-55 23t-38 27q-36 33 -45 75q-13 66 -14.5 138.5t2.5 133.5q4 71 14 140q6 34 21.5 59.5t37 43.5t47 29.5t51.5 17.5q60 15 133 12zM191 834q1 1 14 16t34 32
t48 31.5t56 14.5q28 0 54 -14.5t47 -32.5t33.5 -33.5t13.5 -16.5q14 -19 10 -42t-24 -37t-43 -10t-37 24q-2 1 -16.5 18t-37.5 30q-14 -9 -26 -18t-20 -17q-10 -9 -17 -16q-11 -12 -23 -18q-11 -5 -25.5 -5t-31.5 14q-19 15 -21.5 38.5t12.5 41.5z" />
    <glyph glyph-name="Edieresis" unicode="&#xcb;" horiz-adv-x="668" 
d="M343 711q56 -2 97.5 -8t72 -15.5t50.5 -20.5t32 -23q29 -27 28 -60q0 -30 -11 -51.5t-29 -36.5t-42 -24t-49 -14q-59 -11 -134 -7q57 -10 86 -27.5t40 -34.5q13 -20 11 -44q0 -29 -14.5 -48.5t-33.5 -31.5t-36 -17.5t-22 -6.5q46 0 81 -5t60.5 -14t42 -20.5t27.5 -23.5
q25 -28 25 -64q-2 -24 -14 -41.5t-30.5 -30.5t-42.5 -21.5t-48 -14.5q-57 -13 -130 -14q-55 -2 -97 4t-74 16t-55 23t-38 27q-36 33 -45 75q-13 66 -14.5 138.5t2.5 133.5q4 71 14 140q6 34 21.5 59.5t37 43.5t47 29.5t51.5 17.5q60 15 133 12zM307 844q0 -32 -19.5 -55
t-57.5 -23t-57.5 23t-19.5 55t19.5 54.5t57.5 22.5t57.5 -22.5t19.5 -54.5zM490 844q0 -32 -19.5 -55t-57.5 -23t-57.5 23t-19.5 55t19.5 54.5t57.5 22.5t57.5 -22.5t19.5 -54.5z" />
    <glyph glyph-name="Igrave" unicode="&#xcc;" horiz-adv-x="420" 
d="M39 203q-6 41 -7.5 89.5t-0.5 90.5q1 49 4 99q5 62 25 111q9 21 22 41t31.5 35.5t43.5 25.5t58 10q40 -3 73 -24q14 -9 28.5 -23t27 -35t22 -49t14.5 -64q8 -70 9 -132.5t-1 -110.5q-3 -55 -8 -103q-7 -49 -26 -87q-9 -16 -21 -31.5t-29 -28t-39 -19.5t-50 -7
q-31 0 -55 9.5t-42.5 24.5t-31 34t-21.5 39q-20 47 -26 105zM199 942q16 -5 35.5 -15.5t37.5 -23t33.5 -26t23.5 -23.5q9 -12 14 -24q5 -11 6.5 -25t-6.5 -29q-8 -17 -21 -23t-26 -8q-15 -2 -31 2q-31 5 -61 14q-26 8 -53.5 19.5t-48.5 30.5q-19 16 -25 32.5t-4.5 31.5
t8.5 28t15 21q7 7 16 13.5t20.5 10t27.5 2.5t39 -8z" />
    <glyph glyph-name="Iacute" unicode="&#xcd;" horiz-adv-x="420" 
d="M39 203q-6 41 -7.5 89.5t-0.5 90.5q1 49 4 99q5 62 25 111q9 21 22 41t31.5 35.5t43.5 25.5t58 10q40 -3 73 -24q14 -9 28.5 -23t27 -35t22 -49t14.5 -64q8 -70 9 -132.5t-1 -110.5q-3 -55 -8 -103q-7 -49 -26 -87q-9 -16 -21 -31.5t-29 -28t-39 -19.5t-50 -7
q-31 0 -55 9.5t-42.5 24.5t-31 34t-21.5 39q-20 47 -26 105zM97 852q8 10 23.5 23.5t33.5 26t37.5 23t35.5 15.5q22 7 38.5 8t28 -2.5t20 -10t16.5 -13.5q8 -8 15 -21t8.5 -28t-4.5 -31.5t-25 -32.5q-21 -19 -49 -30.5t-54 -19.5q-30 -9 -60 -14q-16 -4 -31 -2q-13 2 -26 8
t-21 23q-8 15 -7 29t6 25q5 12 15 24z" />
    <glyph glyph-name="Icircumflex" unicode="&#xce;" horiz-adv-x="420" 
d="M39 203q-6 41 -7.5 89.5t-0.5 90.5q1 49 4 99q5 62 25 111q9 21 22 41t31.5 35.5t43.5 25.5t58 10q40 -3 73 -24q14 -9 28.5 -23t27 -35t22 -49t14.5 -64q8 -70 9 -132.5t-1 -110.5q-3 -55 -8 -103q-7 -49 -26 -87q-9 -16 -21 -31.5t-29 -28t-39 -19.5t-50 -7
q-31 0 -55 9.5t-42.5 24.5t-31 34t-21.5 39q-20 47 -26 105zM59 834q1 1 14 16t34 32t48 31.5t56 14.5q28 0 54 -14.5t47 -32.5t33.5 -33.5t13.5 -16.5q14 -19 10 -42t-24 -37t-43 -10t-37 24q-2 1 -16.5 18t-37.5 30q-14 -9 -26 -18t-20 -17q-10 -9 -17 -16
q-11 -12 -23 -18q-11 -5 -25.5 -5t-31.5 14q-19 15 -21.5 38.5t12.5 41.5z" />
    <glyph glyph-name="Idieresis" unicode="&#xcf;" horiz-adv-x="420" 
d="M39 203q-6 41 -7.5 89.5t-0.5 90.5q1 49 4 99q5 62 25 111q9 21 22 41t31.5 35.5t43.5 25.5t58 10q40 -3 73 -24q14 -9 28.5 -23t27 -35t22 -49t14.5 -64q8 -70 9 -132.5t-1 -110.5q-3 -55 -8 -103q-7 -49 -26 -87q-9 -16 -21 -31.5t-29 -28t-39 -19.5t-50 -7
q-31 0 -55 9.5t-42.5 24.5t-31 34t-21.5 39q-20 47 -26 105zM190 823q0 -32 -19.5 -55t-57.5 -23t-57.5 23t-19.5 55t19.5 54.5t57.5 22.5t57.5 -22.5t19.5 -54.5zM373 823q0 -32 -19.5 -55t-57.5 -23t-57.5 23t-19.5 55t19.5 54.5t57.5 22.5t57.5 -22.5t19.5 -54.5z" />
    <glyph glyph-name="Eth" unicode="&#xd0;" horiz-adv-x="813" 
d="M753 180q-12 -40 -33 -69.5t-47 -50.5t-55.5 -34t-58.5 -21q-69 -18 -147 -16q-60 -1 -99 12.5t-63 30.5q-28 19 -45 43q-19 32 -26 71.5t-9 79.5q-29 2 -57.5 8t-51.5 19.5t-37 36t-14 57.5q0 33 15 55t38.5 35t53.5 19.5t60 8.5q5 44 9 67q3 14 5 25q5 31 17 54
t27.5 39.5t33 27.5t35.5 17q41 15 91 13q48 0 88 -6.5t72 -17t57.5 -24.5t45.5 -28q46 -34 72 -77q25 -43 37 -99q5 -24 8.5 -53.5t2.5 -64.5t-6.5 -74.5t-18.5 -83.5zM476 384q-17 0 -28.5 -8.5t-11.5 -33.5q0 -24 11.5 -30.5t28.5 -6.5t28 10t11 27q0 16 -10 29t-29 13z
" />
    <glyph glyph-name="Ntilde" unicode="&#xd1;" horiz-adv-x="823" 
d="M55 552q10 43 34 78q20 30 56.5 55.5t95.5 28.5q51 2 88 -14t62 -42t39.5 -57.5t22.5 -61.5t10.5 -53t3.5 -32q0 50 6.5 87.5t17.5 65t25.5 45.5t29.5 29q35 26 80 26q47 1 75.5 -16.5t43.5 -39.5q18 -26 24 -58q17 -88 17 -167.5t-5 -141.5q-7 -72 -20 -136
q-7 -32 -17.5 -55.5t-23 -40t-26.5 -27t-27 -16.5q-32 -14 -66 -11q-52 -1 -90 18.5t-65 49.5t-44.5 66.5t-28 69.5t-14.5 58t-5 33q3 -61 -2.5 -106t-16.5 -77t-25.5 -53t-30.5 -33q-37 -29 -86 -26q-43 -2 -70 15.5t-42 38.5q-18 25 -26 57q-19 79 -21.5 157.5t2.5 142.5
q5 74 19 143zM598 814q-15 -27 -34 -41t-39 -19t-40.5 -2t-39.5 10q-45 17 -92 56q-9 -34 -25.5 -47.5t-33.5 -16.5q-19 -4 -41 3q-13 4 -23.5 14t-16.5 23t-7.5 27t3.5 27q18 54 52 80q15 11 34.5 17.5t45 3.5t57.5 -17.5t71 -44.5l2 -4q10 29 33 45.5t54 6.5q25 -9 40 -25
q13 -14 16.5 -37.5t-16.5 -58.5z" />
    <glyph glyph-name="Ograve" unicode="&#xd2;" horiz-adv-x="748" 
d="M393 704q60 0 105.5 -14.5t79.5 -38.5t57 -54.5t38 -62.5q35 -75 40 -169q0 -71 -14 -124.5t-36.5 -93t-51 -66.5t-58.5 -45q-70 -41 -160 -47q-68 0 -119 14.5t-89 38t-64 54t-43 62.5q-40 74 -45 169q0 78 15.5 135t41 98.5t57.5 68t66 42.5q79 37 180 33zM378 383
q-17 0 -29.5 -13t-10.5 -29q2 -21 12.5 -29t27.5 -8t28 10t11 27q0 16 -10 29t-29 13zM365 945q16 -5 35.5 -15.5t37.5 -23t33.5 -26t23.5 -23.5q9 -12 14 -24q5 -11 6.5 -25t-6.5 -29q-8 -17 -21 -23t-26 -8q-15 -2 -31 2q-31 5 -61 14q-26 8 -53.5 19.5t-48.5 30.5
q-19 16 -25 32.5t-4.5 31.5t8.5 28t15 21q7 7 16 13.5t20.5 10t27.5 2.5t39 -8z" />
    <glyph glyph-name="Oacute" unicode="&#xd3;" horiz-adv-x="748" 
d="M393 704q60 0 105.5 -14.5t79.5 -38.5t57 -54.5t38 -62.5q35 -75 40 -169q0 -71 -14 -124.5t-36.5 -93t-51 -66.5t-58.5 -45q-70 -41 -160 -47q-68 0 -119 14.5t-89 38t-64 54t-43 62.5q-40 74 -45 169q0 78 15.5 135t41 98.5t57.5 68t66 42.5q79 37 180 33zM378 383
q-17 0 -29.5 -13t-10.5 -29q2 -21 12.5 -29t27.5 -8t28 10t11 27q0 16 -10 29t-29 13zM250 852q8 10 23.5 23.5t33.5 26t37.5 23t35.5 15.5q22 7 38.5 8t28 -2.5t20 -10t16.5 -13.5q8 -8 15 -21t8.5 -28t-4.5 -31.5t-25 -32.5q-21 -19 -49 -30.5t-54 -19.5q-30 -9 -60 -14
q-16 -4 -31 -2q-13 2 -26 8t-21 23q-8 15 -7 29t6 25q5 12 15 24z" />
    <glyph glyph-name="Ocircumflex" unicode="&#xd4;" horiz-adv-x="748" 
d="M393 704q60 0 105.5 -14.5t79.5 -38.5t57 -54.5t38 -62.5q35 -75 40 -169q0 -71 -14 -124.5t-36.5 -93t-51 -66.5t-58.5 -45q-70 -41 -160 -47q-68 0 -119 14.5t-89 38t-64 54t-43 62.5q-40 74 -45 169q0 78 15.5 135t41 98.5t57.5 68t66 42.5q79 37 180 33zM227 833
q1 1 14 16t34 32t48 31.5t56 14.5q28 0 54 -14.5t47 -32.5t33.5 -33.5t13.5 -16.5q14 -19 10 -42t-24 -37t-43 -10t-37 24q-2 1 -16.5 18t-37.5 30q-14 -9 -26 -18t-20 -17q-10 -9 -17 -16q-11 -12 -23 -18q-11 -5 -25.5 -5t-31.5 14q-19 15 -21.5 38.5t12.5 41.5zM378 383
q-17 0 -29.5 -13t-10.5 -29q2 -21 12.5 -29t27.5 -8t28 10t11 27q0 16 -10 29t-29 13z" />
    <glyph glyph-name="Otilde" unicode="&#xd5;" horiz-adv-x="748" 
d="M393 704q60 0 105.5 -14.5t79.5 -38.5t57 -54.5t38 -62.5q35 -75 40 -169q0 -71 -14 -124.5t-36.5 -93t-51 -66.5t-58.5 -45q-70 -41 -160 -47q-68 0 -119 14.5t-89 38t-64 54t-43 62.5q-40 74 -45 169q0 78 15.5 135t41 98.5t57.5 68t66 42.5q79 37 180 33zM560 808
q-15 -27 -34 -41t-39 -19t-40.5 -2t-39.5 10q-45 17 -92 56q-9 -34 -25.5 -47.5t-33.5 -16.5q-19 -4 -41 3q-13 4 -23.5 14t-16.5 23t-7.5 27t3.5 27q18 54 52 80q15 11 34.5 17.5t45 3.5t57.5 -17.5t71 -44.5l2 -4q10 29 33 45.5t54 6.5q25 -9 40 -25q13 -14 16.5 -37.5
t-16.5 -58.5zM378 383q-17 0 -29.5 -13t-10.5 -29q2 -21 12.5 -29t27.5 -8t28 10t11 27q0 16 -10 29t-29 13z" />
    <glyph glyph-name="Odieresis" unicode="&#xd6;" horiz-adv-x="748" 
d="M393 704q60 0 105.5 -14.5t79.5 -38.5t57 -54.5t38 -62.5q35 -75 40 -169q0 -71 -14 -124.5t-36.5 -93t-51 -66.5t-58.5 -45q-70 -41 -160 -47q-68 0 -119 14.5t-89 38t-64 54t-43 62.5q-40 74 -45 169q0 78 15.5 135t41 98.5t57.5 68t66 42.5q79 37 180 33zM378 383
q-17 0 -29.5 -13t-10.5 -29q2 -21 12.5 -29t27.5 -8t28 10t11 27q0 16 -10 29t-29 13zM365 840q0 -32 -19.5 -55t-57.5 -23t-57.5 23t-19.5 55t19.5 54.5t57.5 22.5t57.5 -22.5t19.5 -54.5zM548 840q0 -32 -19.5 -55t-57.5 -23t-57.5 23t-19.5 55t19.5 54.5t57.5 22.5
t57.5 -22.5t19.5 -54.5z" />
    <glyph glyph-name="multiply" unicode="&#xd7;" horiz-adv-x="536" 
d="M471 177q-19 -19 -41 -30q-20 -9 -45.5 -10t-56.5 19l-24 16t-23 16q-12 -11 -21.5 -18.5t-16.5 -12.5q-8 -6 -14 -9q-29 -21 -54.5 -20.5t-45.5 9.5q-23 11 -43 31q-13 16 -22 34q-8 16 -11 37t7 47q12 29 40 67q-10 11 -16 20t-11 15q-5 7 -9 13q-21 29 -20.5 54
t9.5 45q11 23 32 43q15 13 33 22q16 7 37 10t47 -7q15 -5 32 -15t35 -23q29 22 52 36q28 17 52 17.5t42 -5.5q21 -8 38 -23q19 -19 29 -41q8 -19 9 -45t-18 -56q-8 -12 -15.5 -24t-15.5 -23q24 -32 39 -57q17 -29 18 -53.5t-5 -41.5q-7 -21 -23 -37z" />
    <glyph glyph-name="Oslash" unicode="&#xd8;" horiz-adv-x="748" 
d="M393 704q39 0 72 -7t60 -18q45 45 74 62.5t52 17.5q15 0 30 -5.5t26.5 -15.5t19 -23.5t7.5 -29.5q0 -15 -7 -32t-18 -34t-23.5 -33.5t-23.5 -30.5q19 -35 29.5 -68.5t15.5 -60.5q5 -32 6 -61q0 -71 -14 -124.5t-36.5 -93t-51 -66.5t-58.5 -45q-70 -41 -160 -47
q-57 0 -102 10t-80 28q-12 -13 -25 -27t-27.5 -26t-30 -19.5t-32.5 -7.5q-30 0 -52 22.5t-22 52.5q0 14 13.5 44.5t46.5 84.5q-19 32 -28.5 64t-14.5 57q-5 29 -6 55q0 78 15.5 135t41 98.5t57.5 68t66 42.5q79 37 180 33zM378 383q-17 0 -29.5 -13t-10.5 -29
q2 -21 12.5 -29t27.5 -8t28 10t11 27q0 16 -10 29t-29 13z" />
    <glyph glyph-name="Ugrave" unicode="&#xd9;" horiz-adv-x="767" 
d="M215 711q36 -2 64 -19q24 -14 44.5 -45t20.5 -88q0 -43 -1 -81.5t2 -68t11.5 -47t26.5 -17.5t26.5 17.5t11.5 47t2 68t-2 81.5q-1 28 4.5 49.5t15.5 37.5t22.5 26.5t25.5 16.5q31 15 71 15q51 3 82.5 -14t49.5 -38q20 -26 30 -58q17 -76 17.5 -146.5t-6.5 -125.5
q-8 -64 -23 -121q-21 -61 -62 -109q-18 -20 -41.5 -39.5t-55 -34.5t-71 -24t-87.5 -9q-41 0 -74.5 6.5t-61.5 16.5t-50 23t-39 26q-40 31 -63 70q-19 32 -31 67.5t-19.5 72t-11 72t-3.5 68.5q-1 77 10 152q12 63 39 94.5t55 44.5q33 15 71 13zM339 936q16 -5 35.5 -15.5
t37.5 -23t33.5 -26t23.5 -23.5q9 -12 14 -24q5 -11 6.5 -25t-6.5 -29q-8 -17 -21 -23t-26 -8q-15 -2 -31 2q-31 5 -61 14q-26 8 -53.5 19.5t-48.5 30.5q-19 16 -25 32.5t-4.5 31.5t8.5 28t15 21q7 7 16 13.5t20.5 10t27.5 2.5t39 -8z" />
    <glyph glyph-name="Uacute" unicode="&#xda;" horiz-adv-x="767" 
d="M215 711q36 -2 64 -19q24 -14 44.5 -45t20.5 -88q0 -43 -1 -81.5t2 -68t11.5 -47t26.5 -17.5t26.5 17.5t11.5 47t2 68t-2 81.5q-1 28 4.5 49.5t15.5 37.5t22.5 26.5t25.5 16.5q31 15 71 15q51 3 82.5 -14t49.5 -38q20 -26 30 -58q17 -76 17.5 -146.5t-6.5 -125.5
q-8 -64 -23 -121q-21 -61 -62 -109q-18 -20 -41.5 -39.5t-55 -34.5t-71 -24t-87.5 -9q-41 0 -74.5 6.5t-61.5 16.5t-50 23t-39 26q-40 31 -63 70q-19 32 -31 67.5t-19.5 72t-11 72t-3.5 68.5q-1 77 10 152q12 63 39 94.5t55 44.5q33 15 71 13zM287 853q8 10 23.5 23.5
t33.5 26t37.5 23t35.5 15.5q22 7 38.5 8t28 -2.5t20 -10t16.5 -13.5q8 -8 15 -21t8.5 -28t-4.5 -31.5t-25 -32.5q-21 -19 -49 -30.5t-54 -19.5q-30 -9 -60 -14q-16 -4 -31 -2q-13 2 -26 8t-21 23q-8 15 -7 29t6 25q5 12 15 24z" />
    <glyph glyph-name="Ucircumflex" unicode="&#xdb;" horiz-adv-x="767" 
d="M215 711q36 -2 64 -19q24 -14 44.5 -45t20.5 -88q0 -43 -1 -81.5t2 -68t11.5 -47t26.5 -17.5t26.5 17.5t11.5 47t2 68t-2 81.5q-1 28 4.5 49.5t15.5 37.5t22.5 26.5t25.5 16.5q31 15 71 15q51 3 82.5 -14t49.5 -38q20 -26 30 -58q17 -76 17.5 -146.5t-6.5 -125.5
q-8 -64 -23 -121q-21 -61 -62 -109q-18 -20 -41.5 -39.5t-55 -34.5t-71 -24t-87.5 -9q-41 0 -74.5 6.5t-61.5 16.5t-50 23t-39 26q-40 31 -63 70q-19 32 -31 67.5t-19.5 72t-11 72t-3.5 68.5q-1 77 10 152q12 63 39 94.5t55 44.5q33 15 71 13zM237 831q1 1 14 16t34 32
t48 31.5t56 14.5q28 0 54 -14.5t47 -32.5t33.5 -33.5t13.5 -16.5q14 -19 10 -42t-24 -37t-43 -10t-37 24q-2 1 -16.5 18t-37.5 30q-14 -9 -26 -18t-20 -17q-10 -9 -17 -16q-11 -12 -23 -18q-11 -5 -25.5 -5t-31.5 14q-19 15 -21.5 38.5t12.5 41.5z" />
    <glyph glyph-name="Udieresis" unicode="&#xdc;" horiz-adv-x="767" 
d="M215 711q36 -2 64 -19q24 -14 44.5 -45t20.5 -88q0 -43 -1 -81.5t2 -68t11.5 -47t26.5 -17.5t26.5 17.5t11.5 47t2 68t-2 81.5q-1 28 4.5 49.5t15.5 37.5t22.5 26.5t25.5 16.5q31 15 71 15q51 3 82.5 -14t49.5 -38q20 -26 30 -58q17 -76 17.5 -146.5t-6.5 -125.5
q-8 -64 -23 -121q-21 -61 -62 -109q-18 -20 -41.5 -39.5t-55 -34.5t-71 -24t-87.5 -9q-41 0 -74.5 6.5t-61.5 16.5t-50 23t-39 26q-40 31 -63 70q-19 32 -31 67.5t-19.5 72t-11 72t-3.5 68.5q-1 77 10 152q12 63 39 94.5t55 44.5q33 15 71 13zM369 840q0 -32 -19.5 -55
t-57.5 -23t-57.5 23t-19.5 55t19.5 54.5t57.5 22.5t57.5 -22.5t19.5 -54.5zM552 840q0 -32 -19.5 -55t-57.5 -23t-57.5 23t-19.5 55t19.5 54.5t57.5 22.5t57.5 -22.5t19.5 -54.5z" />
    <glyph glyph-name="Yacute" unicode="&#xdd;" horiz-adv-x="740" 
d="M390 547q21 76 53.5 113.5t64.5 51.5q37 17 77 12q32 -4 54.5 -14t37.5 -23.5t23.5 -29.5t13.5 -32q10 -38 2 -84q-13 -55 -43 -95.5t-61 -66.5q-36 -31 -78 -52q20 -63 18 -113t-11 -85q-11 -41 -31 -73q-23 -32 -52 -45.5t-68 -13.5q-32 0 -55.5 7t-38.5 16
q-18 10 -30 23q-16 18 -26.5 39t-16.5 44t-8 46.5t-2 44.5q0 50 11 103q-51 22 -93 55q-18 14 -35.5 31.5t-32.5 38.5t-25.5 45.5t-14.5 52.5q-5 33 -1 58.5t13 45t21.5 33.5t26.5 23q33 22 77 28q33 2 61 -5t50.5 -19.5t40 -29t30.5 -34.5q31 -41 48 -96zM320 853
q8 10 23.5 23.5t33.5 26t37.5 23t35.5 15.5q22 7 38.5 8t28 -2.5t20 -10t16.5 -13.5q8 -8 15 -21t8.5 -28t-4.5 -31.5t-25 -32.5q-21 -19 -49 -30.5t-54 -19.5q-30 -9 -60 -14q-16 -4 -31 -2q-13 2 -26 8t-21 23q-8 15 -7 29t6 25q5 12 15 24z" />
    <glyph glyph-name="Thorn" unicode="&#xde;" horiz-adv-x="708" 
d="M665 370q2 -47 -9.5 -81t-32 -58t-47 -39t-54.5 -24q-66 -21 -151 -16q6 -32 4.5 -56.5t-8.5 -42.5t-18.5 -30t-24.5 -20q-31 -18 -74 -20q-53 -2 -88 15t-56 39q-25 26 -39 59q-14 40 -22.5 74.5t-12.5 67t-5 64.5t-1 65t1.5 63t6 61t11.5 64t19 72q13 39 38 68
q21 25 56 43.5t89 13.5q43 -4 75 -22q13 -8 25 -20t19.5 -29.5t9.5 -40.5t-4 -53q56 -2 98 -12t73 -26t52 -35t35 -39q32 -47 35 -105zM386 401q-17 0 -29.5 -13t-10.5 -29q2 -21 12.5 -29t27.5 -8t28 10t11 27q0 16 -10 29t-29 13z" />
    <glyph glyph-name="germandbls" unicode="&#xdf;" horiz-adv-x="657" 
d="M30 322q0 54 4.5 96.5t9.5 72.5q6 35 15 62q12 35 30.5 60.5t39.5 44t44 30.5t45 19q52 17 110 15q71 -3 117 -24t73 -45q32 -28 48 -64q19 -49 14.5 -87t-18.5 -64q-16 -31 -42 -53q39 -13 62 -34.5t36 -42.5q14 -25 20 -51q6 -52 -2 -99q-7 -40 -29.5 -80.5
t-71.5 -63.5q-39 -18 -71.5 -19t-58 9.5t-43.5 28t-29 36.5q-11 18 -12.5 39.5t4 41t17 35t27.5 21.5q14 5 20 15t7 20q1 11 -3 24q-10 29 -46 29q-17 0 -28.5 -11t-11.5 -33q0 -23 1 -34t1 -22t-2 -28.5t-7 -52.5q-6 -35 -17.5 -56t-27 -32.5t-34 -15.5t-37.5 -4
q-24 0 -51 12t-50 46.5t-38 96.5t-15 162zM344 522q-17 0 -28.5 -10.5t-11.5 -27.5q0 -16 8.5 -29.5t31.5 -13.5q20 0 30 13.5t10 29.5q0 15 -8 26.5t-32 11.5z" />
    <glyph glyph-name="agrave" unicode="&#xe0;" horiz-adv-x="704" 
d="M242 513q53 5 87 -5.5t53.5 -25.5t27.5 -29.5t9 -17.5q0 1 5.5 14.5t18.5 29.5t35 28.5t55 12.5q28 0 49 -11t37 -29t27 -41t18 -47q17 -56 19 -127q3 -57 -2 -99.5t-14.5 -73t-22.5 -51t-27 -32.5q-33 -29 -77 -27q-27 -1 -51 9q-20 8 -39 27.5t-24 57.5
q-10 -30 -36 -51q-22 -18 -62 -31t-106 -5q-54 6 -96 32q-18 11 -35.5 28t-31 42t-21.5 58t-8 76q-2 75 19 136q9 26 24 51.5t38 46.5t55 35.5t76 18.5zM333 757q16 -5 35.5 -15.5t37.5 -23t33.5 -26t23.5 -23.5q9 -12 14 -24q5 -11 6.5 -25t-6.5 -29q-8 -17 -21 -23t-26 -8
q-15 -2 -31 2q-31 5 -61 14q-26 8 -53.5 19.5t-48.5 30.5q-19 16 -25 32.5t-4.5 31.5t8.5 28t15 21q7 7 16 13.5t20.5 10t27.5 2.5t39 -8zM375 278q-17 0 -29.5 -13t-10.5 -29q2 -21 12.5 -29t27.5 -8t28 10t11 27q0 16 -10 29t-29 13z" />
    <glyph glyph-name="aacute" unicode="&#xe1;" horiz-adv-x="704" 
d="M419 435q8 24 23 42q13 16 34.5 29.5t56.5 13.5q28 0 49 -11t37 -29t27 -41t18 -47q17 -56 19 -127q3 -57 -2 -99.5t-14.5 -73t-22.5 -51t-27 -32.5q-33 -29 -77 -27q-27 -1 -51 9q-20 8 -39 27.5t-24 57.5q-10 -30 -36 -51q-22 -18 -62 -31t-106 -5q-54 6 -96 32
q-18 11 -35.5 28t-31 42t-21.5 58t-8 76q-2 75 19 136q9 26 24 51.5t38 46.5t55 35.5t76 18.5q56 5 90 -6.5t54 -27.5q23 -18 33 -44zM375 278q-17 0 -29.5 -13t-10.5 -29q2 -21 12.5 -29t27.5 -8t28 10t11 27q0 16 -10 29t-29 13zM251 667q8 10 23.5 23.5t33.5 26t37.5 23
t35.5 15.5q22 7 38.5 8t28 -2.5t20 -10t16.5 -13.5q8 -8 15 -21t8.5 -28t-4.5 -31.5t-25 -32.5q-21 -19 -49 -30.5t-54 -19.5q-30 -9 -60 -14q-16 -4 -31 -2q-13 2 -26 8t-21 23q-8 15 -7 29t6 25q5 12 15 24z" />
    <glyph glyph-name="acircumflex" unicode="&#xe2;" horiz-adv-x="704" 
d="M419 435q8 24 23 42q13 16 34.5 29.5t56.5 13.5q28 0 49 -11t37 -29t27 -41t18 -47q17 -56 19 -127q3 -57 -2 -99.5t-14.5 -73t-22.5 -51t-27 -32.5q-33 -29 -77 -27q-27 -1 -51 9q-20 8 -39 27.5t-24 57.5q-10 -30 -36 -51q-22 -18 -62 -31t-106 -5q-54 6 -96 32
q-18 11 -35.5 28t-31 42t-21.5 58t-8 76q-2 75 19 136q9 26 24 51.5t38 46.5t55 35.5t76 18.5q56 5 90 -6.5t54 -27.5q23 -18 33 -44zM203 655q1 1 14 16t34 32t48 31.5t56 14.5q28 0 54 -14.5t47 -32.5t33.5 -33.5t13.5 -16.5q14 -19 10 -42t-24 -37t-43 -10t-37 24
q-2 1 -16.5 18t-37.5 30q-14 -9 -26 -18t-20 -17q-10 -9 -17 -16q-11 -12 -23 -18q-11 -5 -25.5 -5t-31.5 14q-19 15 -21.5 38.5t12.5 41.5zM375 278q-17 0 -29.5 -13t-10.5 -29q2 -21 12.5 -29t27.5 -8t28 10t11 27q0 16 -10 29t-29 13z" />
    <glyph glyph-name="atilde" unicode="&#xe3;" horiz-adv-x="724" 
d="M242 513q53 5 87 -5.5t53.5 -25.5t27.5 -29.5t9 -17.5q0 1 5.5 14.5t18.5 29.5t35 28.5t55 12.5q28 0 49 -11t37 -29t27 -41t18 -47q17 -56 19 -127q3 -57 -2 -99.5t-14.5 -73t-22.5 -51t-27 -32.5q-33 -29 -77 -27q-27 -1 -51 9q-20 8 -39 27.5t-24 57.5
q-10 -30 -36 -51q-22 -18 -62 -31t-106 -5q-54 6 -96 32q-18 11 -35.5 28t-31 42t-21.5 58t-8 76q-2 75 19 136q9 26 24 51.5t38 46.5t55 35.5t76 18.5zM543 629q-15 -27 -34 -41t-39 -19t-40.5 -2t-39.5 10q-45 17 -92 56q-9 -34 -25.5 -47.5t-33.5 -16.5q-19 -4 -41 3
q-13 4 -23.5 14t-16.5 23t-7.5 27t3.5 27q18 54 52 80q15 11 34.5 17.5t45 3.5t57.5 -17.5t71 -44.5l2 -4q10 29 33 45.5t54 6.5q25 -9 40 -25q13 -14 16.5 -37.5t-16.5 -58.5zM375 278q-17 0 -29.5 -13t-10.5 -29q2 -21 12.5 -29t27.5 -8t28 10t11 27q0 16 -10 29t-29 13z
" />
    <glyph glyph-name="adieresis" unicode="&#xe4;" horiz-adv-x="704" 
d="M242 513q53 5 87 -5.5t53.5 -25.5t27.5 -29.5t9 -17.5q0 1 5.5 14.5t18.5 29.5t35 28.5t55 12.5q28 0 49 -11t37 -29t27 -41t18 -47q17 -56 19 -127q3 -57 -2 -99.5t-14.5 -73t-22.5 -51t-27 -32.5q-33 -29 -77 -27q-27 -1 -51 9q-20 8 -39 27.5t-24 57.5
q-10 -30 -36 -51q-22 -18 -62 -31t-106 -5q-54 6 -96 32q-18 11 -35.5 28t-31 42t-21.5 58t-8 76q-2 75 19 136q9 26 24 51.5t38 46.5t55 35.5t76 18.5zM543 658q0 -32 -19.5 -55t-57.5 -23t-57.5 23t-19.5 55t19.5 54.5t57.5 22.5t57.5 -22.5t19.5 -54.5zM360 658
q0 -32 -19.5 -55t-57.5 -23t-57.5 23t-19.5 55t19.5 54.5t57.5 22.5t57.5 -22.5t19.5 -54.5zM375 278q-17 0 -29.5 -13t-10.5 -29q2 -21 12.5 -29t27.5 -8t28 10t11 27q0 16 -10 29t-29 13z" />
    <glyph glyph-name="aring" unicode="&#xe5;" horiz-adv-x="704" 
d="M242 513q53 5 87 -5.5t53.5 -25.5t27.5 -29.5t9 -17.5q0 1 5.5 14.5t18.5 29.5t35 28.5t55 12.5q28 0 49 -11t37 -29t27 -41t18 -47q17 -56 19 -127q3 -57 -2 -99.5t-14.5 -73t-22.5 -51t-27 -32.5q-33 -29 -77 -27q-27 -1 -51 9q-20 8 -39 27.5t-24 57.5
q-10 -30 -36 -51q-22 -18 -62 -31t-106 -5q-54 6 -96 32q-18 11 -35.5 28t-31 42t-21.5 58t-8 76q-2 75 19 136q9 26 24 51.5t38 46.5t55 35.5t76 18.5zM494 649q0 -24 -9.5 -45t-26 -36.5t-39 -24.5t-47.5 -9q-26 0 -48 9t-39 24.5t-26.5 36.5t-9.5 45t9.5 44.5t26.5 36.5
t39 25t48 9q25 0 47.5 -9t39 -25t26 -36.5t9.5 -44.5zM371 703q-28 0 -41 -15t-13 -38q0 -22 13 -36.5t42 -14.5t40.5 14t11.5 36q0 26 -14 40t-39 14zM375 278q-17 0 -29.5 -13t-10.5 -29q2 -21 12.5 -29t27.5 -8t28 10t11 27q0 16 -10 29t-29 13z" />
    <glyph glyph-name="ae" unicode="&#xe6;" horiz-adv-x="1072" 
d="M834 206q29 -23 61 -28.5t59.5 -9.5t47 -15t24.5 -46q1 -20 -5 -39q-6 -17 -20.5 -34.5t-45.5 -29.5q-44 -14 -95 -18q-44 -4 -100 1.5t-117 30.5l-4 2l-4 2t-5 3q-15 -14 -29.5 -20.5t-25.5 -8.5q-13 -3 -26 -2q-27 -1 -51 9q-20 8 -39 27.5t-24 57.5q-10 -30 -36 -51
q-22 -18 -62 -31t-106 -5q-54 6 -96 32q-18 11 -35.5 28t-31 42t-21.5 58t-8 76q-2 75 19 136q9 26 24 51.5t38 46.5t55 35.5t76 18.5q53 5 87 -5.5t53.5 -25.5t27.5 -29.5t9 -17.5q0 1 5.5 14.5t18.5 29.5t35 28.5t55 12.5q29 0 50 -11t37 -29q10 6 20.5 11t22.5 9
q51 15 104 16q22 0 47.5 -2.5t51 -10t51.5 -21.5t50 -35q16 -16 28 -36q11 -18 19 -43.5t9 -60.5q0 -39 -17.5 -64t-46 -38t-64 -15.5t-70.5 4.5zM376 201q16 0 27 9t11 27q0 20 -11 31t-27 11q-15 0 -26 -11t-11 -31q0 -18 11 -27t26 -9zM806 263q14 0 23 7.5t9 21.5
q0 13 -7.5 21.5t-24.5 8.5t-24 -8.5t-7 -21.5q0 -16 8.5 -22.5t22.5 -6.5z" />
    <glyph glyph-name="ccedilla" unicode="&#xe7;" horiz-adv-x="570" 
d="M384 285q-20 6 -35 5q-14 -1 -24.5 -8t-10.5 -26q1 -14 9 -22q7 -7 21 -9.5t41 8.5q29 11 57 11q24 -1 51 -13t49 -47q12 -26 12 -52q0 -23 -12 -51t-50 -55q-17 -10 -39 -20q-19 -8 -45 -16t-58 -10v-21q24 0 45.5 -7t38 -19.5t26.5 -31t10 -42.5q0 -26 -10.5 -45.5
t-28 -32.5t-39.5 -19.5t-44 -6.5q-9 0 -18 0.5t-18 0.5q-19 0 -32 13t-13 32q0 23 14 29.5t31 6.5q5 0 11.5 -0.5t13.5 -0.5q15 0 27.5 4.5t12.5 21.5q0 16 -14 22q-15 5 -38 5t-31.5 2t-15.5 6q-18 9 -18 31v57q-45 8 -94 29q-36 18 -64 51q-24 28 -44 74.5t-20 115.5
q1 58 20 109q8 22 21 44t32 42.5t45.5 37t61.5 27.5q49 14 100 15q43 1 93.5 -12t94.5 -53q13 -13 21 -31q7 -16 9.5 -39t-8.5 -52q-10 -22 -29 -37q-17 -13 -44.5 -21t-70.5 0z" />
    <glyph glyph-name="egrave" unicode="&#xe8;" horiz-adv-x="585" 
d="M359 207q29 -23 61 -28.5t59.5 -9.5t47 -15t24.5 -46q1 -20 -5 -39q-6 -17 -20.5 -34.5t-45.5 -29.5q-44 -14 -95 -18q-44 -4 -100 1.5t-117 30.5q-40 18 -71 51q-13 14 -25.5 32.5t-22 42t-15 52.5t-3.5 64q3 54 21 103q8 21 20 42.5t29.5 41.5t41 37t54.5 28
q51 15 104 16q22 0 47.5 -2.5t51 -10t51.5 -21.5t50 -35q16 -16 28 -36q11 -18 19 -43.5t9 -60.5q0 -39 -17.5 -64t-46 -38t-64 -15.5t-70.5 4.5zM333 334q-17 0 -29.5 -13t-10.5 -29q2 -21 12.5 -29t27.5 -8t28 10t11 27q0 16 -10 29t-29 13zM278 757q16 -5 35.5 -15.5
t37.5 -23t33.5 -26t23.5 -23.5q9 -12 14 -24q5 -11 6.5 -25t-6.5 -29q-8 -17 -21 -23t-26 -8q-15 -2 -31 2q-31 5 -61 14q-26 8 -53.5 19.5t-48.5 30.5q-19 16 -25 32.5t-4.5 31.5t8.5 28t15 21q7 7 16 13.5t20.5 10t27.5 2.5t39 -8z" />
    <glyph glyph-name="eacute" unicode="&#xe9;" horiz-adv-x="585" 
d="M359 207q29 -23 61 -28.5t59.5 -9.5t47 -15t24.5 -46q1 -20 -5 -39q-6 -17 -20.5 -34.5t-45.5 -29.5q-44 -14 -95 -18q-44 -4 -100 1.5t-117 30.5q-40 18 -71 51q-13 14 -25.5 32.5t-22 42t-15 52.5t-3.5 64q3 54 21 103q8 21 20 42.5t29.5 41.5t41 37t54.5 28
q51 15 104 16q22 0 47.5 -2.5t51 -10t51.5 -21.5t50 -35q16 -16 28 -36q11 -18 19 -43.5t9 -60.5q0 -39 -17.5 -64t-46 -38t-64 -15.5t-70.5 4.5zM333 334q-17 0 -29.5 -13t-10.5 -29q2 -21 12.5 -29t27.5 -8t28 10t11 27q0 16 -10 29t-29 13zM179 667q8 10 23.5 23.5
t33.5 26t37.5 23t35.5 15.5q22 7 38.5 8t28 -2.5t20 -10t16.5 -13.5q8 -8 15 -21t8.5 -28t-4.5 -31.5t-25 -32.5q-21 -19 -49 -30.5t-54 -19.5q-30 -9 -60 -14q-16 -4 -31 -2q-13 2 -26 8t-21 23q-8 15 -7 29t6 25q5 12 15 24z" />
    <glyph glyph-name="ecircumflex" unicode="&#xea;" horiz-adv-x="585" 
d="M359 207q29 -23 61 -28.5t59.5 -9.5t47 -15t24.5 -46q1 -20 -5 -39q-6 -17 -20.5 -34.5t-45.5 -29.5q-44 -14 -95 -18q-44 -4 -100 1.5t-117 30.5q-40 18 -71 51q-13 14 -25.5 32.5t-22 42t-15 52.5t-3.5 64q3 54 21 103q8 21 20 42.5t29.5 41.5t41 37t54.5 28
q51 15 104 16q22 0 47.5 -2.5t51 -10t51.5 -21.5t50 -35q16 -16 28 -36q11 -18 19 -43.5t9 -60.5q0 -39 -17.5 -64t-46 -38t-64 -15.5t-70.5 4.5zM161 655q1 1 14 16t34 32t48 31.5t56 14.5q28 0 54 -14.5t47 -32.5t33.5 -33.5t13.5 -16.5q14 -19 10 -42t-24 -37t-43 -10
t-37 24q-2 1 -16.5 18t-37.5 30q-14 -9 -26 -18t-20 -17q-10 -9 -17 -16q-11 -12 -23 -18q-11 -5 -25.5 -5t-31.5 14q-19 15 -21.5 38.5t12.5 41.5zM333 334q-17 0 -29.5 -13t-10.5 -29q2 -21 12.5 -29t27.5 -8t28 10t11 27q0 16 -10 29t-29 13z" />
    <glyph glyph-name="edieresis" unicode="&#xeb;" horiz-adv-x="585" 
d="M359 207q29 -23 61 -28.5t59.5 -9.5t47 -15t24.5 -46q1 -20 -5 -39q-6 -17 -20.5 -34.5t-45.5 -29.5q-44 -14 -95 -18q-44 -4 -100 1.5t-117 30.5q-40 18 -71 51q-13 14 -25.5 32.5t-22 42t-15 52.5t-3.5 64q3 54 21 103q8 21 20 42.5t29.5 41.5t41 37t54.5 28
q51 15 104 16q22 0 47.5 -2.5t51 -10t51.5 -21.5t50 -35q16 -16 28 -36q11 -18 19 -43.5t9 -60.5q0 -39 -17.5 -64t-46 -38t-64 -15.5t-70.5 4.5zM333 334q-17 0 -29.5 -13t-10.5 -29q2 -21 12.5 -29t27.5 -8t28 10t11 27q0 16 -10 29t-29 13zM294 658q0 -32 -19.5 -55
t-57.5 -23t-57.5 23t-19.5 55t19.5 54.5t57.5 22.5t57.5 -22.5t19.5 -54.5zM477 658q0 -32 -19.5 -55t-57.5 -23t-57.5 23t-19.5 55t19.5 54.5t57.5 22.5t57.5 -22.5t19.5 -54.5z" />
    <glyph glyph-name="igrave" unicode="&#xec;" horiz-adv-x="389" 
d="M347 106q-8 -45 -30.5 -69t-47.5 -35q-29 -12 -63 -13q-43 -2 -70.5 11.5t-44.5 30.5q-19 19 -29 46q-20 55 -23.5 112.5t1.5 105.5q5 55 18 109q13 46 36.5 70t46.5 35q27 12 58 13q47 2 75.5 -16t45.5 -41q19 -27 28 -62q7 -33 11 -77q3 -38 1.5 -93t-13.5 -127z
M185 757q16 -5 35.5 -15.5t37.5 -23t33.5 -26t23.5 -23.5q9 -12 14 -24q5 -11 6.5 -25t-6.5 -29q-8 -17 -21 -23t-26 -8q-15 -2 -31 2q-31 5 -61 14q-26 8 -53.5 19.5t-48.5 30.5q-19 16 -25 32.5t-4.5 31.5t8.5 28t15 21q7 7 16 13.5t20.5 10t27.5 2.5t39 -8z" />
    <glyph glyph-name="iacute" unicode="&#xed;" horiz-adv-x="389" 
d="M347 106q-8 -45 -30.5 -69t-47.5 -35q-29 -12 -63 -13q-43 -2 -70.5 11.5t-44.5 30.5q-19 19 -29 46q-20 55 -23.5 112.5t1.5 105.5q5 55 18 109q13 46 36.5 70t46.5 35q27 12 58 13q47 2 75.5 -16t45.5 -41q19 -27 28 -62q7 -33 11 -77q3 -38 1.5 -93t-13.5 -127z
M88 667q8 10 23.5 23.5t33.5 26t37.5 23t35.5 15.5q22 7 38.5 8t28 -2.5t20 -10t16.5 -13.5q8 -8 15 -21t8.5 -28t-4.5 -31.5t-25 -32.5q-21 -19 -49 -30.5t-54 -19.5q-30 -9 -60 -14q-16 -4 -31 -2q-13 2 -26 8t-21 23q-8 15 -7 29t6 25q5 12 15 24z" />
    <glyph glyph-name="icircumflex" unicode="&#xee;" horiz-adv-x="389" 
d="M347 106q-8 -45 -30.5 -69t-47.5 -35q-29 -12 -63 -13q-43 -2 -70.5 11.5t-44.5 30.5q-19 19 -29 46q-20 55 -23.5 112.5t1.5 105.5q5 55 18 109q13 46 36.5 70t46.5 35q27 12 58 13q47 2 75.5 -16t45.5 -41q19 -27 28 -62q7 -33 11 -77q3 -38 1.5 -93t-13.5 -127z
M45 655q1 1 14 16t34 32t48 31.5t56 14.5q28 0 54 -14.5t47 -32.5t33.5 -33.5t13.5 -16.5q14 -19 10 -42t-24 -37t-43 -10t-37 24q-2 1 -16.5 18t-37.5 30q-14 -9 -26 -18t-20 -17q-10 -9 -17 -16q-11 -12 -23 -18q-11 -5 -25.5 -5t-31.5 14q-19 15 -21.5 38.5t12.5 41.5z
" />
    <glyph glyph-name="idieresis" unicode="&#xef;" horiz-adv-x="389" 
d="M347 106q-8 -45 -30.5 -69t-47.5 -35q-29 -12 -63 -13q-43 -2 -70.5 11.5t-44.5 30.5q-19 19 -29 46q-20 55 -23.5 112.5t1.5 105.5q5 55 18 109q13 46 36.5 70t46.5 35q27 12 58 13q47 2 75.5 -16t45.5 -41q19 -27 28 -62q7 -33 11 -77q3 -38 1.5 -93t-13.5 -127z
M192 658q0 -32 -19.5 -55t-57.5 -23t-57.5 23t-19.5 55t19.5 54.5t57.5 22.5t57.5 -22.5t19.5 -54.5zM375 658q0 -32 -19.5 -55t-57.5 -23t-57.5 23t-19.5 55t19.5 54.5t57.5 22.5t57.5 -22.5t19.5 -54.5z" />
    <glyph glyph-name="eth" unicode="&#xf0;" horiz-adv-x="821" 
d="M804 629q1 -18 -6 -33q-6 -13 -20.5 -24.5t-44.5 -16.5q-14 -2 -30.5 -3.5t-35.5 -2.5q1 -24 3 -60t1 -79t-6.5 -89t-18.5 -91q-8 -33 -20.5 -60t-30.5 -49.5t-42.5 -41.5t-57.5 -38q-39 -20 -86 -31t-95.5 -13t-94.5 6t-82 27q-24 14 -45 33q-18 17 -36.5 41.5
t-26.5 58.5q-8 31 -10.5 68.5t3.5 76.5t22 75.5t46 64.5q46 43 96.5 57t93.5 14q50 -1 98 -15l-2 12q-2 10 -3 30q-17 1 -32.5 1.5t-30.5 2.5q-35 2 -54 13t-27 23q-10 14 -11 31q-2 19 8 35q8 14 27.5 26.5t59.5 17.5q20 2 39.5 3.5t39.5 3.5q14 30 39.5 50t68.5 20
q48 0 78.5 -21t48.5 -50q20 -2 36 -2.5t27 -1.5q13 -1 24 -2q35 -4 53.5 -14.5t26.5 -22.5q10 -14 10 -30zM357 274q-17 0 -29.5 -13t-10.5 -29q2 -21 12.5 -29t27.5 -8t28 10t11 27q0 16 -10 29t-29 13z" />
    <glyph glyph-name="ntilde" unicode="&#xf1;" horiz-adv-x="716" 
d="M699 230q2 -59 -11 -107q-6 -21 -15.5 -41.5t-25.5 -38t-37.5 -30.5t-51.5 -18l-12 -1t-30.5 1t-40 8.5t-40.5 22t-32.5 41.5t-15.5 66q-4 39 -8 70q-5 26 -11 48.5t-16 22.5q3 -37 3.5 -64t-0.5 -46q-1 -22 -2 -38q-5 -37 -23 -66q-15 -25 -44.5 -46t-81.5 -22
q-25 0 -44.5 5.5t-34.5 15.5t-26.5 22.5t-19.5 25.5q-19 31 -27 70q-7 27 -11 62q-4 30 -5 72t4 96q5 42 23 76q7 14 18 28t26 25.5t34.5 19t44.5 9.5q44 3 72.5 -4t46.5 -18.5t27.5 -25t16.5 -25.5q90 49 164 46q31 -1 62 -13.5t56.5 -42t43.5 -79.5t24 -127zM545 629
q-15 -27 -34 -41t-39 -19t-40.5 -2t-39.5 10q-45 17 -92 56q-9 -34 -25.5 -47.5t-33.5 -16.5q-19 -4 -41 3q-13 4 -23.5 14t-16.5 23t-7.5 27t3.5 27q18 54 52 80q15 11 34.5 17.5t45 3.5t57.5 -17.5t71 -44.5l2 -4q10 29 33 45.5t54 6.5q25 -9 40 -25q13 -14 16.5 -37.5
t-16.5 -58.5z" />
    <glyph glyph-name="ograve" unicode="&#xf2;" horiz-adv-x="586" 
d="M540 116q-16 -29 -37.5 -50.5t-41.5 -35.5q-23 -17 -47 -27q-20 -8 -38.5 -12.5t-32.5 -6.5q-17 -3 -30 -3q-55 0 -96.5 11t-72.5 28.5t-52.5 40.5t-34.5 47q-33 55 -36 127q0 58 12.5 100.5t33 73t47 50.5t53.5 32q64 28 146 25q48 0 85 -11t64.5 -29t46 -40.5
t30.5 -46.5q28 -55 32 -126q0 -47 -8.5 -83t-22.5 -64zM307 274q-17 0 -29.5 -13t-10.5 -29q2 -21 12.5 -29t27.5 -8t28 10t11 27q0 16 -10 29t-29 13zM278 757q16 -5 35.5 -15.5t37.5 -23t33.5 -26t23.5 -23.5q9 -12 14 -24q5 -11 6.5 -25t-6.5 -29q-8 -17 -21 -23t-26 -8
q-15 -2 -31 2q-31 5 -61 14q-26 8 -53.5 19.5t-48.5 30.5q-19 16 -25 32.5t-4.5 31.5t8.5 28t15 21q7 7 16 13.5t20.5 10t27.5 2.5t39 -8z" />
    <glyph glyph-name="oacute" unicode="&#xf3;" horiz-adv-x="586" 
d="M540 116q-16 -29 -37.5 -50.5t-41.5 -35.5q-23 -17 -47 -27q-20 -8 -38.5 -12.5t-32.5 -6.5q-17 -3 -30 -3q-55 0 -96.5 11t-72.5 28.5t-52.5 40.5t-34.5 47q-33 55 -36 127q0 58 12.5 100.5t33 73t47 50.5t53.5 32q64 28 146 25q48 0 85 -11t64.5 -29t46 -40.5
t30.5 -46.5q28 -55 32 -126q0 -47 -8.5 -83t-22.5 -64zM307 274q-17 0 -29.5 -13t-10.5 -29q2 -21 12.5 -29t27.5 -8t28 10t11 27q0 16 -10 29t-29 13zM181 667q8 10 23.5 23.5t33.5 26t37.5 23t35.5 15.5q22 7 38.5 8t28 -2.5t20 -10t16.5 -13.5q8 -8 15 -21t8.5 -28
t-4.5 -31.5t-25 -32.5q-21 -19 -49 -30.5t-54 -19.5q-30 -9 -60 -14q-16 -4 -31 -2q-13 2 -26 8t-21 23q-8 15 -7 29t6 25q5 12 15 24z" />
    <glyph glyph-name="ocircumflex" unicode="&#xf4;" horiz-adv-x="586" 
d="M540 116q-16 -29 -37.5 -50.5t-41.5 -35.5q-23 -17 -47 -27q-20 -8 -38.5 -12.5t-32.5 -6.5q-17 -3 -30 -3q-55 0 -96.5 11t-72.5 28.5t-52.5 40.5t-34.5 47q-33 55 -36 127q0 58 12.5 100.5t33 73t47 50.5t53.5 32q64 28 146 25q48 0 85 -11t64.5 -29t46 -40.5
t30.5 -46.5q28 -55 32 -126q0 -47 -8.5 -83t-22.5 -64zM157 655q1 1 14 16t34 32t48 31.5t56 14.5q28 0 54 -14.5t47 -32.5t33.5 -33.5t13.5 -16.5q14 -19 10 -42t-24 -37t-43 -10t-37 24q-2 1 -16.5 18t-37.5 30q-14 -9 -26 -18t-20 -17q-10 -9 -17 -16q-11 -12 -23 -18
q-11 -5 -25.5 -5t-31.5 14q-19 15 -21.5 38.5t12.5 41.5zM307 274q-17 0 -29.5 -13t-10.5 -29q2 -21 12.5 -29t27.5 -8t28 10t11 27q0 16 -10 29t-29 13z" />
    <glyph glyph-name="otilde" unicode="&#xf5;" horiz-adv-x="586" 
d="M540 116q-16 -29 -37.5 -50.5t-41.5 -35.5q-23 -17 -47 -27q-20 -8 -38.5 -12.5t-32.5 -6.5q-17 -3 -30 -3q-55 0 -96.5 11t-72.5 28.5t-52.5 40.5t-34.5 47q-33 55 -36 127q0 58 12.5 100.5t33 73t47 50.5t53.5 32q64 28 146 25q48 0 85 -11t64.5 -29t46 -40.5
t30.5 -46.5q28 -55 32 -126q0 -47 -8.5 -83t-22.5 -64zM481 629q-15 -27 -34 -41t-39 -19t-40.5 -2t-39.5 10q-45 17 -92 56q-9 -34 -25.5 -47.5t-33.5 -16.5q-19 -4 -41 3q-13 4 -23.5 14t-16.5 23t-7.5 27t3.5 27q18 54 52 80q15 11 34.5 17.5t45 3.5t57.5 -17.5t71 -44.5
l2 -4q10 29 33 45.5t54 6.5q25 -9 40 -25q13 -14 16.5 -37.5t-16.5 -58.5zM307 274q-17 0 -29.5 -13t-10.5 -29q2 -21 12.5 -29t27.5 -8t28 10t11 27q0 16 -10 29t-29 13z" />
    <glyph glyph-name="odieresis" unicode="&#xf6;" horiz-adv-x="586" 
d="M540 116q-16 -29 -37.5 -50.5t-41.5 -35.5q-23 -17 -47 -27q-20 -8 -38.5 -12.5t-32.5 -6.5q-17 -3 -30 -3q-55 0 -96.5 11t-72.5 28.5t-52.5 40.5t-34.5 47q-33 55 -36 127q0 58 12.5 100.5t33 73t47 50.5t53.5 32q64 28 146 25q48 0 85 -11t64.5 -29t46 -40.5
t30.5 -46.5q28 -55 32 -126q0 -47 -8.5 -83t-22.5 -64zM307 274q-17 0 -29.5 -13t-10.5 -29q2 -21 12.5 -29t27.5 -8t28 10t11 27q0 16 -10 29t-29 13zM290 658q0 -32 -19.5 -55t-57.5 -23t-57.5 23t-19.5 55t19.5 54.5t57.5 22.5t57.5 -22.5t19.5 -54.5zM473 658
q0 -32 -19.5 -55t-57.5 -23t-57.5 23t-19.5 55t19.5 54.5t57.5 22.5t57.5 -22.5t19.5 -54.5z" />
    <glyph glyph-name="divide" unicode="&#xf7;" horiz-adv-x="574" 
d="M376 635q0 -42 -25 -70t-73 -28t-73 28t-25 70q0 41 25 69.5t73 28.5t73 -28.5t25 -69.5zM376 118q0 -42 -25 -70t-73 -28t-73 28t-25 70q0 41 25 69.5t73 28.5t73 -28.5t25 -69.5zM430 485q39 -10 60.5 -27t31.5 -34q11 -20 13 -42q3 -25 -4 -46q-6 -19 -23.5 -37
t-55.5 -27q-44 -10 -83.5 -15t-77.5 -5.5t-76.5 2.5t-80.5 9q-42 5 -63.5 22t-31.5 35q-11 21 -13 46q-3 26 8 49q8 20 30.5 39t68.5 29q59 11 112 12.5t95 -0.5q48 -3 90 -10z" />
    <glyph glyph-name="oslash" unicode="&#xf8;" horiz-adv-x="586" 
d="M540 116q-16 -29 -37.5 -50.5t-41.5 -35.5q-23 -17 -47 -27q-20 -8 -38.5 -12.5t-32.5 -6.5q-17 -3 -30 -3q-38 0 -68.5 5.5t-56.5 13.5q-23 -17 -47.5 -35t-52.5 -18q-31 0 -50.5 18.5t-19.5 47.5q0 22 12 45t30 45q-15 24 -22.5 47.5t-11.5 42.5q-4 22 -5 42
q0 58 12.5 100.5t33 73t47 50.5t53.5 32q64 28 146 25q52 0 92 -14q34 26 57.5 36.5t42.5 10.5q38 0 55.5 -17t17.5 -45q0 -21 -10 -47t-28 -53q11 -24 17.5 -46.5t9.5 -39.5q4 -20 4 -38q0 -47 -8.5 -83t-22.5 -64zM307 274q-17 0 -29.5 -13t-10.5 -29q2 -21 12.5 -29
t27.5 -8t28 10t11 27q0 16 -10 29t-29 13z" />
    <glyph glyph-name="ugrave" unicode="&#xf9;" horiz-adv-x="680" 
d="M205 514q29 -4 52 -19q20 -13 36.5 -39t18.5 -72q0 -17 0.5 -38t3 -39t9 -30.5t19.5 -12.5q23 0 26.5 28.5t4.5 91.5q0 49 18 76t39 39q25 14 57 16q50 2 78.5 -14.5t44.5 -37.5q18 -25 25 -57q11 -53 7.5 -101t-11.5 -86q-10 -44 -26 -83q-19 -44 -53 -78
q-15 -15 -34 -29t-44 -24.5t-55 -16.5t-67 -5q-78 2 -128.5 18.5t-80.5 35.5q-35 22 -53 50q-31 45 -41 100t-9 103q0 56 11 113q11 49 36 73t51 32q30 10 65 6zM299 757q16 -5 35.5 -15.5t37.5 -23t33.5 -26t23.5 -23.5q9 -12 14 -24q5 -11 6.5 -25t-6.5 -29
q-8 -17 -21 -23t-26 -8q-15 -2 -31 2q-31 5 -61 14q-26 8 -53.5 19.5t-48.5 30.5q-19 16 -25 32.5t-4.5 31.5t8.5 28t15 21q7 7 16 13.5t20.5 10t27.5 2.5t39 -8z" />
    <glyph glyph-name="uacute" unicode="&#xfa;" horiz-adv-x="680" 
d="M205 514q29 -4 52 -19q20 -13 36.5 -39t18.5 -72q0 -17 0.5 -38t3 -39t9 -30.5t19.5 -12.5q23 0 26.5 28.5t4.5 91.5q0 49 18 76t39 39q25 14 57 16q50 2 78.5 -14.5t44.5 -37.5q18 -25 25 -57q11 -53 7.5 -101t-11.5 -86q-10 -44 -26 -83q-19 -44 -53 -78
q-15 -15 -34 -29t-44 -24.5t-55 -16.5t-67 -5q-78 2 -128.5 18.5t-80.5 35.5q-35 22 -53 50q-31 45 -41 100t-9 103q0 56 11 113q11 49 36 73t51 32q30 10 65 6zM240 667q8 10 23.5 23.5t33.5 26t37.5 23t35.5 15.5q22 7 38.5 8t28 -2.5t20 -10t16.5 -13.5q8 -8 15 -21
t8.5 -28t-4.5 -31.5t-25 -32.5q-21 -19 -49 -30.5t-54 -19.5q-30 -9 -60 -14q-16 -4 -31 -2q-13 2 -26 8t-21 23q-8 15 -7 29t6 25q5 12 15 24z" />
    <glyph glyph-name="ucircumflex" unicode="&#xfb;" horiz-adv-x="680" 
d="M205 514q29 -4 52 -19q20 -13 36.5 -39t18.5 -72q0 -17 0.5 -38t3 -39t9 -30.5t19.5 -12.5q23 0 26.5 28.5t4.5 91.5q0 49 18 76t39 39q25 14 57 16q50 2 78.5 -14.5t44.5 -37.5q18 -25 25 -57q11 -53 7.5 -101t-11.5 -86q-10 -44 -26 -83q-19 -44 -53 -78
q-15 -15 -34 -29t-44 -24.5t-55 -16.5t-67 -5q-78 2 -128.5 18.5t-80.5 35.5q-35 22 -53 50q-31 45 -41 100t-9 103q0 56 11 113q11 49 36 73t51 32q30 10 65 6zM187 655q1 1 14 16t34 32t48 31.5t56 14.5q28 0 54 -14.5t47 -32.5t33.5 -33.5t13.5 -16.5q14 -19 10 -42
t-24 -37t-43 -10t-37 24q-2 1 -16.5 18t-37.5 30q-14 -9 -26 -18t-20 -17q-10 -9 -17 -16q-11 -12 -23 -18q-11 -5 -25.5 -5t-31.5 14q-19 15 -21.5 38.5t12.5 41.5z" />
    <glyph glyph-name="udieresis" unicode="&#xfc;" horiz-adv-x="680" 
d="M205 514q29 -4 52 -19q20 -13 36.5 -39t18.5 -72q0 -17 0.5 -38t3 -39t9 -30.5t19.5 -12.5q23 0 26.5 28.5t4.5 91.5q0 49 18 76t39 39q25 14 57 16q50 2 78.5 -14.5t44.5 -37.5q18 -25 25 -57q11 -53 7.5 -101t-11.5 -86q-10 -44 -26 -83q-19 -44 -53 -78
q-15 -15 -34 -29t-44 -24.5t-55 -16.5t-67 -5q-78 2 -128.5 18.5t-80.5 35.5q-35 22 -53 50q-31 45 -41 100t-9 103q0 56 11 113q11 49 36 73t51 32q30 10 65 6zM331 658q0 -32 -19.5 -55t-57.5 -23t-57.5 23t-19.5 55t19.5 54.5t57.5 22.5t57.5 -22.5t19.5 -54.5zM514 658
q0 -32 -19.5 -55t-57.5 -23t-57.5 23t-19.5 55t19.5 54.5t57.5 22.5t57.5 -22.5t19.5 -54.5z" />
    <glyph glyph-name="yacute" unicode="&#xfd;" horiz-adv-x="711" 
d="M606 505q31 -14 49 -47q7 -14 12 -33.5t5 -45.5t-6.5 -59.5t-21.5 -75.5q-29 -78 -58.5 -141.5t-54.5 -108.5q-29 -53 -56 -94q-28 -49 -64 -82q-15 -14 -33.5 -25.5t-40 -17t-45 -3.5t-49.5 15q-33 16 -48 41t-18 54.5t3.5 61.5t16 60t20 50.5t16.5 34.5
q-6 6 -12.5 11.5t-11.5 10.5q-6 5 -11 10q-33 25 -59 51t-43 48q-20 26 -35 49q-23 37 -29 76q-3 16 -2 34.5t7 37.5t19.5 38.5t36.5 37.5q32 18 67 20q15 1 32 -2t35.5 -12t38 -24.5t39.5 -40.5q17 -21 31 -41.5t28 -40.5q11 20 32 55t51 64t70 42.5t89 -8.5zM251 667
q8 10 23.5 23.5t33.5 26t37.5 23t35.5 15.5q22 7 38.5 8t28 -2.5t20 -10t16.5 -13.5q8 -8 15 -21t8.5 -28t-4.5 -31.5t-25 -32.5q-21 -19 -49 -30.5t-54 -19.5q-30 -9 -60 -14q-16 -4 -31 -2q-13 2 -26 8t-21 23q-8 15 -7 29t6 25q5 12 15 24z" />
    <glyph glyph-name="thorn" unicode="&#xfe;" horiz-adv-x="681" 
d="M615 426q20 -28 31.5 -65t13.5 -76t-4 -77t-20 -68q-17 -37 -38 -61t-40 -38q-22 -17 -44 -26q-45 -20 -89.5 -18.5t-88.5 6.5q2 -13 5 -37t3 -53t-5 -59.5t-18.5 -56t-37 -43t-60.5 -19.5q-24 -2 -43.5 4.5t-35.5 17.5t-28 25.5t-21 29.5q-21 36 -32 84q-12 45 -22 100
q-8 48 -14 113t-3 144q0 68 5.5 132.5t13.5 116.5q9 60 20 115q8 47 27 83q16 31 48 55.5t85 22.5q32 -2 54 -15t36 -33t21 -45t9 -51q5 -61 -9 -136q53 15 104 14q22 0 45.5 -4.5t46.5 -14t45 -26t40 -41.5zM387 274q-17 0 -29.5 -13t-10.5 -29q2 -21 12.5 -29t27.5 -8
t28 10t11 27q0 16 -10 29t-29 13z" />
    <glyph glyph-name="ydieresis" unicode="&#xff;" horiz-adv-x="711" 
d="M606 505q31 -14 49 -47q7 -14 12 -33.5t5 -45.5t-6.5 -59.5t-21.5 -75.5q-29 -78 -58.5 -141.5t-54.5 -108.5q-29 -53 -56 -94q-28 -49 -64 -82q-15 -14 -33.5 -25.5t-40 -17t-45 -3.5t-49.5 15q-33 16 -48 41t-18 54.5t3.5 61.5t16 60t20 50.5t16.5 34.5
q-6 6 -12.5 11.5t-11.5 10.5q-6 5 -11 10q-33 25 -59 51t-43 48q-20 26 -35 49q-23 37 -29 76q-3 16 -2 34.5t7 37.5t19.5 38.5t36.5 37.5q32 18 67 20q15 1 32 -2t35.5 -12t38 -24.5t39.5 -40.5q17 -21 31 -41.5t28 -40.5q11 20 32 55t51 64t70 42.5t89 -8.5zM338 658
q0 -32 -19.5 -55t-57.5 -23t-57.5 23t-19.5 55t19.5 54.5t57.5 22.5t57.5 -22.5t19.5 -54.5zM521 658q0 -32 -19.5 -55t-57.5 -23t-57.5 23t-19.5 55t19.5 54.5t57.5 22.5t57.5 -22.5t19.5 -54.5z" />
    <glyph glyph-name="dotlessi" unicode="&#x131;" horiz-adv-x="389" 
d="M347 106q-8 -45 -30.5 -69t-47.5 -35q-29 -12 -63 -13q-43 -2 -70.5 11.5t-44.5 30.5q-19 19 -29 46q-20 55 -23.5 112.5t1.5 105.5q5 55 18 109q13 46 36.5 70t46.5 35q27 12 58 13q47 2 75.5 -16t45.5 -41q19 -27 28 -62q7 -33 11 -77q3 -38 1.5 -93t-13.5 -127z" />
    <glyph glyph-name="Lslash" unicode="&#x141;" horiz-adv-x="727" 
d="M431 284q43 23 78 32t62 8t47.5 -10.5t34.5 -22.5q33 -31 47 -85q2 -9 1.5 -28t-8 -42.5t-24 -48.5t-47 -46t-77.5 -35.5t-114 -16.5q-47 -2 -84.5 6t-67 21.5t-52 31.5t-38.5 37q-38 44 -55 101q-5 14 -9 30t-7 33q-15 -4 -32 -4q-35 0 -55 20t-20 45q0 35 29.5 62.5
t70.5 47.5q1 27 3.5 50t4.5 40q3 19 5 36q11 64 37 98t53 48q31 17 67 17q33 1 57.5 -10t42 -30t29.5 -44.5t19 -55.5q25 5 40 5q21 0 36.5 -6t25 -15.5t14.5 -20.5t5 -21q0 -30 -29 -65.5t-80 -66.5q-2 -21 -3.5 -38t-3.5 -30q-2 -15 -3 -27z" />
    <glyph glyph-name="lslash" unicode="&#x142;" horiz-adv-x="559" 
d="M118 229q-8 -2 -16.5 -3t-16.5 -1q-35 0 -55 20t-20 45q0 35 31.5 64t73.5 49q1 32 3 61t4 50q2 25 4 46q6 55 24 99q8 18 19.5 36t27.5 32t37.5 22.5t48.5 8.5q37 -1 69 -23q13 -9 27 -24t25.5 -37.5t20 -53t12.5 -70.5q9 2 16.5 3t14.5 1q21 0 36.5 -6t25 -15.5
t14.5 -20.5t5 -21q0 -29 -28 -63.5t-77 -65.5q0 -49 -2 -90t-4 -71q-3 -35 -5 -64q-5 -44 -23 -77q-8 -14 -19.5 -28t-28 -24.5t-38.5 -16.5t-50 -5q-26 1 -46.5 10.5t-36.5 24.5t-27 34.5t-19 39.5q-18 47 -24 107z" />
    <glyph glyph-name="OE" unicode="&#x152;" horiz-adv-x="1123" 
d="M989 366q0 -31 -13.5 -50t-32.5 -30t-39 -15t-32 -5q42 0 74 -5t55 -14t39 -21t26 -24q24 -29 26 -67q-1 -24 -12 -42.5t-28 -32.5t-38.5 -23.5t-43.5 -15.5q-52 -15 -118 -18q-56 -4 -99.5 -1t-77.5 11t-58.5 19.5t-41.5 25.5q-33 -25 -66.5 -38t-60.5 -19
q-32 -7 -60 -8q-68 0 -119 14.5t-89 38t-64 54t-43 62.5q-40 74 -45 169q0 78 15.5 135t41 98.5t57.5 68t66 42.5q79 37 180 33q60 0 105.5 -14.5t79.5 -38.5q35 29 82 44t89 20q49 6 101 5q48 1 84 -3.5t62 -13t43.5 -19t28.5 -21.5q26 -26 27 -61q0 -30 -9.5 -52t-26 -38
t-38 -26t-43.5 -16q-53 -14 -120 -12q56 -5 83.5 -20.5t39.5 -32.5q13 -20 13 -43zM377 382q-17 0 -29.5 -13t-10.5 -29q2 -21 12.5 -29t27.5 -8t28 10t11 27q0 16 -10 29t-29 13z" />
    <glyph glyph-name="oe" unicode="&#x153;" horiz-adv-x="938" 
d="M696 197q29 -23 61 -28.5t59.5 -9.5t47 -15t24.5 -46q1 -20 -5 -39q-6 -17 -20.5 -34.5t-45.5 -29.5q-44 -14 -95 -18q-44 -4 -100 1.5t-117 30.5q-5 1 -11 5q-5 3 -11.5 7t-14.5 10q-9 -6 -16.5 -10t-12.5 -7q-6 -4 -12 -5q-20 -8 -38.5 -12.5t-32.5 -6.5q-17 -3 -30 -3
q-55 0 -96.5 11t-72.5 28.5t-52.5 40.5t-34.5 47q-33 55 -36 127q0 58 12.5 100.5t33 73t47 50.5t53.5 32q64 28 146 25q52 0 90.5 -12.5t66.5 -32.5q24 16 51 26q51 15 104 16q22 0 47.5 -2.5t51 -10t51.5 -21.5t50 -35q16 -16 28 -36q11 -18 19 -43.5t9 -60.5
q0 -39 -17.5 -64t-46 -38t-64 -15.5t-70.5 4.5zM679 333q-17 0 -29.5 -13t-10.5 -29q2 -21 12.5 -29t27.5 -8t28 10t11 27q0 16 -10 29t-29 13zM311 284q-17 0 -29.5 -13t-10.5 -29q2 -21 12.5 -29t27.5 -8t28 10t11 27q0 16 -10 29t-29 13z" />
    <glyph glyph-name="Scaron" unicode="&#x160;" horiz-adv-x="625" 
d="M306 460q89 -12 144.5 -37.5t86 -57t42 -65t12.5 -61.5q0 -57 -16.5 -97.5t-43 -68t-60 -43.5t-68 -24.5t-67.5 -11t-57 -2.5q-75 0 -122 14.5t-73.5 36.5t-37 47.5t-11.5 47.5q0 43 16.5 70.5t42 43t56.5 21t60 5.5q24 0 51 -3q-65 15 -104 41.5t-60.5 57t-28.5 62
t-7 56.5q0 70 26 112.5t62.5 65t75 29.5t64.5 7q10 0 19.5 0.5t19.5 0.5q74 0 119 -12.5t69.5 -32t32.5 -42t8 -43.5q0 -38 -19.5 -61.5t-49 -36.5t-63.5 -17.5t-64 -4.5q-27 0 -55 3zM472 843q-1 -1 -14 -16t-34 -32t-48 -31.5t-56 -14.5q-28 0 -54.5 14.5t-47 32t-33 33
t-13.5 17.5q-11 14 -11 32q0 22 16.5 40t42.5 18q27 0 45 -25q1 -1 5.5 -6t11.5 -12.5t17 -15.5t21 -14q21 13 35.5 26.5t26 24t22 17t24.5 6.5q9 0 19 -4.5t18.5 -12.5t14 -18.5t5.5 -23.5q0 -19 -13 -35z" />
    <glyph glyph-name="scaron" unicode="&#x161;" horiz-adv-x="561" 
d="M315 318q70 -10 113 -29.5t66 -43t31 -49t8 -46.5q0 -40 -13 -69t-34 -49.5t-48 -32.5t-55 -19t-54.5 -9.5t-46.5 -2.5q-83 0 -132.5 13t-75 32.5t-33 41.5t-7.5 41q0 38 18.5 62t46.5 38t61.5 19.5t63.5 6.5q-55 13 -88.5 31.5t-52 39t-24.5 40.5t-6 35q2 50 28 82
t64.5 50t82 25t81.5 7q67 -2 110 -11t67.5 -24t33.5 -35t9 -44q0 -32 -16 -52.5t-40 -31.5t-52.5 -15t-53.5 -4t-52 3zM447 669q-1 -1 -14 -16t-34 -32t-48 -31.5t-56 -14.5t-55 14.5t-46 32.5t-33 33t-14 17q-11 14 -11 32q0 22 16.5 40t42.5 18q27 0 45 -25q1 -1 5.5 -6
t11.5 -12.5t17 -15.5t21 -14q21 13 35.5 26.5t26 24t22 17t24.5 6.5q9 0 19 -4.5t18.5 -12.5t14 -18.5t5.5 -23.5q0 -19 -13 -35z" />
    <glyph glyph-name="Ydieresis" unicode="&#x178;" horiz-adv-x="740" 
d="M390 547q21 76 53.5 113.5t64.5 51.5q37 17 77 12q32 -4 54.5 -14t37.5 -23.5t23.5 -29.5t13.5 -32q10 -38 2 -84q-13 -55 -43 -95.5t-61 -66.5q-36 -31 -78 -52q20 -63 18 -113t-11 -85q-11 -41 -31 -73q-23 -32 -52 -45.5t-68 -13.5q-32 0 -55.5 7t-38.5 16
q-18 10 -30 23q-16 18 -26.5 39t-16.5 44t-8 46.5t-2 44.5q0 50 11 103q-51 22 -93 55q-18 14 -35.5 31.5t-32.5 38.5t-25.5 45.5t-14.5 52.5q-5 33 -1 58.5t13 45t21.5 33.5t26.5 23q33 22 77 28q33 2 61 -5t50.5 -19.5t40 -29t30.5 -34.5q31 -41 48 -96zM377 854
q0 -32 -19.5 -55t-57.5 -23t-57.5 23t-19.5 55t19.5 54.5t57.5 22.5t57.5 -22.5t19.5 -54.5zM560 854q0 -32 -19.5 -55t-57.5 -23t-57.5 23t-19.5 55t19.5 54.5t57.5 22.5t57.5 -22.5t19.5 -54.5z" />
    <glyph glyph-name="Zcaron" unicode="&#x17d;" horiz-adv-x="727" 
d="M244 392h-12q-29 0 -63 5.5t-63.5 21t-49.5 45t-20 77.5q0 23 11 51t43 52t89.5 40.5t151.5 16.5q79 0 134.5 -8t90 -24t50 -39.5t15.5 -54.5q0 -25 -9.5 -51.5t-22.5 -54.5q-18 -38 -50.5 -84.5t-86.5 -95.5q25 3 49 3q29 0 63 -5t63 -20t48.5 -42.5t19.5 -72.5
q0 -69 -33.5 -104.5t-85 -50.5t-112 -15.5t-114.5 -0.5q-48 0 -92.5 2.5t-81.5 13t-64.5 33t-41.5 62.5q-5 12 -6.5 24t-1.5 24q0 39 16 74.5t41.5 67t58 59.5t66.5 51zM507 831q-1 -1 -14 -16t-34 -32t-48 -31.5t-56 -14.5q-28 0 -54.5 14.5t-46.5 32.5t-33 33.5t-14 16.5
q-11 14 -11 32q0 22 16.5 40t42.5 18q29 0 45 -25q1 -1 5.5 -6t11.5 -12.5t17 -15.5t21 -14q21 13 35.5 26.5t26 24t22 17t24.5 6.5q9 0 19 -4.5t18.5 -12.5t14 -18.5t5.5 -23.5q0 -19 -13 -35z" />
    <glyph glyph-name="zcaron" unicode="&#x17e;" horiz-adv-x="592" 
d="M63 75q-5 22 -5 35q0 40 19 75t42 61t43.5 42t22.5 18h-7q-12 0 -36 3t-48 14.5t-42 35t-18 65.5q0 21 8.5 44.5t34.5 43t73.5 32.5t124.5 13q66 0 113 -8t77 -22.5t43.5 -35t13.5 -44.5q0 -16 -6 -37t-20 -46t-37.5 -53t-59.5 -58q27 -1 57.5 -6.5t57 -19.5t43.5 -39
t17 -65q0 -51 -23 -79t-59.5 -40.5t-81 -15t-87.5 -2.5t-85.5 1.5t-78.5 10t-61.5 26.5t-34.5 51zM426 674q-1 -1 -14 -16t-34 -32t-48 -31.5t-56 -14.5t-55 14.5t-46 32.5t-33 33t-14 17q-11 14 -11 32q0 22 16.5 40t42.5 18q15 0 26.5 -8.5t23 -20t23.5 -24t27 -20.5
q21 13 35.5 26.5t26 24t22 17t24.5 6.5q9 0 19 -4.5t18.5 -12.5t14 -18.5t5.5 -23.5q0 -19 -13 -35z" />
    <glyph glyph-name="florin" unicode="&#x192;" horiz-adv-x="641" 
d="M455 513q40 11 72 9q27 -2 50 -17.5t25 -56.5q1 -41 -18 -59t-43 -24q-28 -7 -64 -2q14 -159 6 -285q-3 -54 -12 -105.5t-25.5 -93t-42 -67.5t-62.5 -28q-65 -5 -99.5 34t-50 115t-17.5 185.5t0 244.5q-38 -11 -68 -7q-13 1 -25.5 6t-23 14t-17 23.5t-7.5 36.5
q-1 30 13.5 48t36.5 26t47 8.5t44 -3.5q-2 28 2 58q4 26 15.5 58t36.5 64q27 32 67 51q35 17 88.5 23t130.5 -14q22 -8 40 -20q15 -11 26 -28.5t8 -43.5q-1 -18 -9 -32q-7 -12 -20.5 -21.5t-38.5 -8.5q-14 0 -25 -4q-10 -3 -20 -10t-15 -21q-2 -5 -3 -13q-3 -15 -2 -40z" />
    <glyph glyph-name="dotlessj" unicode="&#x237;" horiz-adv-x="405" 
d="M347 -69q-5 -28 -16 -55q-9 -24 -24.5 -51.5t-40.5 -51.5q-32 -32 -73 -45t-78 -16q-43 -4 -87 3q-36 5 -55 19.5t-28 29.5q-11 18 -12 38q-3 29 6 47t21 27q14 11 34 15q21 3 31.5 24.5t15.5 46.5q5 29 5 66q2 22 2 50.5v69.5t1.5 99.5t5.5 142.5q2 47 24.5 71t48.5 35
q30 12 68 13q57 0 89 -19t47 -42q18 -26 21 -60q8 -62 12 -135q3 -63 0 -145.5t-18 -176.5z" />
    <glyph glyph-name="circumflex" unicode="&#x2c6;" horiz-adv-x="393" 
d="M46 655q1 1 14 16t34 32t48 31.5t56 14.5q28 0 54 -14.5t47 -32.5t33.5 -33.5t13.5 -16.5q14 -19 10 -42t-24 -37t-43 -10t-37 24q-2 1 -16.5 18t-37.5 30q-14 -9 -26 -18t-20 -17q-10 -9 -17 -16q-11 -12 -23 -18q-11 -5 -25.5 -5t-31.5 14q-19 15 -21.5 38.5t12.5 41.5
z" />
    <glyph glyph-name="caron" unicode="&#x2c7;" horiz-adv-x="412" 
d="M360 619q-1 -1 -14 -16t-34 -32t-48 -31.5t-56 -14.5q-28 0 -54.5 14.5t-46.5 32.5t-33 33.5t-14 16.5q-11 14 -11 32q0 22 16.5 40t42.5 18q15 0 26.5 -8.5t23 -20t23.5 -24t27 -20.5q21 13 35.5 26.5t26 24t22 17t24.5 6.5q9 0 19 -4.5t18.5 -12.5t14 -18.5t5.5 -23.5
q0 -19 -13 -35z" />
    <glyph glyph-name="uni02C9" unicode="&#x2c9;" horiz-adv-x="526" 
d="M277 774q98 0 144 -16.5t46 -56.5q0 -39 -46 -57.5t-134 -18.5q-108 0 -164 18t-56 56t54 56.5t156 18.5z" />
    <glyph glyph-name="breve" unicode="&#x2d8;" horiz-adv-x="393" 
d="M33 690q0 25 16 42t35 17t33.5 -12.5t26.5 -28t24.5 -28t29.5 -12.5q18 0 28 12.5t20 27t22.5 27t35.5 12.5q25 0 38.5 -17.5t13.5 -39.5q0 -21 -12 -44t-33.5 -42t-50.5 -31t-62 -12q-38 0 -68 12.5t-52 31t-33.5 41.5t-11.5 44z" />
    <glyph glyph-name="dotaccent" unicode="&#x2d9;" horiz-adv-x="389" 
d="M304 663q2 -22 -5.5 -43t-22 -37.5t-35.5 -27t-46 -13.5q-26 -3 -48.5 3.5t-40.5 19.5t-29.5 31.5t-14.5 41.5q-2 22 5.5 42.5t22.5 37t36 27.5t46 14t47.5 -3.5t40.5 -19.5t30 -32t14 -41z" />
    <glyph glyph-name="ring" unicode="&#x2da;" horiz-adv-x="329" 
d="M286 631q0 -24 -9.5 -45t-26 -36.5t-39 -24.5t-47.5 -9q-26 0 -48 9t-39 24.5t-26.5 36.5t-9.5 45t9.5 44.5t26.5 36.5t39 25t48 9q25 0 47.5 -9t39 -25t26 -36.5t9.5 -44.5zM163 685q-28 0 -41 -15t-13 -38q0 -22 13 -36.5t42 -14.5t40.5 14t11.5 36q0 26 -14 40t-39 14
z" />
    <glyph glyph-name="ogonek" unicode="&#x2db;" horiz-adv-x="311" 
d="M257 15q-36 -23 -58 -42t-34 -35.5t-16 -29.5t-4 -24q0 -21 13.5 -28t31.5 -7q17 0 31.5 -7t14.5 -30q0 -19 -13.5 -31.5t-32.5 -12.5q-9 0 -18 -0.5t-18 -0.5q-45 0 -73.5 26t-28.5 78q0 48 37 93.5t97 90.5z" />
    <glyph glyph-name="tilde" unicode="&#x2dc;" horiz-adv-x="510" 
d="M440 629q-15 -27 -34 -41t-39 -19t-40.5 -2t-39.5 10q-45 17 -92 56q-9 -34 -25.5 -47.5t-33.5 -16.5q-19 -4 -41 3q-13 4 -23.5 14t-16.5 23t-7.5 27t3.5 27q18 54 52 80q15 11 34.5 17.5t45 3.5t57.5 -17.5t71 -44.5l2 -4q10 29 33 45.5t54 6.5q25 -9 40 -25
q13 -14 16.5 -37.5t-16.5 -58.5z" />
    <glyph glyph-name="hungarumlaut" unicode="&#x2dd;" horiz-adv-x="642" 
d="M49 667q8 10 23.5 23.5t33.5 26t37.5 23t35.5 15.5q22 7 38.5 8t28 -2.5t20 -10t16.5 -13.5q8 -8 15 -21t8.5 -28t-4.5 -31.5t-25 -32.5q-21 -19 -49 -30.5t-54 -19.5q-30 -9 -60 -14q-16 -4 -31 -2q-13 2 -26 8t-21 23q-8 15 -7 29t6 25q5 12 15 24zM349 667
q8 10 23.5 23.5t33.5 26t37.5 23t35.5 15.5q22 7 38.5 8t28 -2.5t20 -10t16.5 -13.5q8 -8 15 -21t8.5 -28t-4.5 -31.5t-25 -32.5q-21 -19 -49 -30.5t-54 -19.5q-30 -9 -60 -14q-16 -4 -31 -2q-13 2 -26 8t-21 23q-8 15 -7 29t6 25q5 12 15 24z" />
    <glyph glyph-name="uni03BC" unicode="&#x3bc;" horiz-adv-x="833" 
d="M95 361q5 37 22 66q14 25 42 45.5t77 20.5q25 0 43.5 -6.5t31 -17t19.5 -23.5t11 -27q9 -33 4 -73q0 -31 -0.5 -58t3 -46.5t12.5 -31t27 -11.5q19 0 26 23t9 52q2 33 -3 75q-5 59 11 88t37 42q25 14 57 14q25 -4 44 -15.5t32.5 -28t22 -36t13.5 -38.5q11 -46 10 -102
q-2 -63 -14.5 -108t-32 -75.5t-44.5 -49t-50 -28.5q-60 -23 -135 -10q0 -46 -6 -86.5t-22 -70.5t-45 -47.5t-75 -17.5q-41 0 -65 23t-37 51q-15 33 -21 74q-11 94 -13 173t0 137q3 68 9 123z" />
    <glyph glyph-name="endash" unicode="&#x2013;" horiz-adv-x="579" 
d="M407 409q34 -9 53 -26t27 -34q10 -20 11 -42q2 -23 -4 -43q-5 -17 -20.5 -35t-47.5 -29q-73 -24 -137.5 -26t-135.5 9q-35 5 -54.5 22t-27.5 35q-11 21 -11 46q-2 26 7 49q8 20 26.5 39t58.5 28q51 11 97 14t81 1q41 -2 77 -8z" />
    <glyph glyph-name="emdash" unicode="&#x2014;" horiz-adv-x="833" 
d="M531 409q34 -8 53 -24.5t27 -33.5q10 -20 11 -44t-6 -46q-6 -19 -21.5 -37.5t-47.5 -29.5q-36 -12 -85.5 -18.5t-103 -8t-107 2.5t-98.5 13q-35 7 -53.5 24.5t-27.5 34.5q-11 20 -12 44q-2 26 7 49q8 20 26.5 38.5t58.5 28.5q63 15 129.5 17.5t122.5 0.5q65 -3 127 -11z
" />
    <glyph glyph-name="quoteleft" unicode="&#x2018;" horiz-adv-x="285" 
d="M35 524q-2 40 2.5 69t13 49.5t20.5 33t24 20.5q29 18 68 13q11 -2 16 -7t6 -10q1 -6 -1 -14q-4 -11 -12 -14q-4 -2 -9 -2q-13 0 -13.5 -9t0.5 -18q48 -3 72.5 -33t24.5 -73q0 -44 -27 -74.5t-78 -30.5t-78 29t-29 71z" />
    <glyph glyph-name="quoteright" unicode="&#x2019;" horiz-adv-x="296" 
d="M250 623q2 -40 -2.5 -69t-13 -49.5t-20.5 -33.5t-24 -20q-29 -18 -68 -13q-12 2 -16.5 7t-5.5 10q-1 6 1 14q3 10 12 14q4 2 9 2q13 0 13.5 9t-0.5 18q-48 3 -72.5 33t-24.5 73q0 44 27 74.5t78 30.5t78 -29t29 -71z" />
    <glyph glyph-name="quotesinglbase" unicode="&#x201a;" horiz-adv-x="296" 
d="M250 103q2 -40 -2.5 -69t-13 -49.5t-20.5 -33.5t-24 -20q-29 -18 -68 -13q-12 2 -16.5 7t-5.5 10q-1 6 1 14q3 10 12 14q4 2 9 2q13 0 13.5 9t-0.5 18q-48 3 -72.5 33t-24.5 73q0 44 27 74.5t78 30.5t78 -29t29 -71z" />
    <glyph glyph-name="quotedblleft" unicode="&#x201c;" horiz-adv-x="541" 
d="M280 524q-2 40 2.5 69t13 49.5t20.5 33t24 20.5q29 18 68 13q11 -2 16 -7t6 -10q1 -6 -1 -14q-4 -11 -12 -14q-4 -2 -9 -2q-13 0 -13.5 -9t0.5 -18q48 -3 72.5 -33t24.5 -73q0 -44 -27 -74.5t-78 -30.5t-78 29t-29 71zM35 524q-2 40 2.5 69t13 49.5t20.5 33t24 20.5
q29 18 68 13q11 -2 16 -7t6 -10q1 -6 -1 -14q-4 -11 -12 -14q-4 -2 -9 -2q-13 0 -13.5 -9t0.5 -18q48 -3 72.5 -33t24.5 -73q0 -44 -27 -74.5t-78 -30.5t-78 29t-29 71z" />
    <glyph glyph-name="quotedblright" unicode="&#x201d;" horiz-adv-x="550" 
d="M255 623q2 -40 -2.5 -69t-13 -49.5t-20.5 -33.5t-24 -20q-29 -18 -68 -13q-12 2 -16.5 7t-5.5 10q-1 6 1 14q3 10 12 14q4 2 9 2q13 0 13.5 9t-0.5 18q-48 3 -72.5 33t-24.5 73q0 44 27 74.5t78 30.5t78 -29t29 -71zM500 623q2 -40 -2.5 -69t-13 -49.5t-20.5 -33.5
t-24 -20q-29 -18 -68 -13q-12 2 -16.5 7t-5.5 10q-1 6 1 14q3 10 12 14q4 2 9 2q13 0 13.5 9t-0.5 18q-48 3 -72.5 33t-24.5 73q0 44 27 74.5t78 30.5t78 -29t29 -71z" />
    <glyph glyph-name="quotedblbase" unicode="&#x201e;" horiz-adv-x="544" 
d="M255 99q2 -40 -2.5 -69t-13 -49.5t-20.5 -33.5t-24 -20q-29 -18 -68 -13q-12 2 -16.5 7t-5.5 10q-1 6 1 14q3 10 12 14q4 2 9 2q13 0 13.5 9t-0.5 18q-48 3 -72.5 33t-24.5 73q0 44 27 74.5t78 30.5t78 -29t29 -71zM500 99q2 -40 -2.5 -69t-13 -49.5t-20.5 -33.5t-24 -20
q-29 -18 -68 -13q-12 2 -16.5 7t-5.5 10q-1 6 1 14q3 10 12 14q4 2 9 2q13 0 13.5 9t-0.5 18q-48 3 -72.5 33t-24.5 73q0 44 27 74.5t78 30.5t78 -29t29 -71z" />
    <glyph glyph-name="dagger" unicode="&#x2020;" horiz-adv-x="641" 
d="M455 592q8 2 18 4q8 2 19.5 3.5t23.5 1.5q15 0 30.5 -5t27.5 -15.5t20 -27.5t8 -41q0 -27 -10.5 -44t-25.5 -27t-32 -14t-31 -4t-19 1q-4 0 -7 1q2 -14 4 -32q2 -15 3.5 -35.5t1.5 -46.5q0 -44 -6 -77t-23 -55t-48 -33.5t-81 -11.5q-51 0 -82 7.5t-47 29.5t-21 63t-5 107
v41t1 43l-16 -4t-16.5 -3t-19.5 -1q-14 0 -30 4.5t-29 15.5t-21.5 29t-8.5 44q0 22 9.5 39t24.5 27.5t33.5 16t36.5 5.5q10 0 19.5 -1t17.5 -3q-1 4 -1 8q-1 4 -1 9.5v13.5q0 19 4 44t16 46.5t35.5 36.5t62.5 15q52 0 85 -6.5t52 -20t25.5 -34.5t6.5 -51q0 -15 -1 -30
t-3 -33z" />
    <glyph glyph-name="daggerdbl" unicode="&#x2021;" horiz-adv-x="641" 
d="M455 158q2 -18 3 -33t1 -30q0 -30 -6.5 -51t-25.5 -34.5t-52 -20t-85 -6.5q-39 0 -62.5 15t-35.5 36.5t-16 46t-4 44.5v13t1 10q0 4 1 8q-8 -2 -17.5 -3t-19.5 -1q-18 0 -36.5 5.5t-33.5 16t-24.5 27t-9.5 39.5q0 26 8.5 44t21.5 29t29 15.5t30 4.5q20 0 34 -3.5t17 -4.5
v99q-4 -1 -18.5 -4t-32.5 -3q-14 0 -30 4.5t-29 15.5t-21.5 29t-8.5 44q0 22 9.5 39t24.5 27.5t33.5 16t36.5 5.5q10 0 19.5 -1t17.5 -3q-1 4 -1 8q-1 4 -1 9.5v13.5q0 19 4 44t16 46.5t35.5 36.5t62.5 15q52 0 85 -6.5t52 -20t25.5 -34.5t6.5 -51q0 -15 -1 -30t-3 -33
q8 2 18 4q8 2 19.5 3.5t23.5 1.5q15 0 30.5 -5t27.5 -15.5t20 -27.5t8 -41q0 -27 -10.5 -44t-25.5 -27t-32 -14t-31 -4h-17v-97q4 1 17 1q14 0 31 -4t32 -14t25.5 -27t10.5 -44q0 -24 -8 -41t-20 -27.5t-27.5 -15.5t-30.5 -5q-12 0 -23.5 1t-19.5 3q-10 2 -18 5z" />
    <glyph glyph-name="bullet" unicode="&#x2022;" horiz-adv-x="541" 
d="M476 327q0 -42 -13 -79t-38.5 -64.5t-63.5 -43.5t-88 -16q-49 0 -87 16t-63.5 43.5t-39 64.5t-13.5 79t13.5 78.5t39 64.5t63.5 44t87 16q50 0 88 -16t63.5 -44t38.5 -64.5t13 -78.5z" />
    <glyph glyph-name="ellipsis" unicode="&#x2026;" horiz-adv-x="1056" 
d="M301 116q0 -26 -8 -49t-24 -40t-39.5 -27t-54.5 -10q-30 0 -53.5 10t-39.5 27t-24.5 40t-8.5 49t8.5 49t24.5 40t39.5 27t53.5 10q31 0 54.5 -10t39.5 -27t24 -40t8 -49zM653 116q0 -26 -8 -49t-24 -40t-39.5 -27t-54.5 -10q-30 0 -53.5 10t-39.5 27t-24.5 40t-8.5 49
t8.5 49t24.5 40t39.5 27t53.5 10q31 0 54.5 -10t39.5 -27t24 -40t8 -49zM1005 116q0 -26 -8 -49t-24 -40t-39.5 -27t-54.5 -10q-30 0 -53.5 10t-39.5 27t-24.5 40t-8.5 49t8.5 49t24.5 40t39.5 27t53.5 10q31 0 54.5 -10t39.5 -27t24 -40t8 -49z" />
    <glyph glyph-name="perthousand" unicode="&#x2030;" horiz-adv-x="1057" 
d="M273 55q-15 -21 -31 -28.5t-29 -7.5q-15 0 -29 7t-23 19q-8 11 -12 28.5t4 43.5q9 30 29 74t46 94.5t55 104t56.5 101.5t51 87.5t38.5 61.5q17 26 35.5 35t34.5 9q18 0 36 -9q15 -5 24 -17q8 -11 11 -29.5t-8 -48.5q-32 -87 -80.5 -178.5t-95.5 -169.5q-55 -91 -113 -177
zM307 514q-6 -34 -22 -56t-38.5 -34.5t-49 -15t-53.5 2.5q-55 11 -85.5 50.5t-20.5 95.5q5 27 18 51t33.5 40.5t48 23t62.5 0.5q33 -6 56 -21.5t36 -36.5t16.5 -47t-1.5 -53zM666 119q-6 -34 -22 -56.5t-38.5 -34.5t-49 -15t-53.5 2q-28 5 -49.5 18.5t-36 32.5t-20 43.5
t-0.5 51.5t18 51t33.5 40.5t48 23.5t62.5 1q33 -6 56 -21.5t36 -36.5t16.5 -47t-1.5 -53zM996 119q-6 -34 -22 -56.5t-38.5 -34.5t-49 -15t-53.5 2q-28 5 -49.5 18.5t-36 32.5t-20 43.5t-0.5 51.5t18 51t33.5 40.5t48 23.5t62.5 1q33 -6 56 -21.5t36 -36.5t16.5 -47
t-1.5 -53z" />
    <glyph glyph-name="guilsinglleft" unicode="&#x2039;" horiz-adv-x="450" 
d="M243 11q-1 1 -17 11.5t-39 28.5t-50 42t-50 52.5t-38 59.5t-15 64q0 31 15 62.5t38 60.5t50 54t50 43.5t39 29t17 11.5q16 12 38 15t44 -1.5t41.5 -17t32.5 -32.5q27 -43 15.5 -82t-48.5 -66q-11 -9 -24 -20q-11 -10 -25.5 -24t-30.5 -31q22 -22 41.5 -39.5t34.5 -30.5
q18 -15 32 -28q19 -18 27 -41q7 -20 3.5 -47t-30.5 -59q-13 -15 -32.5 -24t-40.5 -11t-42 3t-36 17z" />
    <glyph glyph-name="guilsinglright" unicode="&#x203a;" horiz-adv-x="471" 
d="M224 524q1 -1 17 -11.5t39 -28.5t50 -42t50 -52.5t38 -60t15 -63.5q0 -31 -15 -62.5t-38 -60.5t-50 -54t-50 -43.5t-39 -29.5t-17 -11q-17 -12 -38.5 -15t-43.5 1.5t-41.5 17t-32.5 32.5q-27 43 -15.5 82t48.5 66q11 9 24 20q11 10 25 24l31 31q-22 21 -41.5 39t-34.5 31
q-18 15 -32 28q-19 18 -27 41q-7 20 -4 47t31 59q13 15 32.5 24t40.5 11t42 -3t36 -17z" />
    <glyph glyph-name="fraction" unicode="&#x2044;" horiz-adv-x="428" 
d="M186 26q-13 -27 -29.5 -38t-30.5 -14q-18 -4 -35 1t-30 16q-11 10 -19.5 28.5t-4.5 50.5q4 35 17 89t31 117t39.5 129t42.5 126t39 109t30 77q14 33 33.5 46.5t36.5 17.5q20 4 42 -2q19 -3 31 -14q11 -10 17.5 -30.5t1.5 -56.5q-8 -52 -22 -107.5t-30.5 -111
t-34.5 -109.5t-36 -102q-42 -114 -89 -222z" />
    <glyph glyph-name="foursuperior" unicode="&#x2074;" horiz-adv-x="411" 
d="M351 566q0 -16 -6 -24t-14 -13q-9 -5 -19 -6q0 -2 1 -6q0 -3 0.5 -6.5t0.5 -8.5q0 -12 -2.5 -26.5t-10 -27t-21.5 -21.5t-38 -9q-22 0 -35 9t-20 22t-9 28t-2 26v14q0 3 1 6q-38 0 -61 5q-12 2 -21 5q-20 5 -27.5 19t-7.5 32q0 17 5 36.5t12 35.5q8 18 18 36
q15 26 31.5 42.5t33 25.5t31.5 12t27 3q32 0 51 -16.5t28.5 -39.5t12.5 -48t3 -43q0 -5 -0.5 -8t-0.5 -5v-5q14 -1 22 -7.5t12 -14.5q4 -10 5 -22zM169 649q-11 0 -18.5 -8t-7.5 -18q0 -15 7.5 -20.5t18.5 -5.5t18.5 6.5t7.5 18.5q0 10 -6.5 18.5t-19.5 8.5z" />
    <glyph glyph-name="oneinferior" unicode="&#x2081;" horiz-adv-x="340" 
d="M152 156q-8 -7 -17 -11q-8 -4 -17 -7t-18 -3q-15 0 -27.5 13t-12.5 36q0 20 11.5 37t29 29t38.5 18.5t40 6.5q35 0 55.5 -17t30.5 -43.5t12.5 -60t2.5 -66.5q0 -59 -8.5 -91t-20 -47t-24 -18t-20.5 -3q-22 0 -35.5 11t-21 28.5t-10.5 38t-3 39.5q0 22 2 42t5 35
q4 18 8 33z" />
    <glyph glyph-name="twoinferior" unicode="&#x2082;" horiz-adv-x="379" 
d="M158 275q25 0 49 -5.5t42.5 -17.5t30 -32t11.5 -50q0 -25 -8 -46.5t-18 -38.5q-11 -19 -26 -36q1 0 14 -1t27.5 -7t26.5 -19.5t12 -38.5q0 -22 -14.5 -34.5t-35 -19t-42.5 -8.5t-36 -2q-16 0 -37.5 2.5t-41 10t-33 21.5t-13.5 38q0 25 15 43t33.5 33.5t33.5 30t15 33.5
q0 15 -7.5 21.5t-15.5 6.5q-13 0 -23.5 -3t-17.5 -3q-14 0 -21.5 7t-11.5 15q-4 10 -6 22q0 25 15 40.5t33 23.5t33.5 11t16.5 3z" />
    <glyph glyph-name="threeinferior" unicode="&#x2083;" horiz-adv-x="399" 
d="M68 211q0 20 12 32.5t29.5 19.5t37.5 9.5t37 2.5q16 0 37 -2t39.5 -9.5t31.5 -22t13 -38.5q0 -13 -4 -24t-9 -19q-5 -10 -12 -18q27 -13 43 -40t16 -61q0 -30 -11 -53t-30.5 -38.5t-45.5 -24t-55 -8.5q-15 0 -38.5 3.5t-45 12.5t-37.5 23t-16 35q0 18 6 28t14 15t16 6.5
t12 1.5q9 0 17.5 -3.5t16.5 -7.5t16.5 -7.5t18.5 -3.5q11 0 17 3t8.5 7t3 8t0.5 6q0 9 -4.5 14.5t-10 8t-11.5 3t-9 0.5q-21 0 -33 5.5t-18 13t-7.5 15.5t-1.5 12q0 12 6 20.5t14.5 14.5t17.5 9.5t14 4.5q-6 0 -11.5 0.5t-10.5 0.5q-26 0 -40.5 5.5t-21.5 13t-9 15t-2 11.5z
" />
    <glyph glyph-name="fourinferior" unicode="&#x2084;" horiz-adv-x="411" 
d="M351 66q0 -16 -6 -24t-14 -13q-9 -5 -19 -6q0 -2 1 -6q0 -3 0.5 -6.5t0.5 -8.5q0 -12 -2.5 -26.5t-10 -27t-21.5 -21.5t-38 -9q-22 0 -35 9t-20 22t-9 28t-2 26v14q0 3 1 6q-38 0 -61 5q-12 2 -21 5q-20 5 -27.5 19t-7.5 32q0 17 5 36.5t12 35.5q8 18 18 36
q15 26 31.5 42.5t33 25.5t31.5 12t27 3q32 0 51 -16.5t28.5 -39.5t12.5 -48t3 -43q0 -5 -0.5 -8t-0.5 -5v-5q14 -1 22 -7.5t12 -14.5q4 -10 5 -22zM169 149q-11 0 -18.5 -8t-7.5 -18q0 -15 7.5 -20.5t18.5 -5.5t18.5 6.5t7.5 18.5q0 10 -6.5 18.5t-19.5 8.5z" />
    <glyph glyph-name="Euro" unicode="&#x20ac;" horiz-adv-x="697" 
d="M138 504q15 58 52 104q16 19 38 38t51.5 33.5t67.5 23.5t85 9q76 -4 133 -22q24 -8 46.5 -19.5t39 -28t24.5 -39t3 -50.5q-4 -29 -20 -48q-14 -17 -40 -27t-71 3q-42 11 -63.5 9.5t-31.5 -8.5q-11 -8 -13 -22q32 -1 57 -7q21 -5 37.5 -17t13.5 -34t-23.5 -30t-43.5 -10
q-27 -2 -62 4q-2 -5 -3 -9t-0.5 -9.5t3.5 -10.5q35 4 62 1q23 -2 43.5 -10t23.5 -27q4 -24 -12.5 -37t-37.5 -19q-25 -7 -58 -8q3 -14 13 -22q8 -7 24 -9t43 9q13 5 33 10.5t41 5.5t40 -8.5t30 -29.5q16 -33 10 -68t-32 -64t-70.5 -48.5t-103.5 -21.5q-63 -2 -117 7
t-96.5 33.5t-72 66t-44.5 103.5q-32 -7 -58 -3q-22 3 -39.5 17.5t-17.5 49.5q0 32 17 46.5t37 18.5q24 4 54 0q-2 8 -3 17q-1 8 -0.5 17t3.5 17q-30 -4 -54 0q-20 4 -37 18t-17 46t18 45.5t40 16.5q26 4 58 -3z" />
    <glyph glyph-name="trademark" unicode="&#x2122;" horiz-adv-x="1095" 
d="M817 518q-3 -34 -7.5 -58t-12.5 -39t-20 -21.5t-31 -6.5q-34 0 -50.5 31.5t-22.5 94.5h-6q-6 -56 -15.5 -91t-20.5 -55t-24.5 -27.5t-26.5 -7.5q-39 0 -61.5 15.5t-33.5 36t-13.5 40.5t-2.5 29q0 50 7 91.5t15 71.5t15.5 46.5l7.5 16.5q13 30 30 47t33.5 26t31 11t22.5 2
q36 0 58 -16.5t33.5 -38t15.5 -43.5l6 -33h4q2 11 7.5 33t18 44t33 38.5t52.5 16.5q29 0 51 -14.5t36 -31.5q17 -20 29 -45q16 -38 25 -75.5t13 -68.5q4 -36 5 -69q0 -47 -11.5 -73.5t-26.5 -39t-29.5 -15t-20.5 -2.5q-34 0 -54.5 18t-32 45t-15.5 58.5t-5 58.5h-6zM154 591
q-1 -1 -4 -1h-11q-12 0 -30.5 2.5t-35 10.5t-28.5 24t-12 43q0 30 12 47.5t27 26.5q18 11 40 15q33 7 66 9.5t62 2.5q27 0 51 -2t41 -4q20 -3 37 -5q25 -5 38.5 -16.5t20.5 -23.5t8.5 -22t1.5 -14q0 -30 -11.5 -47.5t-27.5 -27t-33 -12t-27 -2.5h-13q5 -30 7 -56t2 -47
q0 -54 -8.5 -85t-21.5 -46.5t-28 -20t-28 -4.5q-15 0 -33 3t-33.5 18t-25.5 46t-10 87q0 42 3 71q2 16 4 30z" />
    <glyph glyph-name="minus" unicode="&#x2212;" horiz-adv-x="543" 
d="M395 404q34 -9 53 -26t27 -34q10 -20 11 -42q2 -25 -4 -46q-5 -19 -20.5 -37t-47.5 -27q-74 -20 -138 -20t-135 11q-35 5 -54.5 22t-27.5 35q-11 21 -11 46q-2 26 7 49q8 20 26.5 39t58.5 28q51 11 97 12.5t81 -0.5q41 -3 77 -10z" />
    <glyph glyph-name="uni2215" unicode="&#x2215;" horiz-adv-x="428" 
d="M186 26q-13 -27 -29.5 -38t-30.5 -14q-18 -4 -35 1t-30 16q-11 10 -19.5 28.5t-4.5 50.5q4 35 17 89t31 117t39.5 129t42.5 126t39 109t30 77q14 33 33.5 46.5t36.5 17.5q20 4 42 -2q19 -3 31 -14q11 -10 17.5 -30.5t1.5 -56.5q-8 -52 -22 -107.5t-30.5 -111
t-34.5 -109.5t-36 -102q-42 -114 -89 -222z" />
    <glyph glyph-name="uni2219" unicode="&#x2219;" horiz-adv-x="352" 
d="M301 249q0 -26 -8 -49t-24 -40t-39.5 -27t-54.5 -10q-30 0 -53.5 10t-39.5 27t-24.5 40t-8.5 49t8.5 49t24.5 40t39.5 27t53.5 10q31 0 54.5 -10t39.5 -27t24 -40t8 -49z" />
    <glyph glyph-name="NULL" horiz-adv-x="0" 
 />
    </font>
</defs>
</svg>
